<svg width="128" height="128" viewBox="0 0 128 128" fill="none" xmlns="http://www.w3.org/2000/svg">
<path fill-rule="evenodd" clip-rule="evenodd" d="M37.6587 49.9803L34.3097 47.9955L37.9009 41.9978L40.8559 43.6542C42.5345 44.5951 46.9392 47.0624 50.6441 49.1371C63.5521 56.3654 79.6909 65.7923 85.9406 69.7542L87.9213 71.01L89.4976 72.3315C93.9124 76.0327 94.7579 76.7639 96.392 78.2934C97.8578 79.6653 99.7032 81.439 99.8417 81.6088C99.9876 81.7878 99.9188 81.8665 99.6474 81.8309C98.8408 81.7254 93.8786 80.2005 91.3518 79.2816C87.7458 77.9703 84.5668 76.6754 82.4152 75.6416C81.9579 75.4218 81.2753 75.096 80.8983 74.9173C80.5214 74.7387 78.9532 73.907 77.4135 73.0692C73.582 70.9845 49.1227 56.868 44.4386 54.038C42.5515 52.898 39.5006 51.0719 37.6587 49.9803Z" fill="#ADADAD"/>
<path fill-rule="evenodd" clip-rule="evenodd" d="M12.4999 36.4381C10.5369 35.6661 9.53206 35.4739 8.53152 35.6066C7.78715 35.7053 7.49072 35.6678 6.97796 35.4101C5.88826 34.8623 5.34594 33.8121 5.45423 32.4595C5.55445 31.2076 6.02565 29.9205 7.01345 28.201C8.01457 26.4581 8.86761 25.4385 9.92377 24.7225C11.1241 23.9087 12.1474 23.8598 13.2363 24.5643C13.7646 24.9062 13.9473 25.1362 14.1661 25.7354C14.5549 26.8003 15.2224 27.5362 17.1762 29.0536L12.4999 36.4381Z" fill="#4C4C4C"/>
<path d="M26.9934 35.3732C28.1697 36.0651 29.1194 36.6242 29.8931 37.0829C32.9668 38.9051 33.2611 39.1419 33.9462 39.8212L30.1586 45.5932C29.4129 45.3675 28.1655 44.7492 26.2574 43.6542C25.7117 43.3411 25.112 42.9889 24.4545 42.5958C23.2912 41.9004 22.1283 41.2286 20.9999 40.5986C19.6574 39.849 18.3637 39.1586 17.1762 38.5576C16.0179 37.9714 14.9607 37.4705 14.0578 37.0829C13.4771 36.8336 12.962 36.6198 12.4999 36.4381L17.1762 29.0536C18.5883 30.1504 19.4939 30.8206 20.9999 31.7767C21.8758 32.3328 22.9547 32.9855 24.4545 33.8751C25.1908 34.3119 26.0285 34.8057 26.9934 35.3732Z" fill="#512404"/>
<path d="M38.1699 43.0084L40.4892 44.3084L40.4892 44.3084C42.168 45.2494 46.5727 47.7168 50.2776 49.7915C63.183 57.0183 79.3073 66.4371 85.539 70.3877L87.4776 71.6168L89.0157 72.9062C93.4313 76.6081 94.2622 77.3272 95.8795 78.841L96.3902 78.2953L95.8795 78.841C96.4608 79.3851 97.1024 79.9929 97.6727 80.538C97.2661 80.4186 96.8243 80.2856 96.365 80.1444C94.7135 79.6369 92.8547 79.0301 91.6081 78.5768C88.0132 77.2695 84.86 75.9842 82.74 74.9656C82.2817 74.7453 81.5978 74.4189 81.2196 74.2396C80.866 74.072 79.3191 73.2523 77.772 72.4104L77.4135 73.0692L77.772 72.4104C73.9525 70.3323 49.5032 56.2216 44.8264 53.3961L44.8264 53.396C42.9376 52.2551 39.8849 50.4279 38.041 49.3351L35.3402 47.7344M38.1699 43.0084L37.6587 49.9803L34.9549 48.3779L35.3402 47.7344M38.1699 43.0084L35.3402 47.7344M38.1699 43.0084L34.695 47.352L35.3402 47.7344M24.8393 41.9521C25.2382 42.1906 25.6153 42.4136 25.9715 42.6218L28.8841 37.3573C28.2393 36.9764 27.4894 36.5351 26.6132 36.0197C25.9351 35.6209 25.3196 35.2583 24.7576 34.9262L21.9972 40.2988C22.9321 40.8276 23.8856 41.3819 24.8393 41.9521L24.4545 42.5958L24.8393 41.9521ZM20.6866 39.5674L23.4651 34.1595C22.6009 33.6445 21.8854 33.2122 21.2674 32.8294L18.2131 38.2457C19.0041 38.6548 19.8337 39.0981 20.6866 39.5674ZM16.8735 37.5674L19.9993 32.0243C19.0253 31.3871 18.276 30.8439 17.3695 30.1502L13.614 36.0807C13.849 36.1785 14.0952 36.2827 14.3536 36.3937L14.0585 37.0812L14.3536 36.3937C15.1038 36.7157 15.9536 37.1123 16.8735 37.5674ZM12.1945 35.5185L16.1806 29.2239C14.5991 27.9552 13.8846 27.1513 13.4616 25.9926L14.1661 25.7354L13.4616 25.9926C13.3629 25.7224 13.2955 25.6024 13.2299 25.5197C13.1649 25.4378 13.0654 25.3471 12.8289 25.194L12.8289 25.194C12.3854 24.9071 12.0101 24.8064 11.6576 24.8232C11.2957 24.8405 10.8718 24.9859 10.3446 25.3433C9.4216 25.9691 8.63744 26.8795 7.66379 28.5745L7.66378 28.5745C6.70263 30.2477 6.28956 31.4235 6.20184 32.5193L5.45423 32.4595L6.20184 32.5193C6.11437 33.612 6.53539 34.3482 7.3148 34.74L7.31483 34.74C7.52931 34.8478 7.64638 34.8833 7.76199 34.8979C7.89399 34.9146 8.07577 34.9105 8.43292 34.8631L8.43294 34.8631C9.50878 34.7204 10.5495 34.9103 12.1945 35.5185ZM30.1747 38.123L27.2728 43.3681C28.4248 44.0139 29.2658 44.4386 29.8576 44.6848L32.9734 39.9366C32.5591 39.5843 31.9491 39.1822 30.1747 38.123ZM91.3518 79.2816C93.4112 80.0306 97.0884 81.182 98.815 81.6395L82.4152 75.6416C84.5668 76.6754 87.7458 77.9703 91.3518 79.2816ZM99.3365 81.3066C99.2123 81.4485 99.1719 81.6023 99.1675 81.7299C99.3411 81.7725 99.4813 81.8035 99.5816 81.8208C99.6059 81.825 99.6279 81.8284 99.6474 81.8309C99.9188 81.8665 99.9876 81.7878 99.8417 81.6088C99.8229 81.5858 99.7728 81.5333 99.6965 81.4563C99.6308 81.3902 99.5459 81.3058 99.4449 81.2066C99.4086 81.2333 99.3719 81.2661 99.3365 81.3066ZM99.1962 80.9638C98.4984 80.2852 97.3621 79.2013 96.392 78.2934C94.7579 76.7639 93.9124 76.0327 89.4976 72.3315L87.9213 71.01L99.1962 80.9638ZM8.53148 35.6063L8.53152 35.6066L8.53148 35.6063Z" stroke="black" stroke-width="1.5"/>
<path d="M34.8084 47.9359L34.8066 47.939L34.8062 47.9399C34.8013 47.949 34.7971 47.9571 34.7938 47.9634C34.7921 47.9668 34.7904 47.9702 34.7886 47.9737C34.7579 48.0327 34.7373 48.0784 34.7211 48.1166C34.7194 48.1193 34.7179 48.1217 34.7165 48.1239C34.6903 48.1667 34.6755 48.2048 34.6688 48.2231C34.662 48.2418 34.6561 48.2608 34.6513 48.2798L33.5425 50.7986L33.5001 50.8949L33.5001 51L33.5001 53L33.5001 53L33.5001 53.0041C33.5008 53.0847 33.4997 53.1716 33.4986 53.2639C33.4911 53.9002 33.4804 54.7949 34 55.647L34 56.191L33.381 56.5005C32.8825 56.5047 32.367 56.5344 31.8858 56.5621C31.6629 56.5749 31.4474 56.5873 31.2443 56.5966C30.5995 56.626 30.094 56.6225 29.746 56.5467C29.7448 56.5444 29.7436 56.5419 29.7423 56.5393C29.6962 56.4469 29.6412 56.297 29.5826 56.0856C29.4666 55.6674 29.3571 55.0865 29.2646 54.4284C29.0796 53.1126 28.9717 51.557 28.9998 50.5135C29.0163 49.902 29.1959 48.9777 29.4406 48.0138C29.6826 47.0606 29.9776 46.1094 30.2052 45.4622C30.2741 45.2661 30.523 44.8121 30.9008 44.1909C31.2664 43.5896 31.7224 42.8795 32.1696 42.1979C32.6163 41.5168 33.052 40.8672 33.3763 40.3877C33.5384 40.148 33.6725 39.9509 33.766 39.8139L33.8742 39.6555L33.9026 39.6141L33.9055 39.6099L34.896 38.3055C36.0809 36.7948 37.4343 36.1093 39.4816 35.0724C39.6447 34.9897 39.8122 34.9049 39.9844 34.8172C40.5205 34.5443 41.0971 34.3105 41.5755 34.1592C41.8153 34.0834 42.0208 34.0313 42.1784 34.0042C42.2337 33.9947 42.2762 33.9895 42.3075 33.9867C42.3238 34.0102 42.3429 34.0396 42.3648 34.0758C42.4592 34.2318 42.5752 34.4643 42.7052 34.7644C42.9636 35.3614 43.2567 36.1793 43.5229 37.0808C43.8908 38.3264 43.8831 38.5368 43.8244 38.7211L43.7704 38.8908L42.49 39.1733C41.4344 39.4061 40.6929 39.6339 40.2711 39.9155L40.224 39.9469L40.1852 39.988L38.1366 42.1567L38.1099 42.185L38.0879 42.217C37.9358 42.4386 37.1693 43.7718 36.4317 45.0659C35.6937 46.3607 34.9555 47.6682 34.8169 47.9209C34.8139 47.9261 34.8111 47.9311 34.8084 47.9359ZM42.2498 33.9141C42.2498 33.914 42.2521 33.9159 42.2566 33.9208C42.252 33.9168 42.2497 33.9143 42.2498 33.9141Z" fill="#4C4C4C" stroke="black"/>
<path d="M112.108 64.2034C109.862 64.3359 109.456 64.4508 108.844 65.1263C108.197 65.8404 108.082 66.6415 108.493 67.5651C108.658 67.9366 109.02 68.896 109.297 69.697C111.401 75.7742 109.858 82.5297 105.322 87.1017C103.917 88.5175 102.717 89.4104 101.068 90.266C98.3429 91.6804 96.2513 92.1919 93.1685 92.1979C90.0942 92.2038 87.9713 91.7031 85.215 90.322C84.1437 89.7851 83.9562 89.7327 83.2824 89.7813C82.3945 89.8454 81.7979 90.216 81.4406 90.9252C81.0354 91.7297 80.4868 96.0319 80.2858 99.98C80.1583 102.484 80.3502 102.671 81.9571 101.605C83.0914 100.852 84.2537 100.414 85.6573 100.209C86.955 100.02 87.7092 100.088 88.7903 100.492C91.0064 101.319 93.1292 105.102 94.5641 110.78C94.6636 111.174 94.8077 111.394 95.0323 111.496C95.5026 111.71 95.8405 111.348 96.0288 110.428C96.5857 107.709 98.9009 104.324 101.097 103.019C102.794 102.011 105.117 101.577 106.926 101.93C110.63 102.652 116.405 105.392 121.31 108.755C122.945 109.877 123.292 110.023 123.594 109.722C123.92 109.396 123.729 108.913 122.701 107.46C119.718 103.248 117.211 98.2435 116.266 94.6125C114.872 89.2618 115.915 85.878 119.64 83.665C121.277 82.6922 124.092 81.796 126.141 81.5954C127.297 81.4823 127.494 81.3685 127.443 80.8429C127.404 80.4416 127.306 80.3739 125.41 79.4284C123.068 78.2608 122.023 77.5748 120.8 76.4033C119.679 75.3291 119.178 74.557 118.901 73.4758C118.494 71.893 119.049 70.4498 120.686 68.8301C121.763 67.7651 122.973 66.9141 124.51 66.1417C125.437 65.6759 125.697 65.3769 125.538 64.9614C125.417 64.649 124.887 64.5008 123.288 64.3329C121.426 64.1372 114.577 64.0579 112.108 64.2034ZM122.158 65.6318C122.407 65.7238 122.332 65.8087 121.495 66.3794C118.499 68.4216 117.011 71.101 117.517 73.5425C117.971 75.7368 119.675 77.674 122.832 79.5871L124.296 80.4741L123.726 80.6207C122.592 80.9125 121.031 81.4426 120.203 81.8174C117.25 83.1534 115.09 85.6216 114.514 88.317C114.218 89.7044 114.337 92.4022 114.777 94.2572C115.575 97.6262 117.499 101.962 119.732 105.427C120.054 105.927 120.299 106.351 120.277 106.37C120.255 106.389 119.55 105.993 118.711 105.49C114.894 103.204 109.84 101.056 107.198 100.596C104.988 100.213 102.432 100.682 100.466 101.834C98.7717 102.826 96.8741 104.983 95.7899 107.148L95.2687 108.189L94.8389 106.949C94.6026 106.268 94.1185 105.098 93.7632 104.351C92.1988 101.062 90.544 99.4355 88.2054 98.8899C86.6958 98.5377 84.1127 98.9318 82.4585 99.7669C82.1142 99.9406 81.8008 100.083 81.7619 100.083C81.4612 100.083 82.2776 92.2555 82.6524 91.5438C82.9797 90.9224 83.3965 90.9337 84.7239 91.5997C86.0484 92.2642 88.0616 92.9595 89.586 93.2788C91.4228 93.6637 95.0797 93.6336 96.9501 93.2184C100.525 92.4245 103.535 90.7576 106.172 88.1097C109.746 84.5214 111.547 80.1953 111.545 75.2014C111.544 72.4364 111.125 70.3692 110.035 67.7521C109.509 66.4892 109.527 66.0495 110.117 65.7854C110.848 65.4574 121.323 65.3239 122.158 65.6318ZM122.004 88.7507C120.184 89.2338 119.372 91.1528 120.247 92.9041C120.856 94.1246 121.983 94.8276 123.355 94.8427C124.42 94.8545 125.209 94.4621 125.795 93.629C126.251 92.9809 126.409 91.8235 126.149 91.0373C125.603 89.385 123.657 88.3119 122.004 88.7507ZM123.887 90.3183C124.521 90.7489 124.834 91.2331 124.91 91.8981C124.965 92.393 124.921 92.5465 124.619 92.9052C124.194 93.409 123.609 93.5906 122.911 93.4361C122.255 93.2912 121.849 92.9874 121.506 92.3856C121.083 91.6426 121.141 91.0112 121.683 90.4706C122.075 90.0798 122.221 90.0204 122.791 90.0204C123.254 90.0204 123.578 90.1084 123.887 90.3183ZM79.5321 104.478C78.5484 105.798 77.7086 108.026 77.7134 109.304C77.7239 112.094 80.7332 113.024 81.9885 110.625C82.5836 109.488 82.2283 107.018 81.1861 105.048C80.7533 104.229 80.647 104.116 80.2772 104.08C79.9338 104.047 79.7997 104.119 79.5321 104.478ZM80.6457 107.342C80.9798 108.491 81.0093 109.558 80.7218 110.103C80.1737 111.142 79.0374 110.604 79.0374 109.305C79.0374 108.769 79.4854 107.255 79.8631 106.514C80.1783 105.896 80.2461 105.968 80.6457 107.342Z" fill="black"/>
<path d="M122.158 65.6318C122.407 65.7238 122.332 65.8087 121.495 66.3794C118.499 68.4216 117.011 71.101 117.517 73.5425C117.971 75.7368 119.675 77.674 122.832 79.5871L124.296 80.4741L123.726 80.6207C122.592 80.9125 121.031 81.4426 120.203 81.8174C117.25 83.1534 115.09 85.6216 114.514 88.317C114.218 89.7044 114.337 92.4022 114.777 94.2572C115.575 97.6262 117.499 101.962 119.732 105.427C120.054 105.927 120.299 106.351 120.277 106.37C120.255 106.389 119.55 105.993 118.711 105.49C114.894 103.204 109.84 101.056 107.198 100.596C104.988 100.213 102.432 100.682 100.466 101.834C98.7717 102.826 96.8741 104.983 95.7899 107.148L95.2687 108.189L94.8389 106.949C94.6026 106.268 94.1185 105.098 93.7632 104.351C92.1988 101.062 90.544 99.4355 88.2054 98.8899C86.6958 98.5377 84.1127 98.9318 82.4585 99.7669C82.1142 99.9406 81.8008 100.083 81.7619 100.083C81.4612 100.083 82.2776 92.2555 82.6524 91.5438C82.9797 90.9224 83.3965 90.9337 84.7239 91.5997C86.0484 92.2642 88.0616 92.9595 89.586 93.2788C91.4228 93.6637 95.0797 93.6336 96.9501 93.2184C100.525 92.4245 103.535 90.7576 106.172 88.1097C109.746 84.5214 111.547 80.1953 111.545 75.2014C111.544 72.4364 111.125 70.3692 110.035 67.7521C109.509 66.4892 109.527 66.0495 110.117 65.7854C110.848 65.4574 121.323 65.3239 122.158 65.6318Z" fill="#ADADAD"/>
<path d="M80.6457 107.342C80.9798 108.491 81.0093 109.558 80.7218 110.103C80.1737 111.142 79.0374 110.604 79.0374 109.305C79.0374 108.769 79.4854 107.255 79.8631 106.514C80.1783 105.896 80.2461 105.968 80.6457 107.342Z" fill="#ADADAD"/>
<path d="M123.887 90.3183C124.521 90.7489 124.834 91.2331 124.91 91.8981C124.965 92.393 124.921 92.5465 124.619 92.9052C124.194 93.409 123.609 93.5906 122.911 93.4361C122.255 93.2912 121.849 92.9874 121.506 92.3856C121.083 91.6426 121.141 91.0112 121.683 90.4706C122.075 90.0798 122.221 90.0204 122.791 90.0204C123.254 90.0204 123.578 90.1084 123.887 90.3183Z" fill="#ADADAD"/>
</svg>
