<svg width="128" height="128" viewBox="0 0 128 128" fill="none" xmlns="http://www.w3.org/2000/svg">
<path d="M80.6933 55.1977L81.8209 54.228C76.196 46.8125 71.4578 41.7503 66.5273 38.1017C61.5863 34.4453 56.4883 32.2351 50.1811 30.4726L49.6977 31.8875C57.6513 35.4049 71.768 45.7811 80.6933 55.1977ZM91.1426 47.5991L92.2703 46.6294C85.5086 37.7154 79.8197 31.6394 73.9061 27.2633C67.982 22.8794 61.8683 20.2278 54.2945 18.1113L53.8111 19.5262C63.4012 23.7674 80.3971 36.2622 91.1426 47.5991ZM103.341 40.3343L104.469 39.3645C95.9141 28.0869 88.7257 20.4122 81.2614 14.8885C73.7866 9.3571 66.071 6.00928 56.4995 3.33459L56.016 4.74949C68.1873 10.1321 89.7246 25.9685 103.341 40.3343ZM70.9634 61.5168L72.091 60.5471C71.8252 60.1967 71.5662 59.8551 71.3138 59.522C68.9102 56.3517 67.0965 53.9595 65.5839 52.1234C63.9111 50.0929 62.5729 48.7003 61.1667 47.6616C58.7773 45.8969 56.2364 45.2033 51.7377 43.9754C50.9517 43.7608 50.106 43.53 49.1909 43.2743L48.7074 44.6892C56.6594 48.2059 62.0365 52.0985 70.9634 61.5168Z" fill="#ADADAD" stroke="black" stroke-width="1.5"/>
<path fill-rule="evenodd" clip-rule="evenodd" d="M49.7333 89.541L45.6523 91.8355L41.5652 84.4888L45.0672 82.4072C47.0565 81.2247 52.2747 78.1209 56.6632 75.5098C71.953 66.4127 91.4754 55.2727 99.3596 51.1461L101.859 49.8383L104.183 48.9913C110.692 46.6189 111.962 46.1779 114.538 45.3957C116.848 44.6941 119.805 43.8386 120.065 43.7965C120.339 43.7522 120.379 43.8711 120.179 44.1324C119.584 44.909 115.012 49.1601 112.536 51.2393C109.002 54.2064 105.742 56.7387 103.371 58.3578C102.868 58.702 102.118 59.217 101.705 59.5021C101.292 59.7873 99.4832 60.9205 97.6848 62.0202C93.2097 64.7572 63.8 81.7429 58.0361 84.9197C55.7141 86.1996 51.9777 88.279 49.7333 89.541Z" fill="#ADADAD"/>
<path d="M28.1071 91.8655C30.316 90.6138 31.8679 89.7359 33 89.1089C35.5072 87.7202 35.9551 87.5618 36.9204 87.2988L40.6543 94.7142C39.7755 95.5385 37.7213 96.8363 34.1027 98.8527C32.1549 99.9381 30.2538 101.049 28.5 102.123C26.3972 103.411 24.5061 104.645 23 105.717C22.6858 105.941 22.3885 106.157 22.1094 106.366C21.5007 106.821 20.9682 107.229 20.5012 107.601L15.6222 98.29C18.165 97.2541 19.4868 96.6602 22.5182 95.0001C23.9194 94.2327 25.6859 93.2375 28.1071 91.8655Z" fill="#512404"/>
<path d="M10.3563 99.4297C11.6992 99.6651 12.867 99.4124 15.6222 98.29L20.5012 107.601C18.5168 109.181 17.7124 110.112 17.2489 111.234C16.9042 112.068 16.6869 112.354 16.1101 112.733C14.8844 113.539 13.4646 113.472 12.1209 112.546C10.8773 111.689 9.82015 110.424 8.62324 108.362C7.41007 106.271 6.86113 104.77 6.75044 103.239C6.62464 101.5 7.1891 100.404 8.57758 99.6939C9.25128 99.3492 9.6007 99.2973 10.3563 99.4297Z" fill="#4C4C4C"/>
<path d="M15.2723 99.2381C12.9258 100.16 11.6726 100.422 10.2268 100.168L10.3563 99.4297L10.2268 100.168C9.87975 100.108 9.69561 100.103 9.54641 100.125C9.39812 100.147 9.22673 100.204 8.91922 100.362L8.91921 100.362C8.33201 100.662 7.97486 101.013 7.76282 101.424C7.54647 101.844 7.44195 102.403 7.49849 103.185C7.59758 104.555 8.08645 105.942 9.27193 107.985L9.27194 107.985C10.442 110.002 11.4319 111.16 12.5465 111.929L12.1355 112.525L12.5465 111.929C13.6754 112.707 14.7627 112.722 15.6982 112.107L15.6982 112.107C15.9474 111.943 16.0702 111.831 16.1692 111.701C16.2782 111.557 16.3892 111.351 16.5558 110.947L16.5558 110.947C17.0497 109.752 17.8729 108.787 19.5516 107.404L15.2723 99.2381ZM16.6687 98.6713L20.748 106.456C21.0325 106.237 21.3361 106.007 21.6605 105.765L22.1083 106.364L21.6605 105.765C21.8438 105.628 22.0347 105.488 22.2325 105.345L22.0098 100.392L21.8227 96.2299C19.7487 97.3395 18.4822 97.9208 16.6687 98.6713ZM23.5083 100.325L23.6881 104.325C24.8864 103.508 26.2558 102.625 27.7337 101.714L27.4048 93.125C25.7309 94.0719 24.3991 94.8204 23.2884 95.4326L23.5083 100.325ZM28.874 92.293L29.2007 100.821C30.5142 100.033 31.8937 99.2315 33.3014 98.4415L32.3814 90.3125C31.4581 90.83 30.3138 91.4773 28.874 92.293ZM36.5317 88.1946C35.9808 88.3778 35.3639 88.6659 33.8017 89.5232L34.7208 97.6455C37.2552 96.2107 38.8465 95.2104 39.7193 94.5251L36.5317 88.1946ZM45.9415 90.8125L49.3657 88.8873C51.6121 87.6242 55.3503 85.5438 57.674 84.2629L57.674 84.2629C63.4305 81.0902 92.8301 64.1103 97.2935 61.3804L97.6848 62.0202L97.2935 61.3804C99.0991 60.2762 100.887 59.1555 101.279 58.8851C101.693 58.5991 102.444 58.0833 102.948 57.7385C105.29 56.1391 108.529 53.6243 112.054 50.6649C113.278 49.6368 115.03 48.0638 116.553 46.6481C117.155 46.0884 117.718 45.5554 118.197 45.0927C117.154 45.3949 115.878 45.7724 114.755 46.1133L114.538 45.3957L114.755 46.1134C112.202 46.8888 110.95 47.3232 104.439 49.6959L102.162 50.5259L99.7074 51.8106C91.8419 55.9274 72.3339 67.0588 57.0467 76.1544C52.6582 78.7655 47.4398 81.8693 45.4504 83.0519L45.4504 83.0519L42.5749 84.7611L45.9415 90.8125ZM17.2486 111.233L17.2489 111.234L17.2486 111.233Z" stroke="black" stroke-width="1.5"/>
<path d="M44.6222 90.6073L44.6239 90.6105L44.6245 90.6113C44.6297 90.6203 44.6344 90.628 44.6382 90.6341C44.6401 90.6373 44.6422 90.6405 44.6442 90.6438C44.6788 90.7007 44.7071 90.742 44.7314 90.7756C44.7329 90.7785 44.7342 90.7811 44.7354 90.7834C44.7583 90.828 44.7832 90.8604 44.7954 90.8756C44.8079 90.8911 44.8211 90.906 44.8348 90.92L46.4143 93.1737L46.4746 93.2598L46.5646 93.3143L48.275 94.3509L48.275 94.3509L48.2785 94.353C48.3477 94.3942 48.4215 94.4401 48.4999 94.4889C49.0402 94.8252 49.7998 95.298 50.7978 95.2952L51.263 95.5771L51.2069 96.267C50.9522 96.6954 50.7104 97.1517 50.4847 97.5776C50.3801 97.7748 50.279 97.9656 50.1817 98.1441C49.8727 98.7107 49.6076 99.1412 49.3625 99.3996C49.3599 99.3994 49.3571 99.3992 49.3543 99.3989C49.2513 99.3905 49.0946 99.3598 48.8834 99.3003C48.4656 99.1828 47.9122 98.9754 47.3014 98.7134C46.0802 98.1896 44.6939 97.4757 43.8161 96.9108C43.3017 96.5798 42.6042 95.9472 41.9067 95.2383C41.217 94.5374 40.5564 93.7921 40.1208 93.262C39.9889 93.1014 39.7297 92.6533 39.3941 92.0083C39.0694 91.3839 38.6985 90.6259 38.3473 89.8902C37.9964 89.1552 37.6667 88.4459 37.4246 87.9201C37.3036 87.6572 37.2046 87.4404 37.1358 87.2894L37.0565 87.1147L37.0358 87.069L37.0337 87.0643L36.4315 85.5413C35.7537 83.7449 35.8689 82.2322 36.0431 79.9439C36.057 79.7616 36.0712 79.5743 36.0855 79.3816C36.1299 78.7817 36.2288 78.1674 36.3474 77.6799C36.4068 77.4355 36.4688 77.2327 36.5273 77.0839C36.5478 77.0317 36.5654 76.9927 36.5793 76.9644C36.6078 76.9627 36.6428 76.9616 36.6851 76.9616C36.8675 76.9618 37.1264 76.983 37.4505 77.0274C38.095 77.1158 38.9464 77.2891 39.8553 77.5286C41.1113 77.8596 41.2872 77.9752 41.4143 78.1209L41.5315 78.2551L41.1094 79.4965C40.7615 80.5199 40.572 81.2721 40.5942 81.7788L40.5967 81.8353L40.6117 81.8899L41.4047 84.7658L41.415 84.8033L41.431 84.8387C41.5416 85.0836 42.2846 86.4301 43.0091 87.7316C43.7339 89.0338 44.4695 90.3428 44.6138 90.5923C44.6166 90.5976 44.6194 90.6026 44.6222 90.6073ZM36.4873 76.9762C36.4871 76.9761 36.49 76.9752 36.4965 76.9738C36.4907 76.9757 36.4874 76.9764 36.4873 76.9762Z" fill="#4C4C4C" stroke="black"/>
</svg>
