<svg width="531" height="444" viewBox="0 0 531 444" fill="none" xmlns="http://www.w3.org/2000/svg">
<g clip-path="url(#clip0_296_32)">
<path d="M429.929 44.0993C429.996 38.0267 431.331 27.8115 438.209 6.1893C424.386 23.7254 415.237 29.3439 410.83 32.8626C413.768 35.8136 421.314 32.9193 411.565 45.5181L404.009 49.9199C408.853 52.5522 413.81 55.0866 418.83 57.5032C419.086 55.2466 419.555 50.6098 419.379 50.1149C425.655 35.4731 425.923 42.9643 429.929 44.0993Z" fill="#717171"/>
<path d="M398.682 184.615C391.738 196.419 390.349 198.78 388.179 213.393C399.581 215.864 407.279 224.63 421.213 239.184C414.27 250.987 412.88 253.349 410.71 267.962C430.981 260.82 487.356 219.622 500.69 196.958C543.747 123.772 519.264 99.8341 519.046 83.8162C495.722 86.5931 455.609 75.2099 418.83 57.5032C413.81 55.0866 408.853 52.5522 404.009 49.9199C375.978 34.6889 351.739 16.1811 341.203 -1.74391C357.96 46.2505 335.693 45.8618 336.518 71.7715C311.082 82.2309 319.851 100.102 274.535 111.577C294.025 116.687 331.298 140.734 338.996 149.5L362.871 163.546C374.272 166.017 384.748 170.061 398.682 184.615Z" fill="#919191"/>
<path d="M244.812 364.219L220.937 350.173C210.321 374.126 208.464 375.995 197.589 371.799C195.886 371.142 193.365 370.02 191.467 369.399C190.355 379.302 184.437 418.124 180.82 445.022C203.293 429.217 234.352 405.186 241.75 398.981C240.285 397.624 238.817 396.4 237.416 395.23C228.465 387.762 230.995 387.703 244.812 364.219Z" fill="#8A8A8A"/>
<path d="M290.647 286.31C294.813 279.227 301.801 270.627 317.081 279.616C301.801 270.627 305.925 260.341 310.092 253.258L286.217 239.212C282.05 246.295 275.062 254.896 259.782 245.906C275.062 254.896 270.939 265.182 266.772 272.264L290.647 286.31Z" fill="#8A8A8A"/>
<path fill-rule="evenodd" clip-rule="evenodd" d="M362.871 163.546L310.092 253.258L286.217 239.212L338.996 149.5L362.871 163.546Z" fill="#644833"/>
<path d="M266.772 272.264L220.937 350.173L244.812 364.219L284.865 296.138L290.647 286.31L266.772 272.264Z" fill="#5F3313"/>
<path d="M266.773 272.265C273.655 278.777 286.908 292.668 284.866 296.138M250.185 300.462C257.066 306.974 270.319 320.865 268.278 324.336M258.262 286.732C265.144 293.244 278.397 307.135 276.355 310.606M232.053 331.281C238.935 337.792 252.188 351.684 250.146 355.154M241.599 315.056C248.481 321.568 261.734 335.459 259.692 338.929" stroke="#7C7C7C" stroke-width="1.5"/>
<path d="M99.0695 42.3458C99.0029 36.2733 97.6677 26.0581 90.7903 4.43588C104.613 21.972 113.762 27.5905 118.169 31.1092C115.231 34.0602 107.685 31.1659 117.434 43.7647L124.99 48.1665C120.146 50.7988 115.189 53.3332 110.169 55.7498C109.913 53.4932 109.444 48.8564 109.621 48.3615C103.344 33.7197 103.076 41.2109 99.0695 42.3458Z" fill="#717171"/>
<path d="M130.317 182.861C137.261 194.666 138.65 197.026 140.82 211.64C129.418 214.11 121.72 222.877 107.786 237.43C114.729 249.233 116.119 251.596 118.289 266.209C98.018 259.067 41.643 217.869 28.3093 195.205C-14.7475 122.018 9.73519 98.0807 9.95276 82.0628C33.2767 84.8397 73.3898 73.4565 110.169 55.7498C115.189 53.3332 120.146 50.7988 124.99 48.1665C153.021 32.9354 177.26 14.4276 187.796 -3.49735C171.039 44.497 193.306 44.1084 192.481 70.0181C217.917 80.4775 209.148 98.3481 254.464 109.823C234.974 114.934 197.701 138.981 190.003 147.747L166.128 161.793C154.727 164.263 144.251 168.308 130.317 182.861Z" fill="#919191"/>
<path d="M284.187 362.465L308.062 348.419C318.678 372.373 320.535 374.242 331.41 370.046C333.113 369.389 335.634 368.267 337.532 367.645C338.644 377.548 344.562 416.37 348.179 443.269C325.706 427.464 294.647 403.433 287.249 397.227C288.714 395.87 290.182 394.646 291.583 393.477C300.534 386.008 298.004 385.95 284.187 362.465Z" fill="#8A8A8A"/>
<path d="M238.352 284.557C234.186 277.474 227.198 268.873 211.918 277.863C227.198 268.873 223.074 258.587 218.907 251.505L242.782 237.459C246.949 244.542 253.937 253.142 269.217 244.153C253.937 253.142 258.06 263.428 262.227 270.511L238.352 284.557Z" fill="#8A8A8A"/>
<path fill-rule="evenodd" clip-rule="evenodd" d="M166.128 161.793L218.907 251.505L242.782 237.459L190.003 147.747L166.128 161.793Z" fill="#644833"/>
<path d="M262.227 270.511L308.062 348.419L284.187 362.465L244.134 294.384L238.352 284.557L262.227 270.511Z" fill="#5F3313"/>
<path d="M261.24 270.512C254.359 277.024 241.106 290.915 243.147 294.386M277.829 298.709C270.947 305.221 257.694 319.112 259.736 322.583M269.751 284.979C262.87 291.491 249.617 305.382 251.658 308.853M295.96 329.528C289.079 336.04 275.825 349.931 277.867 353.401M286.415 313.303C279.533 319.815 266.28 333.706 268.322 337.176" stroke="#7C7C7C" stroke-width="1.5"/>
</g>
<defs>
<clipPath id="clip0_296_32">
<rect width="531" height="444" fill="white"/>
</clipPath>
</defs>
</svg>
