<svg width="211" height="260" viewBox="0 0 211 260" fill="none" xmlns="http://www.w3.org/2000/svg">
<path d="M151.691 35.0231C151.719 32.4591 152.285 28.1459 155.198 19.0162C149.343 26.4206 145.468 28.7929 143.601 30.2786C144.845 31.5246 148.042 30.3026 143.912 35.6222L140.711 37.4808C142.763 38.5922 144.863 39.6624 146.989 40.6828C147.098 39.73 147.296 37.7721 147.222 37.5632C149.881 31.3809 149.994 34.5439 151.691 35.0231Z" fill="#717171"/>
<path d="M138.455 94.354C135.513 99.3382 134.925 100.335 134.006 106.505C138.836 107.548 142.096 111.25 147.999 117.395C145.058 122.379 144.469 123.376 143.55 129.546C152.137 126.531 176.017 109.135 181.665 99.5657C199.904 68.6637 189.533 58.5565 189.441 51.7931C179.561 52.9656 162.569 48.1592 146.989 40.6828C144.863 39.6624 142.763 38.5922 140.711 37.4808C128.837 31.0497 118.57 23.2351 114.107 15.6665C121.205 35.9315 111.772 35.7674 112.122 46.7074C101.347 51.1237 105.062 58.6694 85.8658 63.5147C94.1218 65.6724 109.911 75.826 113.172 79.5274L123.285 85.4581C128.115 86.5012 132.552 88.2089 138.455 94.354Z" fill="#919191"/>
<path d="M58.8768 193.509L48.7634 187.578C44.2665 197.692 43.48 198.481 38.8731 196.71C38.1516 196.432 37.0839 195.958 36.2799 195.696C35.8087 199.877 33.3018 216.269 31.7697 227.627C41.2892 220.953 54.4461 210.807 57.5797 208.187C56.959 207.614 56.3375 207.097 55.7438 206.603C51.9524 203.45 53.0242 203.425 58.8768 193.509Z" fill="#696969"/>
<path d="M92.6908 137.293C94.4558 134.303 97.416 130.671 103.888 134.467C97.416 130.671 99.1626 126.328 100.928 123.338L90.8144 117.407C89.0494 120.398 86.0892 124.029 79.6167 120.233C86.0892 124.029 84.3426 128.372 82.5774 131.363L92.6908 137.293Z" fill="#696969"/>
<path fill-rule="evenodd" clip-rule="evenodd" d="M123.285 85.4581L100.928 123.338L90.8144 117.407L113.172 79.5274L123.285 85.4581Z" fill="#5C4331"/>
<path d="M82.5774 131.363L48.7634 187.578L58.8768 193.509L90.2417 141.443L92.6908 137.293L82.5774 131.363Z" fill="#5F3313"/>
<path d="M82.5774 131.363C85.4925 134.112 91.1065 139.978 90.2416 141.443M75.5503 143.269C78.4654 146.018 84.0794 151.884 83.2145 153.349M78.972 137.471C81.8871 140.221 87.5011 146.086 86.6362 147.551M67.87 156.281C70.7851 159.031 76.399 164.896 75.5342 166.362M71.9134 149.43C74.8285 152.18 80.4425 158.045 79.5776 159.511" stroke="#7C7C7C" stroke-width="0.35"/>
<path d="M60.4907 168.16C63.4058 170.909 69.0198 176.775 68.1549 178.24M63.9124 162.362C66.8275 165.112 72.4415 170.977 71.5766 172.443M52.8104 181.172C55.7255 183.922 61.3395 189.787 60.4746 191.253M56.8539 174.322C59.7689 177.071 65.3829 182.937 64.5181 184.402" stroke="#7C7C7C" stroke-width="0.35"/>
</svg>
