<svg width="128" height="128" viewBox="0 0 128 128" fill="none" xmlns="http://www.w3.org/2000/svg">
<path fill-rule="evenodd" clip-rule="evenodd" d="M119 63.5C119 94.1518 94.1518 119 63.5 119C32.8482 119 8 94.1518 8 63.5C8 32.8482 32.8482 8 63.5 8C94.1518 8 119 32.8482 119 63.5ZM59.7939 18.8197L55.6806 14.696C45.4823 16.4421 36.3622 21.3464 29.3629 28.3663L30.404 34.1875L24.4531 34.1132C18.5658 42.1877 15.0918 52.1342 15.0918 62.8921C15.0918 63.4541 15.1013 64.0138 15.1201 64.5711L20.0199 67.618L15.9228 71.9165C17.7663 81.7973 22.5811 90.6328 29.4048 97.4602L35.2866 96.4178L35.2126 102.431C42.8824 108.023 52.2412 111.438 62.3801 111.766L65.8652 106.89L70.0775 111.417C80.0429 110.179 89.0782 105.944 96.2524 99.6405L95.5305 93.8528L101.497 94.2709C108.074 86.4172 112.231 76.4665 112.819 65.5674L108.388 62.05L112.655 58.0652C111.456 45.8207 105.74 34.9011 97.1953 26.9941L91.5804 28.4379L91.0643 22.1776C83.2711 16.9286 74.094 13.9927 63.9913 13.9927C63.6845 13.9927 63.3784 13.9955 63.073 14.0011L59.7939 18.8197Z" fill="#4C4C4C"/>
<path d="M55.6806 14.696L59.7939 18.8197L63.073 14.0011C63.3784 13.9955 63.6845 13.9927 63.9913 13.9927C74.094 13.9927 83.2711 16.9286 91.0643 22.1776L91.5804 28.4379L97.1953 26.9941C105.74 34.9011 111.456 45.8207 112.655 58.0652L108.388 62.05L112.819 65.5674C112.231 76.4665 108.074 86.4172 101.497 94.2709L95.5305 93.8528L96.2524 99.6405C89.0782 105.944 80.0429 110.179 70.0775 111.417L65.8652 106.89L62.3801 111.766C52.2412 111.438 42.8824 108.023 35.2126 102.431L35.2866 96.4178L29.4048 97.4602C22.5811 90.6328 17.7663 81.7973 15.9228 71.9165L20.0199 67.618L15.1201 64.5711C15.1013 64.0138 15.0918 63.4541 15.0918 62.8921C15.0918 52.1342 18.5658 42.1877 24.4531 34.1132L30.404 34.1875L29.3629 28.3663C36.3622 21.3464 45.4823 16.4421 55.6806 14.696Z" fill="#6A350F"/>
<path fill-rule="evenodd" clip-rule="evenodd" d="M119 63.5C119 94.1518 94.1518 119 63.5 119C32.8482 119 8 94.1518 8 63.5C8 32.8482 32.8482 8 63.5 8C94.1518 8 119 32.8482 119 63.5ZM59.7939 18.8197L55.6806 14.696C45.4823 16.4421 36.3622 21.3464 29.3629 28.3663L30.404 34.1875L24.4531 34.1132C18.5658 42.1877 15.0918 52.1342 15.0918 62.8921C15.0918 63.4541 15.1013 64.0138 15.1201 64.5711L20.0199 67.618L15.9228 71.9165C17.7663 81.7973 22.5811 90.6328 29.4048 97.4602L35.2866 96.4178L35.2126 102.431C42.8824 108.023 52.2412 111.438 62.3801 111.766L65.8652 106.89L70.0775 111.417C80.0429 110.179 89.0782 105.944 96.2524 99.6405L95.5305 93.8528L101.497 94.2709C108.074 86.4172 112.231 76.4665 112.819 65.5674L108.388 62.05L112.655 58.0652C111.456 45.8207 105.74 34.9011 97.1953 26.9941L91.5804 28.4379L91.0643 22.1776C83.2711 16.9286 74.094 13.9927 63.9913 13.9927C63.6845 13.9927 63.3784 13.9955 63.073 14.0011L59.7939 18.8197Z" stroke="black" stroke-width="1.5"/>
<path d="M55.6806 14.696L59.7939 18.8197L63.073 14.0011C63.3784 13.9955 63.6845 13.9927 63.9913 13.9927C74.094 13.9927 83.2711 16.9286 91.0643 22.1776L91.5804 28.4379L97.1953 26.9941C105.74 34.9011 111.456 45.8207 112.655 58.0652L108.388 62.05L112.819 65.5674C112.231 76.4665 108.074 86.4172 101.497 94.2709L95.5305 93.8528L96.2524 99.6405C89.0782 105.944 80.0429 110.179 70.0775 111.417L65.8652 106.89L62.3801 111.766C52.2412 111.438 42.8824 108.023 35.2126 102.431L35.2866 96.4178L29.4048 97.4602C22.5811 90.6328 17.7663 81.7973 15.9228 71.9165L20.0199 67.618L15.1201 64.5711C15.1013 64.0138 15.0918 63.4541 15.0918 62.8921C15.0918 52.1342 18.5658 42.1877 24.4531 34.1132L30.404 34.1875L29.3629 28.3663C36.3622 21.3464 45.4823 16.4421 55.6806 14.696Z" stroke="black" stroke-width="1.5"/>
<mask id="path-2-inside-1_393_220" fill="white">
<path d="M64.1066 87.5766C77.0038 87.5766 87.4591 76.9856 87.4591 63.9209C87.4591 50.8562 77.0038 40.2651 64.1066 40.2651C51.2094 40.2651 40.7542 50.8562 40.7542 63.9209C40.7542 76.9856 51.2094 87.5766 64.1066 87.5766Z"/>
</mask>
<path d="M64.1066 87.5766C77.0038 87.5766 87.4591 76.9856 87.4591 63.9209C87.4591 50.8562 77.0038 40.2651 64.1066 40.2651C51.2094 40.2651 40.7542 50.8562 40.7542 63.9209C40.7542 76.9856 51.2094 87.5766 64.1066 87.5766Z" fill="#ADADAD" stroke="black" stroke-width="3" mask="url(#path-2-inside-1_393_220)"/>
<path d="M102.623 98.1913C102.623 99.3638 101.672 100.314 100.5 100.314C99.3276 100.314 98.3771 99.3638 98.3771 98.1913C98.3771 97.0188 99.3276 96.0684 100.5 96.0684C101.672 96.0684 102.623 97.0188 102.623 98.1913Z" fill="url(#paint0_radial_393_220)"/>
<path d="M102.623 98.1913C102.623 99.3638 101.672 100.314 100.5 100.314C99.3276 100.314 98.3771 99.3638 98.3771 98.1913C98.3771 97.0188 99.3276 96.0684 100.5 96.0684C101.672 96.0684 102.623 97.0188 102.623 98.1913Z" fill="url(#paint1_radial_393_220)"/>
<path d="M102.623 98.1913C102.623 99.3638 101.672 100.314 100.5 100.314C99.3276 100.314 98.3771 99.3638 98.3771 98.1913C98.3771 97.0188 99.3276 96.0684 100.5 96.0684C101.672 96.0684 102.623 97.0188 102.623 98.1913Z" stroke="black" stroke-width="1.5"/>
<path d="M102.623 98.1913C102.623 99.3638 101.672 100.314 100.5 100.314C99.3276 100.314 98.3771 99.3638 98.3771 98.1913C98.3771 97.0188 99.3276 96.0684 100.5 96.0684C101.672 96.0684 102.623 97.0188 102.623 98.1913Z" stroke="black" stroke-width="1.5"/>
<path d="M116.574 61.7979C116.574 62.9704 115.623 63.9208 114.451 63.9208C113.278 63.9208 112.328 62.9704 112.328 61.7979C112.328 60.6254 113.278 59.6749 114.451 59.6749C115.623 59.6749 116.574 60.6254 116.574 61.7979Z" fill="url(#paint2_radial_393_220)"/>
<path d="M116.574 61.7979C116.574 62.9704 115.623 63.9208 114.451 63.9208C113.278 63.9208 112.328 62.9704 112.328 61.7979C112.328 60.6254 113.278 59.6749 114.451 59.6749C115.623 59.6749 116.574 60.6254 116.574 61.7979Z" fill="url(#paint3_radial_393_220)"/>
<path d="M116.574 61.7979C116.574 62.9704 115.623 63.9208 114.451 63.9208C113.278 63.9208 112.328 62.9704 112.328 61.7979C112.328 60.6254 113.278 59.6749 114.451 59.6749C115.623 59.6749 116.574 60.6254 116.574 61.7979Z" stroke="black" stroke-width="1.5"/>
<path d="M116.574 61.7979C116.574 62.9704 115.623 63.9208 114.451 63.9208C113.278 63.9208 112.328 62.9704 112.328 61.7979C112.328 60.6254 113.278 59.6749 114.451 59.6749C115.623 59.6749 116.574 60.6254 116.574 61.7979Z" stroke="black" stroke-width="1.5"/>
<path d="M97.164 23.5847C97.164 24.7572 96.2135 25.7077 95.041 25.7077C93.8686 25.7077 92.9181 24.7572 92.9181 23.5847C92.9181 22.4123 93.8686 21.4618 95.041 21.4618C96.2135 21.4618 97.164 22.4123 97.164 23.5847Z" fill="url(#paint4_radial_393_220)"/>
<path d="M97.164 23.5847C97.164 24.7572 96.2135 25.7077 95.041 25.7077C93.8686 25.7077 92.9181 24.7572 92.9181 23.5847C92.9181 22.4123 93.8686 21.4618 95.041 21.4618C96.2135 21.4618 97.164 22.4123 97.164 23.5847Z" fill="url(#paint5_radial_393_220)"/>
<path d="M97.164 23.5847C97.164 24.7572 96.2135 25.7077 95.041 25.7077C93.8686 25.7077 92.9181 24.7572 92.9181 23.5847C92.9181 22.4123 93.8686 21.4618 95.041 21.4618C96.2135 21.4618 97.164 22.4123 97.164 23.5847Z" stroke="black" stroke-width="1.5"/>
<path d="M97.164 23.5847C97.164 24.7572 96.2135 25.7077 95.041 25.7077C93.8686 25.7077 92.9181 24.7572 92.9181 23.5847C92.9181 22.4123 93.8686 21.4618 95.041 21.4618C96.2135 21.4618 97.164 22.4123 97.164 23.5847Z" stroke="black" stroke-width="1.5"/>
<path d="M61.3771 12.6668C61.3771 13.8392 60.4266 14.7897 59.2542 14.7897C58.0817 14.7897 57.1312 13.8392 57.1312 12.6668C57.1312 11.4943 58.0817 10.5438 59.2542 10.5438C60.4266 10.5438 61.3771 11.4943 61.3771 12.6668Z" fill="url(#paint6_radial_393_220)"/>
<path d="M61.3771 12.6668C61.3771 13.8392 60.4266 14.7897 59.2542 14.7897C58.0817 14.7897 57.1312 13.8392 57.1312 12.6668C57.1312 11.4943 58.0817 10.5438 59.2542 10.5438C60.4266 10.5438 61.3771 11.4943 61.3771 12.6668Z" fill="url(#paint7_radial_393_220)"/>
<path d="M61.3771 12.6668C61.3771 13.8392 60.4266 14.7897 59.2542 14.7897C58.0817 14.7897 57.1312 13.8392 57.1312 12.6668C57.1312 11.4943 58.0817 10.5438 59.2542 10.5438C60.4266 10.5438 61.3771 11.4943 61.3771 12.6668Z" stroke="black" stroke-width="1.5"/>
<path d="M61.3771 12.6668C61.3771 13.8392 60.4266 14.7897 59.2542 14.7897C58.0817 14.7897 57.1312 13.8392 57.1312 12.6668C57.1312 11.4943 58.0817 10.5438 59.2542 10.5438C60.4266 10.5438 61.3771 11.4943 61.3771 12.6668Z" stroke="black" stroke-width="1.5"/>
<path d="M28.0164 30.257C28.0164 31.4295 27.0659 32.3799 25.8935 32.3799C24.721 32.3799 23.7705 31.4295 23.7705 30.257C23.7705 29.0845 24.721 28.134 25.8935 28.134C27.0659 28.134 28.0164 29.0845 28.0164 30.257Z" fill="url(#paint8_radial_393_220)"/>
<path d="M28.0164 30.257C28.0164 31.4295 27.0659 32.3799 25.8935 32.3799C24.721 32.3799 23.7705 31.4295 23.7705 30.257C23.7705 29.0845 24.721 28.134 25.8935 28.134C27.0659 28.134 28.0164 29.0845 28.0164 30.257Z" fill="url(#paint9_radial_393_220)"/>
<path d="M28.0164 30.257C28.0164 31.4295 27.0659 32.3799 25.8935 32.3799C24.721 32.3799 23.7705 31.4295 23.7705 30.257C23.7705 29.0845 24.721 28.134 25.8935 28.134C27.0659 28.134 28.0164 29.0845 28.0164 30.257Z" stroke="black" stroke-width="1.5"/>
<path d="M28.0164 30.257C28.0164 31.4295 27.0659 32.3799 25.8935 32.3799C24.721 32.3799 23.7705 31.4295 23.7705 30.257C23.7705 29.0845 24.721 28.134 25.8935 28.134C27.0659 28.134 28.0164 29.0845 28.0164 30.257Z" stroke="black" stroke-width="1.5"/>
<path d="M15.2787 68.47C15.2787 69.6425 14.3283 70.5929 13.1558 70.5929C11.9833 70.5929 11.0328 69.6425 11.0328 68.47C11.0328 67.2975 11.9833 66.347 13.1558 66.347C14.3283 66.347 15.2787 67.2975 15.2787 68.47Z" fill="url(#paint10_radial_393_220)"/>
<path d="M15.2787 68.47C15.2787 69.6425 14.3283 70.5929 13.1558 70.5929C11.9833 70.5929 11.0328 69.6425 11.0328 68.47C11.0328 67.2975 11.9833 66.347 13.1558 66.347C14.3283 66.347 15.2787 67.2975 15.2787 68.47Z" fill="url(#paint11_radial_393_220)"/>
<path d="M15.2787 68.47C15.2787 69.6425 14.3283 70.5929 13.1558 70.5929C11.9833 70.5929 11.0328 69.6425 11.0328 68.47C11.0328 67.2975 11.9833 66.347 13.1558 66.347C14.3283 66.347 15.2787 67.2975 15.2787 68.47Z" stroke="black" stroke-width="1.5"/>
<path d="M15.2787 68.47C15.2787 69.6425 14.3283 70.5929 13.1558 70.5929C11.9833 70.5929 11.0328 69.6425 11.0328 68.47C11.0328 67.2975 11.9833 66.347 13.1558 66.347C14.3283 66.347 15.2787 67.2975 15.2787 68.47Z" stroke="black" stroke-width="1.5"/>
<path d="M32.8689 101.831C32.8689 103.003 31.9185 103.954 30.746 103.954C29.5735 103.954 28.623 103.003 28.623 101.831C28.623 100.658 29.5735 99.7078 30.746 99.7078C31.9185 99.7078 32.8689 100.658 32.8689 101.831Z" fill="url(#paint12_radial_393_220)"/>
<path d="M32.8689 101.831C32.8689 103.003 31.9185 103.954 30.746 103.954C29.5735 103.954 28.623 103.003 28.623 101.831C28.623 100.658 29.5735 99.7078 30.746 99.7078C31.9185 99.7078 32.8689 100.658 32.8689 101.831Z" fill="url(#paint13_radial_393_220)"/>
<path d="M32.8689 101.831C32.8689 103.003 31.9185 103.954 30.746 103.954C29.5735 103.954 28.623 103.003 28.623 101.831C28.623 100.658 29.5735 99.7078 30.746 99.7078C31.9185 99.7078 32.8689 100.658 32.8689 101.831Z" stroke="black" stroke-width="1.5"/>
<path d="M32.8689 101.831C32.8689 103.003 31.9185 103.954 30.746 103.954C29.5735 103.954 28.623 103.003 28.623 101.831C28.623 100.658 29.5735 99.7078 30.746 99.7078C31.9185 99.7078 32.8689 100.658 32.8689 101.831Z" stroke="black" stroke-width="1.5"/>
<path d="M68.0492 113.962C68.0492 115.134 67.0988 116.085 65.9263 116.085C64.7538 116.085 63.8033 115.134 63.8033 113.962C63.8033 112.789 64.7538 111.839 65.9263 111.839C67.0988 111.839 68.0492 112.789 68.0492 113.962Z" fill="url(#paint14_radial_393_220)"/>
<path d="M68.0492 113.962C68.0492 115.134 67.0988 116.085 65.9263 116.085C64.7538 116.085 63.8033 115.134 63.8033 113.962C63.8033 112.789 64.7538 111.839 65.9263 111.839C67.0988 111.839 68.0492 112.789 68.0492 113.962Z" fill="url(#paint15_radial_393_220)"/>
<path d="M68.0492 113.962C68.0492 115.134 67.0988 116.085 65.9263 116.085C64.7538 116.085 63.8033 115.134 63.8033 113.962C63.8033 112.789 64.7538 111.839 65.9263 111.839C67.0988 111.839 68.0492 112.789 68.0492 113.962Z" stroke="black" stroke-width="1.5"/>
<path d="M68.0492 113.962C68.0492 115.134 67.0988 116.085 65.9263 116.085C64.7538 116.085 63.8033 115.134 63.8033 113.962C63.8033 112.789 64.7538 111.839 65.9263 111.839C67.0988 111.839 68.0492 112.789 68.0492 113.962Z" stroke="black" stroke-width="1.5"/>
<defs>
<radialGradient id="paint0_radial_393_220" cx="0" cy="0" r="1" gradientUnits="userSpaceOnUse" gradientTransform="translate(100.197 98.1913) rotate(90) scale(2.12295)">
<stop stop-color="#6A5736"/>
<stop offset="1" stop-color="#512404"/>
</radialGradient>
<radialGradient id="paint1_radial_393_220" cx="0" cy="0" r="1" gradientUnits="userSpaceOnUse" gradientTransform="translate(100.5 98.1913) rotate(90) scale(2.12295)">
<stop stop-color="#6A5736"/>
<stop offset="1" stop-color="#512404"/>
</radialGradient>
<radialGradient id="paint2_radial_393_220" cx="0" cy="0" r="1" gradientUnits="userSpaceOnUse" gradientTransform="translate(114.148 61.7979) rotate(90) scale(2.12295)">
<stop stop-color="#6A5736"/>
<stop offset="1" stop-color="#512404"/>
</radialGradient>
<radialGradient id="paint3_radial_393_220" cx="0" cy="0" r="1" gradientUnits="userSpaceOnUse" gradientTransform="translate(114.451 61.7979) rotate(90) scale(2.12295)">
<stop stop-color="#6A5736"/>
<stop offset="1" stop-color="#512404"/>
</radialGradient>
<radialGradient id="paint4_radial_393_220" cx="0" cy="0" r="1" gradientUnits="userSpaceOnUse" gradientTransform="translate(94.7378 23.5847) rotate(90) scale(2.12295)">
<stop stop-color="#6A5736"/>
<stop offset="1" stop-color="#512404"/>
</radialGradient>
<radialGradient id="paint5_radial_393_220" cx="0" cy="0" r="1" gradientUnits="userSpaceOnUse" gradientTransform="translate(95.041 23.5847) rotate(90) scale(2.12295)">
<stop stop-color="#6A5736"/>
<stop offset="1" stop-color="#512404"/>
</radialGradient>
<radialGradient id="paint6_radial_393_220" cx="0" cy="0" r="1" gradientUnits="userSpaceOnUse" gradientTransform="translate(58.9509 12.6668) rotate(90) scale(2.12295)">
<stop stop-color="#6A5736"/>
<stop offset="1" stop-color="#512404"/>
</radialGradient>
<radialGradient id="paint7_radial_393_220" cx="0" cy="0" r="1" gradientUnits="userSpaceOnUse" gradientTransform="translate(59.2542 12.6668) rotate(90) scale(2.12295)">
<stop stop-color="#6A5736"/>
<stop offset="1" stop-color="#512404"/>
</radialGradient>
<radialGradient id="paint8_radial_393_220" cx="0" cy="0" r="1" gradientUnits="userSpaceOnUse" gradientTransform="translate(25.5902 30.257) rotate(90) scale(2.12295)">
<stop stop-color="#6A5736"/>
<stop offset="1" stop-color="#512404"/>
</radialGradient>
<radialGradient id="paint9_radial_393_220" cx="0" cy="0" r="1" gradientUnits="userSpaceOnUse" gradientTransform="translate(25.8935 30.257) rotate(90) scale(2.12295)">
<stop stop-color="#6A5736"/>
<stop offset="1" stop-color="#512404"/>
</radialGradient>
<radialGradient id="paint10_radial_393_220" cx="0" cy="0" r="1" gradientUnits="userSpaceOnUse" gradientTransform="translate(12.8525 68.47) rotate(90) scale(2.12295)">
<stop stop-color="#6A5736"/>
<stop offset="1" stop-color="#512404"/>
</radialGradient>
<radialGradient id="paint11_radial_393_220" cx="0" cy="0" r="1" gradientUnits="userSpaceOnUse" gradientTransform="translate(13.1558 68.47) rotate(90) scale(2.12295)">
<stop stop-color="#6A5736"/>
<stop offset="1" stop-color="#512404"/>
</radialGradient>
<radialGradient id="paint12_radial_393_220" cx="0" cy="0" r="1" gradientUnits="userSpaceOnUse" gradientTransform="translate(30.4427 101.831) rotate(90) scale(2.12295)">
<stop stop-color="#6A5736"/>
<stop offset="1" stop-color="#512404"/>
</radialGradient>
<radialGradient id="paint13_radial_393_220" cx="0" cy="0" r="1" gradientUnits="userSpaceOnUse" gradientTransform="translate(30.746 101.831) rotate(90) scale(2.12295)">
<stop stop-color="#6A5736"/>
<stop offset="1" stop-color="#512404"/>
</radialGradient>
<radialGradient id="paint14_radial_393_220" cx="0" cy="0" r="1" gradientUnits="userSpaceOnUse" gradientTransform="translate(65.623 113.962) rotate(90) scale(2.12295)">
<stop stop-color="#6A5736"/>
<stop offset="1" stop-color="#512404"/>
</radialGradient>
<radialGradient id="paint15_radial_393_220" cx="0" cy="0" r="1" gradientUnits="userSpaceOnUse" gradientTransform="translate(65.9263 113.962) rotate(90) scale(2.12295)">
<stop stop-color="#6A5736"/>
<stop offset="1" stop-color="#512404"/>
</radialGradient>
</defs>
</svg>
