<svg xmlns="http://www.w3.org/2000/svg" width="707" height="268" fill="none" viewBox="0 0 707 268"><path fill="#3E3E3E" d="M22.2163 126.812C50.4916 135.123 112.091 151.744 117.141 153.406C118.15 146.758 145.012 126.813 160.159 130.137L160.159 126.813L160.159 123.488C145.012 126.813 118.15 106.867 117.141 100.219C112.091 101.881 50.4916 116.84 22.2163 126.812Z"/><path fill="url(#paint0_linear_270_936)" fill-rule="evenodd" d="M4.36049e-07 126.813C37.0149 138.24 117.655 161.093 124.264 163.379C122.19 155.068 149.822 133.669 169.652 138.24L169.652 115.385C149.822 119.956 122.19 98.5567 124.264 90.2462C117.655 92.5316 37.0149 113.1 4.36049e-07 126.813ZM117.141 153.406C112.091 151.744 50.4916 135.123 22.2163 126.812C50.4916 116.84 112.091 101.881 117.141 100.219C118.15 106.867 145.012 126.813 160.159 123.488L160.159 126.813L160.159 130.137C145.012 126.813 118.15 146.758 117.141 153.406Z" clip-rule="evenodd"/><path fill="#3E3E3E" d="M684.214 126.812C655.939 135.123 594.339 151.744 589.29 153.406C588.28 146.758 561.418 126.813 546.271 130.137L546.271 126.813L546.271 123.488C561.418 126.813 588.28 106.867 589.29 100.219C594.339 101.881 655.939 116.84 684.214 126.812Z"/><path fill="url(#paint1_linear_270_936)" fill-rule="evenodd" d="M706.43 126.813C669.415 138.24 588.776 161.093 582.166 163.379C584.24 155.068 556.608 133.669 536.778 138.24L536.778 115.385C556.608 119.956 584.24 98.5567 582.166 90.2462C588.776 92.5316 669.415 113.1 706.43 126.813ZM589.29 153.406C594.339 151.744 655.939 135.123 684.214 126.812C655.939 116.84 594.339 101.881 589.29 100.219C588.28 106.867 561.418 126.813 546.271 123.488L546.271 126.813L546.271 130.137C561.418 126.813 588.28 146.758 589.29 153.406Z" clip-rule="evenodd"/><path fill="#555" d="M169.652 115.385L169.652 138.24C171.761 138.24 180.815 141.126 180.815 145.619C180.815 141.126 189.868 138.24 191.978 138.24L353.215 138.24L514.453 138.24C516.562 138.24 525.615 141.125 525.615 145.619C525.615 141.125 534.669 138.24 536.778 138.24L536.778 115.385C534.669 115.386 525.615 112.499 525.615 108.006C525.615 112.499 516.562 115.386 514.453 115.385L353.215 115.385L191.978 115.385C189.868 115.386 180.815 112.499 180.815 108.006C180.815 112.499 171.761 115.386 169.652 115.385Z"/><mask id="path-2-outside-1_270_936" width="424" height="89" x="161.925" y="179.245" fill="#000" maskUnits="userSpaceOnUse"><rect width="424" height="89" x="161.925" y="179.245" fill="#fff"/><path d="M208.809 262.79H196.39L169.925 187.245L185.042 191.014L207.341 258.782L206.666 242.951L219.085 206.488L215.197 204.346H233.21L228.052 207.678L208.809 262.79Z"/><path d="M280.743 262.79H259.714C260.561 262.261 261.394 261.718 262.214 261.163L258.167 248.466L242.137 248.546L240.154 241.205L233.528 260.687L237.416 262.79H219.442L224.6 259.457L243.844 204.306H256.223L275.506 259.417L280.743 262.79ZM255.469 240.095L248.248 217.518L240.55 240.095H255.469Z"/><path d="M321.61 262.79H282.37L285.425 259.457V207.639L282.37 204.306H300.264L296.733 208.155V251.958L293.876 254.458L316.849 254.418L321.61 246.76V262.79Z"/><path d="M376.643 262.79H359.185L362.279 259.417V237.714H344.068L339.187 230.929V259.378L342.322 262.79H324.745L327.879 259.378V207.718L324.745 204.306H342.322L339.187 207.718V229.382H362.279V207.678L359.185 204.306H376.643L373.587 207.678V259.417L376.643 262.79Z"/><path d="M439.531 262.79H418.502C419.348 262.261 420.181 261.718 421.001 261.163L416.954 248.466L400.925 248.546L398.941 241.205L392.315 260.687L396.203 262.79H378.23L383.388 259.457L402.631 204.306H415.01L434.293 259.417L439.531 262.79ZM414.256 240.095L407.035 217.518L399.338 240.095H414.256Z"/><path d="M505.315 262.909H441.157L444.212 259.576V207.718L441.157 204.425H459.052L455.481 208.274V252.077L452.624 254.577L469.13 254.537V207.718L466.074 204.425H483.969L480.438 208.274L480.358 254.577L500.514 254.537L505.315 246.84V262.909Z"/><path d="M568.719 262.79H547.69C548.536 262.261 549.37 261.718 550.19 261.163L546.143 248.466L530.113 248.546L528.129 241.205L521.503 260.687L525.392 262.79H507.418L512.576 259.457L531.819 204.306H544.198L563.482 259.417L568.719 262.79ZM543.445 240.095L536.223 217.518L528.526 240.095H543.445Z"/></mask><path fill="url(#paint2_linear_270_936)" d="M208.809 262.79H196.39L169.925 187.245L185.042 191.014L207.341 258.782L206.666 242.951L219.085 206.488L215.197 204.346H233.21L228.052 207.678L208.809 262.79Z"/><path fill="url(#paint3_linear_270_936)" d="M280.743 262.79H259.714C260.561 262.261 261.394 261.718 262.214 261.163L258.167 248.466L242.137 248.546L240.154 241.205L233.528 260.687L237.416 262.79H219.442L224.6 259.457L243.844 204.306H256.223L275.506 259.417L280.743 262.79ZM255.469 240.095L248.248 217.518L240.55 240.095H255.469Z"/><path fill="url(#paint4_linear_270_936)" d="M321.61 262.79H282.37L285.425 259.457V207.639L282.37 204.306H300.264L296.733 208.155V251.958L293.876 254.458L316.849 254.418L321.61 246.76V262.79Z"/><path fill="url(#paint5_linear_270_936)" d="M376.643 262.79H359.185L362.279 259.417V237.714H344.068L339.187 230.929V259.378L342.322 262.79H324.745L327.879 259.378V207.718L324.745 204.306H342.322L339.187 207.718V229.382H362.279V207.678L359.185 204.306H376.643L373.587 207.678V259.417L376.643 262.79Z"/><path fill="url(#paint6_linear_270_936)" d="M439.531 262.79H418.502C419.348 262.261 420.181 261.718 421.001 261.163L416.954 248.466L400.925 248.546L398.941 241.205L392.315 260.687L396.203 262.79H378.23L383.388 259.457L402.631 204.306H415.01L434.293 259.417L439.531 262.79ZM414.256 240.095L407.035 217.518L399.338 240.095H414.256Z"/><path fill="url(#paint7_linear_270_936)" d="M505.315 262.909H441.157L444.212 259.576V207.718L441.157 204.425H459.052L455.481 208.274V252.077L452.624 254.577L469.13 254.537V207.718L466.074 204.425H483.969L480.438 208.274L480.358 254.577L500.514 254.537L505.315 246.84V262.909Z"/><path fill="url(#paint8_linear_270_936)" d="M568.719 262.79H547.69C548.536 262.261 549.37 261.718 550.19 261.163L546.143 248.466L530.113 248.546L528.129 241.205L521.503 260.687L525.392 262.79H507.418L512.576 259.457L531.819 204.306H544.198L563.482 259.417L568.719 262.79ZM543.445 240.095L536.223 217.518L528.526 240.095H543.445Z"/><path stroke="#383838" stroke-width="10" d="M208.809 262.79H196.39L169.925 187.245L185.042 191.014L207.341 258.782L206.666 242.951L219.085 206.488L215.197 204.346H233.21L228.052 207.678L208.809 262.79Z" mask="url(#path-2-outside-1_270_936)"/><path stroke="#383838" stroke-width="10" d="M280.743 262.79H259.714C260.561 262.261 261.394 261.718 262.214 261.163L258.167 248.466L242.137 248.546L240.154 241.205L233.528 260.687L237.416 262.79H219.442L224.6 259.457L243.844 204.306H256.223L275.506 259.417L280.743 262.79ZM255.469 240.095L248.248 217.518L240.55 240.095H255.469Z" mask="url(#path-2-outside-1_270_936)"/><path stroke="#383838" stroke-width="10" d="M321.61 262.79H282.37L285.425 259.457V207.639L282.37 204.306H300.264L296.733 208.155V251.958L293.876 254.458L316.849 254.418L321.61 246.76V262.79Z" mask="url(#path-2-outside-1_270_936)"/><path stroke="#383838" stroke-width="10" d="M376.643 262.79H359.185L362.279 259.417V237.714H344.068L339.187 230.929V259.378L342.322 262.79H324.745L327.879 259.378V207.718L324.745 204.306H342.322L339.187 207.718V229.382H362.279V207.678L359.185 204.306H376.643L373.587 207.678V259.417L376.643 262.79Z" mask="url(#path-2-outside-1_270_936)"/><path stroke="#383838" stroke-width="10" d="M439.531 262.79H418.502C419.348 262.261 420.181 261.718 421.001 261.163L416.954 248.466L400.925 248.546L398.941 241.205L392.315 260.687L396.203 262.79H378.23L383.388 259.457L402.631 204.306H415.01L434.293 259.417L439.531 262.79ZM414.256 240.095L407.035 217.518L399.338 240.095H414.256Z" mask="url(#path-2-outside-1_270_936)"/><path stroke="#383838" stroke-width="10" d="M505.315 262.909H441.157L444.212 259.576V207.718L441.157 204.425H459.052L455.481 208.274V252.077L452.624 254.577L469.13 254.537V207.718L466.074 204.425H483.969L480.438 208.274L480.358 254.577L500.514 254.537L505.315 246.84V262.909Z" mask="url(#path-2-outside-1_270_936)"/><path stroke="#383838" stroke-width="10" d="M568.719 262.79H547.69C548.536 262.261 549.37 261.718 550.19 261.163L546.143 248.466L530.113 248.546L528.129 241.205L521.503 260.687L525.392 262.79H507.418L512.576 259.457L531.819 204.306H544.198L563.482 259.417L568.719 262.79ZM543.445 240.095L536.223 217.518L528.526 240.095H543.445Z" mask="url(#path-2-outside-1_270_936)"/><mask id="path-3-outside-2_270_936" width="491" height="72" x="120" y="0" fill="#000" maskUnits="userSpaceOnUse"><rect width="491" height="72" x="120" fill="#fff"/><path d="M162.988 65.071H132L135.055 61.6984V10.5548L132 6.58708H159.695C162.816 6.58708 165.514 7.04998 167.789 7.97578C170.063 8.90157 171.942 10.158 173.423 11.7451C174.931 13.3057 176.041 15.0647 176.756 17.0221C177.47 18.9795 177.827 21.0031 177.827 23.0927C177.827 25.1295 177.483 27.1265 176.795 29.0839C176.134 31.0413 175.129 32.8136 173.78 34.4007C176.187 36.0142 178.012 38.0906 179.255 40.6299C180.499 43.1693 181.12 45.8276 181.12 48.605C181.12 50.6682 180.75 52.6785 180.009 54.6359C179.295 56.5933 178.197 58.3656 176.716 59.9526C175.235 61.5133 173.357 62.7565 171.082 63.6823C168.807 64.6081 166.109 65.071 162.988 65.071ZM156.322 31.5836C158.544 31.5836 160.382 31.1868 161.837 30.3933C163.318 29.5997 164.416 28.5814 165.13 27.3382C165.844 26.0949 166.202 24.7856 166.202 23.4101C166.202 22.0082 165.831 20.6592 165.091 19.3631C164.35 18.067 163.252 17.0089 161.797 16.1889C160.369 15.3689 158.584 14.9589 156.441 14.9589H146.363V31.5836H156.322ZM159.734 56.7388C161.877 56.7388 163.662 56.3288 165.091 55.5088C166.545 54.6888 167.643 53.6308 168.384 52.3347C169.124 51.0385 169.495 49.6895 169.495 48.2876C169.495 46.9121 169.138 45.6028 168.423 44.3596C167.709 43.0899 166.612 42.0583 165.13 41.2648C163.675 40.4712 161.837 40.0745 159.615 40.0745H151.164L146.363 33.3691V56.7388H159.734Z"/><path d="M239.882 65.0313H224.051L201.474 31.5439H212.148C214.369 31.5439 216.208 31.1471 217.663 30.3536C219.144 29.5601 220.242 28.5417 220.956 27.2985C221.67 26.0288 222.027 24.7195 222.027 23.3705C222.027 21.9685 221.657 20.6195 220.916 19.3234C220.202 18.0273 219.117 16.9692 217.663 16.1492C216.208 15.3292 214.409 14.9193 212.267 14.9193H198.935V61.6588L201.99 65.0313H184.532L187.627 61.6588V10.5151L184.532 6.5474H215.56C218.681 6.5474 221.379 7.0103 223.654 7.9361C225.929 8.86189 227.807 10.1183 229.288 11.7054C230.769 13.266 231.867 15.0251 232.581 16.9825C233.322 18.9399 233.692 20.9502 233.692 23.0134C233.692 26.7694 232.555 30.2478 230.28 33.4484C228.032 36.6226 224.765 38.6461 220.48 39.519L235.438 61.8175L239.882 65.0313Z"/><path d="M283.209 64.9916H241.35L244.405 61.6588V9.84059L241.35 6.50773H283.209V19.5615L279.122 14.8796H255.713V31.5836L272.02 31.6233V42.098L270.155 39.9158H260.593L255.713 33.131V56.6198H279.122L283.209 51.9379V64.9916Z"/><path d="M346.454 64.9916H325.425C326.272 64.4626 327.105 63.9203 327.925 63.3649L323.878 50.6682L307.848 50.7476L305.865 43.4073L299.239 62.8887L303.127 64.9916H285.153L290.311 61.6588L309.555 6.50773H321.934L341.217 61.6191L346.454 64.9916ZM321.18 42.2964L313.959 19.7202L306.261 42.2964H321.18Z"/><path d="M386.726 64.9916L362.404 33.7658L362.484 61.5794L365.618 64.9916H348.081L351.215 61.5794V9.91995L348.081 6.50773H365.618L362.484 9.91995L362.444 30.8297L383.949 9.40415L381.132 6.50773H400.336L394.106 9.95963L374.347 29.7188L397.717 61.0239L405.851 64.9123L386.726 64.9916Z"/><path d="M454.257 64.9916H436.799L439.894 61.6191V9.88027L436.799 6.50773H454.257L451.201 9.88027V61.6191L454.257 64.9916Z"/><path d="M476.079 64.9916H469.929V64.9123H466.993V64.9916H460.843L463.938 61.5794V6.50773L475.643 6.78547L494.687 38.289L498.338 52.3347L498.417 9.95963L495.283 6.5474H509.963L506.71 10.0787V64.9123L494.687 64.8329L472.27 28.2904V60.8255L476.079 64.9916Z"/><path d="M541.149 65.0313H523.652L526.746 61.6588V19.5615L533.333 14.9193H516.51L512.423 19.6011V6.5474H552.378V19.6011L548.291 14.9193H538.054V61.6588L541.149 65.0313Z"/><path d="M578.842 66.3803C574.425 66.3803 570.55 65.5207 567.217 63.8013C563.884 62.0555 561.107 59.7278 558.885 56.8182C556.689 53.8821 555.036 50.5889 553.925 46.9386C552.814 43.2883 552.259 39.5322 552.259 35.6703C552.259 31.8349 552.814 28.092 553.925 24.4417C555.036 20.7914 556.689 17.5115 558.885 14.6018C561.107 11.6657 563.884 9.33802 567.217 7.61868C570.55 5.87289 574.425 5 578.842 5C583.286 5 587.175 5.87289 590.507 7.61868C593.84 9.33802 596.618 11.6657 598.84 14.6018C601.088 17.5115 602.768 20.7914 603.879 24.4417C604.99 28.092 605.545 31.8349 605.545 35.6703C605.545 39.5322 604.99 43.2883 603.879 46.9386C602.768 50.5889 601.088 53.8821 598.84 56.8182C596.618 59.7278 593.84 62.0555 590.507 63.8013C587.175 65.5207 583.286 66.3803 578.842 66.3803ZM579.596 58.9607L580.39 58.921C583.008 58.6301 585.164 57.4795 586.857 55.4691C588.577 53.4324 589.846 50.8402 590.666 47.6925C591.513 44.5183 591.936 41.1722 591.936 37.6542C591.936 34.6123 591.632 31.5968 591.023 28.6078C590.415 25.5924 589.516 22.8811 588.325 20.474C587.161 18.0405 585.72 16.0963 584 14.6415C582.281 13.1602 580.31 12.4196 578.089 12.4196L577.255 12.4593C574.663 12.7502 572.521 13.9141 570.828 15.9509C569.161 17.9612 567.918 20.5402 567.098 23.6879C566.304 26.8356 565.908 30.1684 565.908 33.6865C565.908 36.7284 566.199 39.7571 566.781 42.7725C567.389 45.7615 568.275 48.4728 569.439 50.9063C570.603 53.3398 572.031 55.2972 573.724 56.7785C575.417 58.2333 577.374 58.9607 579.596 58.9607Z"/></mask><path fill="url(#paint9_linear_270_936)" d="M162.988 65.071H132L135.055 61.6984V10.5548L132 6.58708H159.695C162.816 6.58708 165.514 7.04998 167.789 7.97578C170.063 8.90157 171.942 10.158 173.423 11.7451C174.931 13.3057 176.041 15.0647 176.756 17.0221C177.47 18.9795 177.827 21.0031 177.827 23.0927C177.827 25.1295 177.483 27.1265 176.795 29.0839C176.134 31.0413 175.129 32.8136 173.78 34.4007C176.187 36.0142 178.012 38.0906 179.255 40.6299C180.499 43.1693 181.12 45.8276 181.12 48.605C181.12 50.6682 180.75 52.6785 180.009 54.6359C179.295 56.5933 178.197 58.3656 176.716 59.9526C175.235 61.5133 173.357 62.7565 171.082 63.6823C168.807 64.6081 166.109 65.071 162.988 65.071ZM156.322 31.5836C158.544 31.5836 160.382 31.1868 161.837 30.3933C163.318 29.5997 164.416 28.5814 165.13 27.3382C165.844 26.0949 166.202 24.7856 166.202 23.4101C166.202 22.0082 165.831 20.6592 165.091 19.3631C164.35 18.067 163.252 17.0089 161.797 16.1889C160.369 15.3689 158.584 14.9589 156.441 14.9589H146.363V31.5836H156.322ZM159.734 56.7388C161.877 56.7388 163.662 56.3288 165.091 55.5088C166.545 54.6888 167.643 53.6308 168.384 52.3347C169.124 51.0385 169.495 49.6895 169.495 48.2876C169.495 46.9121 169.138 45.6028 168.423 44.3596C167.709 43.0899 166.612 42.0583 165.13 41.2648C163.675 40.4712 161.837 40.0745 159.615 40.0745H151.164L146.363 33.3691V56.7388H159.734Z"/><path fill="url(#paint10_linear_270_936)" d="M239.882 65.0313H224.051L201.474 31.5439H212.148C214.369 31.5439 216.208 31.1471 217.663 30.3536C219.144 29.5601 220.242 28.5417 220.956 27.2985C221.67 26.0288 222.027 24.7195 222.027 23.3705C222.027 21.9685 221.657 20.6195 220.916 19.3234C220.202 18.0273 219.117 16.9692 217.663 16.1492C216.208 15.3292 214.409 14.9193 212.267 14.9193H198.935V61.6588L201.99 65.0313H184.532L187.627 61.6588V10.5151L184.532 6.5474H215.56C218.681 6.5474 221.379 7.0103 223.654 7.9361C225.929 8.86189 227.807 10.1183 229.288 11.7054C230.769 13.266 231.867 15.0251 232.581 16.9825C233.322 18.9399 233.692 20.9502 233.692 23.0134C233.692 26.7694 232.555 30.2478 230.28 33.4484C228.032 36.6226 224.765 38.6461 220.48 39.519L235.438 61.8175L239.882 65.0313Z"/><path fill="url(#paint11_linear_270_936)" d="M283.209 64.9916H241.35L244.405 61.6588V9.84059L241.35 6.50773H283.209V19.5615L279.122 14.8796H255.713V31.5836L272.02 31.6233V42.098L270.155 39.9158H260.593L255.713 33.131V56.6198H279.122L283.209 51.9379V64.9916Z"/><path fill="url(#paint12_linear_270_936)" d="M346.454 64.9916H325.425C326.272 64.4626 327.105 63.9203 327.925 63.3649L323.878 50.6682L307.848 50.7476L305.865 43.4073L299.239 62.8887L303.127 64.9916H285.153L290.311 61.6588L309.555 6.50773H321.934L341.217 61.6191L346.454 64.9916ZM321.18 42.2964L313.959 19.7202L306.261 42.2964H321.18Z"/><path fill="url(#paint13_linear_270_936)" d="M386.726 64.9916L362.404 33.7658L362.484 61.5794L365.618 64.9916H348.081L351.215 61.5794V9.91995L348.081 6.50773H365.618L362.484 9.91995L362.444 30.8297L383.949 9.40415L381.132 6.50773H400.336L394.106 9.95963L374.347 29.7188L397.717 61.0239L405.851 64.9123L386.726 64.9916Z"/><path fill="url(#paint14_linear_270_936)" d="M454.257 64.9916H436.799L439.894 61.6191V9.88027L436.799 6.50773H454.257L451.201 9.88027V61.6191L454.257 64.9916Z"/><path fill="url(#paint15_linear_270_936)" d="M476.079 64.9916H469.929V64.9123H466.993V64.9916H460.843L463.938 61.5794V6.50773L475.643 6.78547L494.687 38.289L498.338 52.3347L498.417 9.95963L495.283 6.5474H509.963L506.71 10.0787V64.9123L494.687 64.8329L472.27 28.2904V60.8255L476.079 64.9916Z"/><path fill="url(#paint16_linear_270_936)" d="M541.149 65.0313H523.652L526.746 61.6588V19.5615L533.333 14.9193H516.51L512.423 19.6011V6.5474H552.378V19.6011L548.291 14.9193H538.054V61.6588L541.149 65.0313Z"/><path fill="url(#paint17_linear_270_936)" d="M578.842 66.3803C574.425 66.3803 570.55 65.5207 567.217 63.8013C563.884 62.0555 561.107 59.7278 558.885 56.8182C556.689 53.8821 555.036 50.5889 553.925 46.9386C552.814 43.2883 552.259 39.5322 552.259 35.6703C552.259 31.8349 552.814 28.092 553.925 24.4417C555.036 20.7914 556.689 17.5115 558.885 14.6018C561.107 11.6657 563.884 9.33802 567.217 7.61868C570.55 5.87289 574.425 5 578.842 5C583.286 5 587.175 5.87289 590.507 7.61868C593.84 9.33802 596.618 11.6657 598.84 14.6018C601.088 17.5115 602.768 20.7914 603.879 24.4417C604.99 28.092 605.545 31.8349 605.545 35.6703C605.545 39.5322 604.99 43.2883 603.879 46.9386C602.768 50.5889 601.088 53.8821 598.84 56.8182C596.618 59.7278 593.84 62.0555 590.507 63.8013C587.175 65.5207 583.286 66.3803 578.842 66.3803ZM579.596 58.9607L580.39 58.921C583.008 58.6301 585.164 57.4795 586.857 55.4691C588.577 53.4324 589.846 50.8402 590.666 47.6925C591.513 44.5183 591.936 41.1722 591.936 37.6542C591.936 34.6123 591.632 31.5968 591.023 28.6078C590.415 25.5924 589.516 22.8811 588.325 20.474C587.161 18.0405 585.72 16.0963 584 14.6415C582.281 13.1602 580.31 12.4196 578.089 12.4196L577.255 12.4593C574.663 12.7502 572.521 13.9141 570.828 15.9509C569.161 17.9612 567.918 20.5402 567.098 23.6879C566.304 26.8356 565.908 30.1684 565.908 33.6865C565.908 36.7284 566.199 39.7571 566.781 42.7725C567.389 45.7615 568.275 48.4728 569.439 50.9063C570.603 53.3398 572.031 55.2972 573.724 56.7785C575.417 58.2333 577.374 58.9607 579.596 58.9607Z"/><path stroke="#383838" stroke-width="10" d="M162.988 65.071H132L135.055 61.6984V10.5548L132 6.58708H159.695C162.816 6.58708 165.514 7.04998 167.789 7.97578C170.063 8.90157 171.942 10.158 173.423 11.7451C174.931 13.3057 176.041 15.0647 176.756 17.0221C177.47 18.9795 177.827 21.0031 177.827 23.0927C177.827 25.1295 177.483 27.1265 176.795 29.0839C176.134 31.0413 175.129 32.8136 173.78 34.4007C176.187 36.0142 178.012 38.0906 179.255 40.6299C180.499 43.1693 181.12 45.8276 181.12 48.605C181.12 50.6682 180.75 52.6785 180.009 54.6359C179.295 56.5933 178.197 58.3656 176.716 59.9526C175.235 61.5133 173.357 62.7565 171.082 63.6823C168.807 64.6081 166.109 65.071 162.988 65.071ZM156.322 31.5836C158.544 31.5836 160.382 31.1868 161.837 30.3933C163.318 29.5997 164.416 28.5814 165.13 27.3382C165.844 26.0949 166.202 24.7856 166.202 23.4101C166.202 22.0082 165.831 20.6592 165.091 19.3631C164.35 18.067 163.252 17.0089 161.797 16.1889C160.369 15.3689 158.584 14.9589 156.441 14.9589H146.363V31.5836H156.322ZM159.734 56.7388C161.877 56.7388 163.662 56.3288 165.091 55.5088C166.545 54.6888 167.643 53.6308 168.384 52.3347C169.124 51.0385 169.495 49.6895 169.495 48.2876C169.495 46.9121 169.138 45.6028 168.423 44.3596C167.709 43.0899 166.612 42.0583 165.13 41.2648C163.675 40.4712 161.837 40.0745 159.615 40.0745H151.164L146.363 33.3691V56.7388H159.734Z" mask="url(#path-3-outside-2_270_936)"/><path stroke="#383838" stroke-width="10" d="M239.882 65.0313H224.051L201.474 31.5439H212.148C214.369 31.5439 216.208 31.1471 217.663 30.3536C219.144 29.5601 220.242 28.5417 220.956 27.2985C221.67 26.0288 222.027 24.7195 222.027 23.3705C222.027 21.9685 221.657 20.6195 220.916 19.3234C220.202 18.0273 219.117 16.9692 217.663 16.1492C216.208 15.3292 214.409 14.9193 212.267 14.9193H198.935V61.6588L201.99 65.0313H184.532L187.627 61.6588V10.5151L184.532 6.5474H215.56C218.681 6.5474 221.379 7.0103 223.654 7.9361C225.929 8.86189 227.807 10.1183 229.288 11.7054C230.769 13.266 231.867 15.0251 232.581 16.9825C233.322 18.9399 233.692 20.9502 233.692 23.0134C233.692 26.7694 232.555 30.2478 230.28 33.4484C228.032 36.6226 224.765 38.6461 220.48 39.519L235.438 61.8175L239.882 65.0313Z" mask="url(#path-3-outside-2_270_936)"/><path stroke="#383838" stroke-width="10" d="M283.209 64.9916H241.35L244.405 61.6588V9.84059L241.35 6.50773H283.209V19.5615L279.122 14.8796H255.713V31.5836L272.02 31.6233V42.098L270.155 39.9158H260.593L255.713 33.131V56.6198H279.122L283.209 51.9379V64.9916Z" mask="url(#path-3-outside-2_270_936)"/><path stroke="#383838" stroke-width="10" d="M346.454 64.9916H325.425C326.272 64.4626 327.105 63.9203 327.925 63.3649L323.878 50.6682L307.848 50.7476L305.865 43.4073L299.239 62.8887L303.127 64.9916H285.153L290.311 61.6588L309.555 6.50773H321.934L341.217 61.6191L346.454 64.9916ZM321.18 42.2964L313.959 19.7202L306.261 42.2964H321.18Z" mask="url(#path-3-outside-2_270_936)"/><path stroke="#383838" stroke-width="10" d="M386.726 64.9916L362.404 33.7658L362.484 61.5794L365.618 64.9916H348.081L351.215 61.5794V9.91995L348.081 6.50773H365.618L362.484 9.91995L362.444 30.8297L383.949 9.40415L381.132 6.50773H400.336L394.106 9.95963L374.347 29.7188L397.717 61.0239L405.851 64.9123L386.726 64.9916Z" mask="url(#path-3-outside-2_270_936)"/><path stroke="#383838" stroke-width="10" d="M454.257 64.9916H436.799L439.894 61.6191V9.88027L436.799 6.50773H454.257L451.201 9.88027V61.6191L454.257 64.9916Z" mask="url(#path-3-outside-2_270_936)"/><path stroke="#383838" stroke-width="10" d="M476.079 64.9916H469.929V64.9123H466.993V64.9916H460.843L463.938 61.5794V6.50773L475.643 6.78547L494.687 38.289L498.338 52.3347L498.417 9.95963L495.283 6.5474H509.963L506.71 10.0787V64.9123L494.687 64.8329L472.27 28.2904V60.8255L476.079 64.9916Z" mask="url(#path-3-outside-2_270_936)"/><path stroke="#383838" stroke-width="10" d="M541.149 65.0313H523.652L526.746 61.6588V19.5615L533.333 14.9193H516.51L512.423 19.6011V6.5474H552.378V19.6011L548.291 14.9193H538.054V61.6588L541.149 65.0313Z" mask="url(#path-3-outside-2_270_936)"/><path stroke="#383838" stroke-width="10" d="M578.842 66.3803C574.425 66.3803 570.55 65.5207 567.217 63.8013C563.884 62.0555 561.107 59.7278 558.885 56.8182C556.689 53.8821 555.036 50.5889 553.925 46.9386C552.814 43.2883 552.259 39.5322 552.259 35.6703C552.259 31.8349 552.814 28.092 553.925 24.4417C555.036 20.7914 556.689 17.5115 558.885 14.6018C561.107 11.6657 563.884 9.33802 567.217 7.61868C570.55 5.87289 574.425 5 578.842 5C583.286 5 587.175 5.87289 590.507 7.61868C593.84 9.33802 596.618 11.6657 598.84 14.6018C601.088 17.5115 602.768 20.7914 603.879 24.4417C604.99 28.092 605.545 31.8349 605.545 35.6703C605.545 39.5322 604.99 43.2883 603.879 46.9386C602.768 50.5889 601.088 53.8821 598.84 56.8182C596.618 59.7278 593.84 62.0555 590.507 63.8013C587.175 65.5207 583.286 66.3803 578.842 66.3803ZM579.596 58.9607L580.39 58.921C583.008 58.6301 585.164 57.4795 586.857 55.4691C588.577 53.4324 589.846 50.8402 590.666 47.6925C591.513 44.5183 591.936 41.1722 591.936 37.6542C591.936 34.6123 591.632 31.5968 591.023 28.6078C590.415 25.5924 589.516 22.8811 588.325 20.474C587.161 18.0405 585.72 16.0963 584 14.6415C582.281 13.1602 580.31 12.4196 578.089 12.4196L577.255 12.4593C574.663 12.7502 572.521 13.9141 570.828 15.9509C569.161 17.9612 567.918 20.5402 567.098 23.6879C566.304 26.8356 565.908 30.1684 565.908 33.6865C565.908 36.7284 566.199 39.7571 566.781 42.7725C567.389 45.7615 568.275 48.4728 569.439 50.9063C570.603 53.3398 572.031 55.2972 573.724 56.7785C575.417 58.2333 577.374 58.9607 579.596 58.9607Z" mask="url(#path-3-outside-2_270_936)"/><defs><linearGradient id="paint0_linear_270_936" x1="0" x2="187.5" y1="126.813" y2="127.591" gradientUnits="userSpaceOnUse"><stop stop-color="#9E7152"/><stop offset=".823" stop-color="#CACACA"/><stop offset="1" stop-color="#9E9E9E"/></linearGradient><linearGradient id="paint1_linear_270_936" x1="541.493" x2="706.43" y1="126.813" y2="126.813" gradientUnits="userSpaceOnUse"><stop stop-color="#9E9E9E"/><stop offset=".109" stop-color="#CACACA"/><stop offset="1" stop-color="#9E7152"/></linearGradient><linearGradient id="paint2_linear_270_936" x1="377.764" x2="377.764" y1="181.571" y2="279.081" gradientUnits="userSpaceOnUse"><stop stop-color="#9E9E9E"/><stop offset=".38" stop-color="#CACACA"/><stop offset="1" stop-color="#9E7152"/></linearGradient><linearGradient id="paint3_linear_270_936" x1="377.764" x2="377.764" y1="181.571" y2="279.081" gradientUnits="userSpaceOnUse"><stop stop-color="#9E9E9E"/><stop offset=".38" stop-color="#CACACA"/><stop offset="1" stop-color="#9E7152"/></linearGradient><linearGradient id="paint4_linear_270_936" x1="377.764" x2="377.764" y1="181.571" y2="279.081" gradientUnits="userSpaceOnUse"><stop stop-color="#9E9E9E"/><stop offset=".38" stop-color="#CACACA"/><stop offset="1" stop-color="#9E7152"/></linearGradient><linearGradient id="paint5_linear_270_936" x1="377.764" x2="377.764" y1="181.571" y2="279.081" gradientUnits="userSpaceOnUse"><stop stop-color="#9E9E9E"/><stop offset=".38" stop-color="#CACACA"/><stop offset="1" stop-color="#9E7152"/></linearGradient><linearGradient id="paint6_linear_270_936" x1="377.764" x2="377.764" y1="181.571" y2="279.081" gradientUnits="userSpaceOnUse"><stop stop-color="#9E9E9E"/><stop offset=".38" stop-color="#CACACA"/><stop offset="1" stop-color="#9E7152"/></linearGradient><linearGradient id="paint7_linear_270_936" x1="377.764" x2="377.764" y1="181.571" y2="279.081" gradientUnits="userSpaceOnUse"><stop stop-color="#9E9E9E"/><stop offset=".38" stop-color="#CACACA"/><stop offset="1" stop-color="#9E7152"/></linearGradient><linearGradient id="paint8_linear_270_936" x1="377.764" x2="377.764" y1="181.571" y2="279.081" gradientUnits="userSpaceOnUse"><stop stop-color="#9E9E9E"/><stop offset=".38" stop-color="#CACACA"/><stop offset="1" stop-color="#9E7152"/></linearGradient><linearGradient id="paint9_linear_270_936" x1="375.776" x2="375.776" y1="-16.227" y2="81.283" gradientUnits="userSpaceOnUse"><stop stop-color="#9E9E9E"/><stop offset=".38" stop-color="#CACACA"/><stop offset="1" stop-color="#9E7152"/></linearGradient><linearGradient id="paint10_linear_270_936" x1="375.776" x2="375.776" y1="-16.227" y2="81.283" gradientUnits="userSpaceOnUse"><stop stop-color="#9E9E9E"/><stop offset=".38" stop-color="#CACACA"/><stop offset="1" stop-color="#9E7152"/></linearGradient><linearGradient id="paint11_linear_270_936" x1="375.776" x2="375.776" y1="-16.227" y2="81.283" gradientUnits="userSpaceOnUse"><stop stop-color="#9E9E9E"/><stop offset=".38" stop-color="#CACACA"/><stop offset="1" stop-color="#9E7152"/></linearGradient><linearGradient id="paint12_linear_270_936" x1="375.776" x2="375.776" y1="-16.227" y2="81.283" gradientUnits="userSpaceOnUse"><stop stop-color="#9E9E9E"/><stop offset=".38" stop-color="#CACACA"/><stop offset="1" stop-color="#9E7152"/></linearGradient><linearGradient id="paint13_linear_270_936" x1="375.776" x2="375.776" y1="-16.227" y2="81.283" gradientUnits="userSpaceOnUse"><stop stop-color="#9E9E9E"/><stop offset=".38" stop-color="#CACACA"/><stop offset="1" stop-color="#9E7152"/></linearGradient><linearGradient id="paint14_linear_270_936" x1="375.776" x2="375.776" y1="-16.227" y2="81.283" gradientUnits="userSpaceOnUse"><stop stop-color="#9E9E9E"/><stop offset=".38" stop-color="#CACACA"/><stop offset="1" stop-color="#9E7152"/></linearGradient><linearGradient id="paint15_linear_270_936" x1="375.776" x2="375.776" y1="-16.227" y2="81.283" gradientUnits="userSpaceOnUse"><stop stop-color="#9E9E9E"/><stop offset=".38" stop-color="#CACACA"/><stop offset="1" stop-color="#9E7152"/></linearGradient><linearGradient id="paint16_linear_270_936" x1="375.776" x2="375.776" y1="-16.227" y2="81.283" gradientUnits="userSpaceOnUse"><stop stop-color="#9E9E9E"/><stop offset=".38" stop-color="#CACACA"/><stop offset="1" stop-color="#9E7152"/></linearGradient><linearGradient id="paint17_linear_270_936" x1="375.776" x2="375.776" y1="-16.227" y2="81.283" gradientUnits="userSpaceOnUse"><stop stop-color="#9E9E9E"/><stop offset=".38" stop-color="#CACACA"/><stop offset="1" stop-color="#9E7152"/></linearGradient></defs></svg>