<svg width="1918" height="242" viewBox="0 0 1918 242" fill="none" xmlns="http://www.w3.org/2000/svg">
<path d="M970.281 50C971.031 55.5977 968.407 66.922 978.447 69C978.448 55.8462 988.043 40.6613 994.48 28H997.687C1004.45 41.2988 1010.51 59.1497 1010.51 73L1020.13 72C1021.06 85.503 1022.37 99.565 1024.68 113C1025.53 117.968 1024.14 125.174 1032.96 127C1037.1 106.591 1043.16 86.439 1047.1 65.9999C1048.47 58.8307 1043.32 48.1178 1055.41 44L1065.62 79L1071.44 106H1074.65C1086.27 86.679 1076.64 66.095 1092.28 47H1093.89C1118.55 70.576 1117.25 102.724 1120.15 130C1122.13 148.632 1129.16 167.147 1129.16 186C1129.16 199.644 1131.76 213.458 1134.43 227C1135.45 232.197 1133.88 238.212 1141.99 241C1150.49 218.731 1145.17 193.613 1147.03 171C1147.7 162.778 1154.24 154.259 1156.08 146C1159.51 130.636 1160.62 114.462 1162.69 99C1164.26 87.302 1165.27 75.808 1166.25 64C1166.66 58.9581 1164.6 53.8592 1172.45 51L1191.69 113H1194.9L1209.33 53H1210.93L1218.95 88C1237.15 80.22 1219.23 58.5567 1235.21 49.3897C1254.58 38.2801 1268.59 46.595 1274.22 60C1284.09 83.515 1278.92 109.048 1292.7 132C1302.45 128.658 1299.82 120.039 1302.32 114C1309.98 95.484 1314.82 75.8 1320.84 57C1322.29 52.4738 1321.58 38.3322 1328.64 35.9213C1339.7 32.1485 1341.05 55.7782 1341.72 59C1347.2 85.029 1348.24 110.942 1353.17 137C1354.62 144.633 1355.42 152.424 1357.14 159.995C1357.53 161.746 1358.84 165.565 1362.95 165.079C1366.89 164.613 1367.26 159.866 1368.12 158C1371.62 150.4 1370.05 142.384 1373.3 135C1379.33 121.285 1383.23 104.985 1385.46 91C1386.11 86.899 1382.78 83.05 1383.37 79C1384.16 73.608 1388.24 68.547 1388.75 63C1389.79 51.6812 1385.33 33.78 1400.12 25L1411.35 82H1414.55L1427.57 41L1437 18H1438.6L1453.03 70H1457.84L1473.88 29H1477.08L1491.51 75C1503.36 74.7611 1501.22 82.385 1502.28 88C1504.84 101.521 1502.47 115.691 1507.55 129H1510.75L1518.13 101L1529.99 45H1534.8C1537.37 57.6571 1544.41 70.485 1545.88 83C1546.8 90.798 1544.3 102.217 1554.04 108L1560.73 71L1570.08 49C1590.82 55.1775 1593.41 79.391 1594.14 92C1595.28 111.477 1602.36 130.666 1605.32 150C1607.9 166.838 1605.9 184.235 1609.73 201C1612.01 211.01 1612.62 221.004 1614.51 231C1615.4 235.678 1614.09 239.491 1621.38 242L1624.65 218L1626.5 172L1638.69 131L1645.37 88L1648.64 52H1650.24L1671.09 114H1675.9L1686.6 69L1690.33 54L1699.95 90C1711.63 80.22 1703.91 66.003 1710.12 55.0154C1717.95 41.1547 1742.42 43.4753 1750.75 55.0002C1763.67 72.8603 1760.55 95.1083 1766.65 114C1767.71 117.289 1767.54 131.343 1774.03 132.079C1780.84 132.851 1782.58 114.304 1783.63 111C1789.6 92.2122 1795.62 73.8202 1801.27 55.0002C1802.38 51.3084 1801.99 37.6652 1809.96 36.7704C1814.28 36.2852 1817.12 41.135 1818.07 43.001C1821.73 50.2002 1820.88 58.532 1822.48 66.0002C1827.8 90.8763 1828 115.918 1833.28 141C1834.31 145.926 1833.45 163.253 1840.23 165.914C1847.27 168.679 1847.1 160.995 1847.93 158.83C1851.2 150.252 1851.25 141.545 1854.42 133C1862.35 111.635 1864.6 89.3193 1868.02 68.0003C1870.42 53.1329 1869.22 40.5456 1877.92 26.0003C1884.85 36.2532 1885.03 54.6903 1885.87 66.0002C1886.27 71.3513 1886.14 80.9363 1895.55 83.0003L1903.59 62.0002L1918 1.00027L956 0L950 3.05176e-05L-8 -1.00024C-8 16.3111 3.98138 33.235 6.2215 50C6.96874 55.5977 4.355 66.922 14.3533 69C14.3549 55.8462 23.9094 40.6613 30.32 28H33.5134C40.2449 41.2988 46.2835 59.1497 46.2867 73L55.8667 72C56.7928 85.503 58.0956 99.565 60.3916 113C61.241 117.968 59.8552 125.174 68.64 127C72.7578 106.591 78.798 86.439 82.7162 66C84.0894 58.8308 78.9529 48.1178 90.9933 44L101.164 79L106.96 106H110.153C121.728 86.679 112.136 66.095 127.717 47H129.313C153.876 70.576 152.577 102.724 155.464 130C157.435 148.632 164.438 167.147 164.44 186C164.442 199.644 167.03 213.458 169.685 227C170.704 232.197 169.142 238.212 177.213 241C185.679 218.731 180.388 193.613 182.233 171C182.904 162.778 189.417 154.259 191.25 146C194.66 130.636 195.77 114.462 197.833 99C199.394 87.3021 200.402 75.808 201.371 64C201.786 58.9581 199.737 53.8592 207.55 51L226.71 113H229.903L244.273 53H245.87L253.853 88C271.985 80.22 254.133 58.5567 270.05 49.3897C289.341 38.2801 303.286 46.595 308.892 60C318.727 83.515 313.575 109.048 327.3 132C337.008 128.658 334.391 120.039 336.88 114C344.512 95.484 349.332 75.8 355.323 57C356.765 52.4738 356.059 38.3322 363.094 35.9213C374.103 32.1485 375.444 55.7783 376.12 59C381.575 85.029 382.61 110.942 387.52 137C388.958 144.633 389.763 152.424 391.468 159.995C391.863 161.746 393.161 165.565 397.26 165.079C401.186 164.613 401.548 159.866 402.406 158C405.891 150.4 404.325 142.384 407.561 135C413.569 121.285 417.456 104.985 419.672 91C420.32 86.899 417.005 83.05 417.595 79C418.382 73.608 422.447 68.547 422.952 63C423.981 51.6812 419.549 33.78 434.277 25L445.453 82.0001H448.647L461.612 41L471 18H472.597L486.967 70H491.757L507.723 29H510.917L525.287 75C537.088 74.7611 534.95 82.385 536.008 88C538.555 101.521 536.194 115.691 541.253 129H544.447L551.796 101L563.607 45H568.397C570.951 57.6571 577.964 70.485 579.43 83C580.343 90.798 577.857 102.217 587.557 108L594.216 71L603.523 49C624.176 55.1775 626.758 79.391 627.491 92C628.623 111.477 635.671 130.666 638.621 150C641.19 166.838 639.193 184.235 643.007 201C645.286 211.01 645.884 221.004 647.773 231C648.658 235.678 647.35 239.491 654.617 242L657.872 218L659.716 172L671.846 131L678.503 88L681.76 52.0001H683.357L704.113 114H708.903L719.561 69L723.273 54L732.853 90C744.488 80.22 736.799 66.0031 742.983 55.0154C750.784 41.1547 775.146 43.4753 783.447 55.0003C796.31 72.8603 793.206 95.1083 799.275 114C800.332 117.289 800.166 131.343 806.627 132.079C813.413 132.851 815.141 114.304 816.187 111C822.137 92.2123 828.13 73.8203 833.756 55.0003C834.86 51.3085 834.475 37.6652 842.41 36.7704C846.712 36.2852 849.534 41.1351 850.481 43.0011C854.133 50.2003 853.288 58.532 854.877 66.0003C860.172 90.8763 860.377 115.918 865.63 141C866.662 145.926 865.803 163.253 872.554 165.914C879.568 168.679 879.395 160.995 880.218 158.83C883.477 150.252 883.531 141.545 886.686 133C894.578 111.635 896.817 89.3193 900.23 68.0003C902.613 53.1329 901.426 40.5456 910.083 26.0003C916.99 36.2532 917.169 54.6903 918.004 66.0003C918.398 71.3513 921 76.5 926 76.5C931 76.5 933.43 68.0003 937 61C943.442 48.3672 954.771 39 957.5 33C960.229 27 959.745 19.0257 959.745 18.5C959.903 18.9484 960.065 19.3964 960.229 19.8439C963.927 29.9191 968.913 39.8039 970.281 50Z" fill="url(#paint0_linear_303_67)"/>
<defs>
<linearGradient id="paint0_linear_303_67" x1="955" y1="-1.00024" x2="955" y2="242" gradientUnits="userSpaceOnUse">
<stop stop-color="#B3D1FF"/>
<stop offset="1" stop-color="white" stop-opacity="0.67"/>
</linearGradient>
</defs>
</svg>
