<svg width="1918" height="242" viewBox="0 0 1918 242" fill="none" xmlns="http://www.w3.org/2000/svg">
<path d="M939.719 192C938.969 186.402 941.594 175.078 931.554 173C931.552 186.154 921.958 201.338 915.52 214H912.314C905.554 200.701 899.49 182.85 899.487 169L889.867 170C888.937 156.497 887.629 142.435 885.323 129C884.47 124.032 885.862 116.826 877.04 115C872.905 135.409 866.84 155.561 862.905 176C861.527 183.169 866.684 193.882 854.594 198L844.38 163L838.56 136H835.354C823.731 155.321 833.362 175.905 817.717 195H816.114C791.448 171.424 792.753 139.276 789.854 112C787.874 93.3678 780.842 74.8528 780.84 55.9998C780.839 42.3558 778.24 28.5417 775.573 14.9997C774.55 9.80274 776.119 3.78776 768.014 0.999756C759.513 23.2688 764.826 48.3868 762.973 70.9998C762.299 79.2218 755.759 87.7408 753.919 95.9998C750.494 111.364 749.38 127.538 747.308 143C745.74 154.698 744.728 166.192 743.755 178C743.338 183.042 745.396 188.141 737.55 191L718.31 129H715.104L700.674 189H699.07L691.054 154C672.846 161.78 690.773 183.443 674.79 192.61C655.418 203.72 641.415 195.405 635.785 182C625.909 158.485 631.083 132.952 617.3 110C607.552 113.342 610.18 121.961 607.68 128C600.016 146.516 595.176 166.2 589.16 185C587.712 189.526 588.421 203.668 581.357 206.078C570.302 209.851 568.955 186.222 568.277 183C562.798 156.971 561.759 131.058 556.829 105C555.384 97.3667 554.576 89.5758 552.864 82.0048C552.468 80.2537 551.164 76.4348 547.049 76.9208C543.106 77.3868 542.742 82.1338 541.881 83.9998C538.381 91.5998 539.954 99.6158 536.704 107C530.671 120.715 526.768 137.015 524.542 151C523.892 155.101 527.22 158.95 526.628 163C525.838 168.392 521.756 173.453 521.249 179C520.215 190.319 524.666 208.22 509.877 217L498.654 160H495.447L482.428 201L473 224H471.397L456.967 172H452.157L436.123 213H432.917L418.487 167C406.636 167.239 408.783 159.615 407.72 154C405.163 140.479 407.534 126.309 402.453 113H399.247L391.866 141L380.007 197H375.197C372.631 184.343 365.59 171.515 364.118 159C363.201 151.202 365.697 139.783 355.957 134L349.269 171L339.923 193C319.184 186.822 316.592 162.609 315.856 150C314.719 130.523 307.642 111.334 304.679 91.9998C302.099 75.1618 304.105 57.7648 300.275 40.9998C297.987 30.9898 297.385 20.9958 295.489 10.9998C294.6 6.3218 295.913 2.50874 288.617 -0.000259399L285.347 23.9998L283.496 69.9997L271.315 111L264.631 154L261.36 190H259.757L238.913 128H234.103L223.401 173L219.673 188L210.053 152C198.37 161.78 206.092 175.997 199.882 186.984C192.048 200.845 167.584 198.525 159.249 187C146.332 169.14 149.449 146.891 143.355 128C142.293 124.711 142.46 110.656 135.971 109.92C129.157 109.149 127.422 127.695 126.372 131C120.396 149.788 114.379 168.18 108.729 187C107.621 190.691 108.008 204.335 100.039 205.229C95.7197 205.715 92.8851 200.865 91.9343 198.999C88.2675 191.8 89.1156 183.468 87.5203 176C82.2036 151.124 81.9965 126.081 76.7216 101C75.6858 96.0735 76.5484 78.7465 69.7697 76.0855C62.7262 73.3205 62.8993 81.0045 62.0736 83.1695C58.8012 91.7475 58.7467 100.454 55.5785 108.999C47.6532 130.364 45.4055 152.68 41.9775 173.999C39.5854 188.867 40.7768 201.454 32.0835 216C25.1475 205.747 24.9675 187.309 24.1289 176C23.7332 170.649 23.8584 161.063 14.4468 158.999L6.41064 180L-8 240.999L954 242L960 242L1918 243C1918 225.689 1906.02 208.765 1903.78 192C1903.03 186.402 1905.65 175.078 1895.65 173C1895.65 186.154 1886.09 201.338 1879.68 214H1876.49C1869.76 200.701 1863.72 182.85 1863.71 169L1854.13 170C1853.21 156.497 1851.9 142.435 1849.61 129C1848.76 124.032 1850.15 116.826 1841.36 115C1837.24 135.409 1831.2 155.561 1827.28 176C1825.91 183.169 1831.05 193.882 1819.01 198L1808.84 163L1803.04 136H1799.85C1788.27 155.321 1797.86 175.905 1782.28 195H1780.69C1756.12 171.424 1757.42 139.276 1754.54 112C1752.57 93.3677 1745.56 74.8528 1745.56 55.9998C1745.56 42.3558 1742.97 28.5417 1740.32 14.9997C1739.3 9.80271 1740.86 3.78773 1732.79 0.999725C1724.32 23.2687 1729.61 48.3867 1727.77 70.9998C1727.1 79.2218 1720.58 87.7408 1718.75 95.9998C1715.34 111.364 1714.23 127.538 1712.17 143C1710.61 154.698 1709.6 166.192 1708.63 178C1708.21 183.042 1710.26 188.141 1702.45 191L1683.29 129H1680.1L1665.73 189H1664.13L1656.15 154C1638.02 161.78 1655.87 183.443 1639.95 192.61C1620.66 203.72 1606.71 195.405 1601.11 182C1591.27 158.485 1596.43 132.952 1582.7 110C1572.99 113.342 1575.61 121.961 1573.12 128C1565.49 146.516 1560.67 166.2 1554.68 185C1553.24 189.526 1553.94 203.668 1546.91 206.078C1535.9 209.851 1534.56 186.221 1533.88 183C1528.43 156.971 1527.39 131.058 1522.48 105C1521.04 97.3667 1520.24 89.5757 1518.53 82.0047C1518.14 80.2537 1516.84 76.4348 1512.74 76.9207C1508.81 77.3868 1508.45 82.1337 1507.59 83.9997C1504.11 91.5997 1505.68 99.6157 1502.44 107C1496.43 120.715 1492.54 137.015 1490.33 151C1489.68 155.101 1492.99 158.95 1492.41 163C1491.62 168.392 1487.55 173.453 1487.05 179C1486.02 190.319 1490.45 208.22 1475.72 217L1464.55 160H1461.35L1448.39 201L1439 224H1437.4L1423.03 172H1418.24L1402.28 213H1399.08L1384.71 167C1372.91 167.239 1375.05 159.615 1373.99 154C1371.45 140.479 1373.81 126.309 1368.75 113H1365.55L1358.2 141L1346.39 197H1341.6C1339.05 184.343 1332.04 171.515 1330.57 159C1329.66 151.202 1332.14 139.783 1322.44 134L1315.78 171L1306.48 193C1285.82 186.822 1283.24 162.609 1282.51 150C1281.38 130.523 1274.33 111.334 1271.38 91.9998C1268.81 75.1617 1270.81 57.7648 1266.99 40.9998C1264.71 30.9898 1264.12 20.9958 1262.23 10.9998C1261.34 6.32177 1262.65 2.50871 1255.38 -0.000289917L1252.13 23.9997L1250.28 69.9997L1238.15 111L1231.5 154L1228.24 190H1226.64L1205.89 128H1201.1L1190.44 173L1186.73 188L1177.15 152C1165.51 161.78 1173.2 175.997 1167.02 186.984C1159.22 200.845 1134.85 198.524 1126.55 186.999C1113.69 169.139 1116.79 146.891 1110.73 127.999C1109.67 124.71 1109.83 110.656 1103.37 109.92C1096.59 109.148 1094.86 127.695 1093.81 130.999C1087.86 149.787 1081.87 168.179 1076.24 186.999C1075.14 190.691 1075.53 204.335 1067.59 205.229C1063.29 205.715 1060.47 200.865 1059.52 198.999C1055.87 191.799 1056.71 183.468 1055.12 175.999C1049.83 151.123 1049.62 126.081 1044.37 100.999C1043.34 96.0735 1044.2 78.7465 1037.45 76.0855C1030.43 73.3205 1030.61 81.0045 1029.78 83.1695C1026.52 91.7475 1026.47 100.454 1023.31 108.999C1015.42 130.364 1013.18 152.68 1009.77 173.999C1007.39 188.867 1008.57 201.454 999.917 215.999C993.01 205.747 992.831 187.309 991.996 175.999C991.602 170.648 989 165.5 984 165.5C979 165.5 976.57 173.999 973 181C966.559 193.633 955.23 203 952.5 209C949.771 215 950.256 222.974 950.256 223.5C950.097 223.051 949.935 222.603 949.771 222.156C946.074 212.081 941.088 202.196 939.719 192Z" fill="url(#paint0_linear_304_77)"/>
<defs>
<linearGradient id="paint0_linear_304_77" x1="955" y1="243" x2="955" y2="-0.000289917" gradientUnits="userSpaceOnUse">
<stop stop-color="#B3D1FF"/>
<stop offset="1" stop-color="white" stop-opacity="0.67"/>
</linearGradient>
</defs>
</svg>
