<svg width="388" height="552" viewBox="0 0 388 552" fill="none" xmlns="http://www.w3.org/2000/svg">
<rect x="2" y="2" width="364" height="548" rx="23" fill="#3F200A" stroke="#A06F35" stroke-width="4"/>
<rect x="23.5" y="2.5" width="362" height="547" rx="22.5" fill="#5F3313" stroke="#A06F35" stroke-width="5"/>
<mask id="path-3-inside-1_296_63" fill="white">
<path d="M186.408 236.485C186.482 236.304 189.013 231.778 192.033 226.427L197.522 216.697L212.318 216.63C221.935 216.585 227.115 216.47 227.115 216.299C227.115 216.155 223.858 210.219 219.878 203.108C215.898 195.997 212.642 190.075 212.642 189.948C212.642 189.718 224.097 170.317 224.436 169.974C224.573 169.835 262.459 235.513 262.857 236.579C262.908 236.716 246.987 236.813 224.609 236.813C194.043 236.813 186.3 236.747 186.408 236.485Z"/>
<path d="M252.91 258.836C252.477 258.076 249.825 253.491 247.015 248.646L241.907 239.837L254.925 239.769C262.372 239.73 267.906 239.601 267.856 239.467C267.808 239.339 258.061 222.421 246.196 201.873C229.626 173.175 224.553 164.587 224.321 164.835C224.155 165.013 221.203 169.892 217.763 175.677C214.322 181.462 211.369 186.398 211.201 186.646C210.941 187.03 210.032 185.609 205.146 177.18C201.985 171.725 199.402 167.144 199.406 166.999C199.415 166.696 224.512 122.889 224.609 123.007C224.644 123.051 226.482 126.222 228.693 130.055C230.904 133.887 239.937 149.506 248.766 164.764C257.595 180.022 273.343 207.238 283.76 225.243C294.178 243.249 302.993 258.484 303.351 259.099L304 260.216H278.848H253.696L252.91 258.836Z"/>
<path d="M146.332 260.089C146.332 259.981 183.908 193.691 184.086 193.486C184.156 193.405 195.735 212.932 195.953 213.5C196.032 213.704 192.832 219.628 188.844 226.665C184.856 233.701 181.592 239.514 181.592 239.582C181.592 239.65 188.371 239.707 196.657 239.709L211.721 239.712L216.529 248.321C219.173 253.055 221.756 257.669 222.267 258.573L223.198 260.216H184.765C163.627 260.216 146.332 260.159 146.332 260.089Z"/>
<path d="M105.285 236.283C105.535 235.816 123.845 204.082 170.87 122.615C170.87 122.615 184.137 99.8863 184.251 100.001C184.494 100.245 208.889 141.749 209.279 142.582C209.505 143.064 208.696 144.608 203.699 153.232C200.485 158.779 197.684 163.502 197.684 163.502C197.589 163.604 194.545 158.767 190.92 152.755C187.294 146.743 184.246 141.809 184.147 141.79C184.047 141.771 174.252 158.559 162.381 179.095L140.795 216.435L153.958 216.503C161.197 216.54 167.116 216.659 167.112 216.766C167.108 216.873 164.579 221.398 161.494 226.821L155.883 236.682L130.442 236.749L105 236.816L105.285 236.283Z"/>
<path d="M105.097 283.29C105.171 283.11 110.742 273.259 117.477 261.399L129.723 239.837L141.712 239.769C148.305 239.731 153.7 239.745 153.7 239.799C153.7 239.853 150.922 245.09 147.526 251.437L141.352 262.977L184.408 263.044C208.089 263.08 227.515 263.06 227.577 262.998C227.639 262.935 224.836 257.699 221.348 251.361L215.007 239.837L226.505 239.769C232.829 239.731 238.092 239.79 238.2 239.9C238.419 240.122 263.69 283.37 263.69 283.523C263.69 283.576 227.977 283.619 184.327 283.619C120.94 283.619 104.991 283.553 105.097 283.29Z"/>
<path d="M145.493 213.673C152.986 200.743 183.827 147.659 184.149 147.129L203.395 180.263C213.981 198.487 222.641 213.459 222.641 213.535C222.641 213.611 217.399 213.674 210.991 213.674H199.341L191.739 200.894L184.137 188.115L183.588 189.025C183.286 189.525 179.902 195.271 176.066 201.793L169.093 213.652L157.293 213.663L145.493 213.673Z"/>
</mask>
<path d="M186.408 236.485C186.482 236.304 189.013 231.778 192.033 226.427L197.522 216.697L212.318 216.63C221.935 216.585 227.115 216.47 227.115 216.299C227.115 216.155 223.858 210.219 219.878 203.108C215.898 195.997 212.642 190.075 212.642 189.948C212.642 189.718 224.097 170.317 224.436 169.974C224.573 169.835 262.459 235.513 262.857 236.579C262.908 236.716 246.987 236.813 224.609 236.813C194.043 236.813 186.3 236.747 186.408 236.485Z" fill="#3F200A"/>
<path d="M252.91 258.836C252.477 258.076 249.825 253.491 247.015 248.646L241.907 239.837L254.925 239.769C262.372 239.73 267.906 239.601 267.856 239.467C267.808 239.339 258.061 222.421 246.196 201.873C229.626 173.175 224.553 164.587 224.321 164.835C224.155 165.013 221.203 169.892 217.763 175.677C214.322 181.462 211.369 186.398 211.201 186.646C210.941 187.03 210.032 185.609 205.146 177.18C201.985 171.725 199.402 167.144 199.406 166.999C199.415 166.696 224.512 122.889 224.609 123.007C224.644 123.051 226.482 126.222 228.693 130.055C230.904 133.887 239.937 149.506 248.766 164.764C257.595 180.022 273.343 207.238 283.76 225.243C294.178 243.249 302.993 258.484 303.351 259.099L304 260.216H278.848H253.696L252.91 258.836Z" fill="#3F200A"/>
<path d="M146.332 260.089C146.332 259.981 183.908 193.691 184.086 193.486C184.156 193.405 195.735 212.932 195.953 213.5C196.032 213.704 192.832 219.628 188.844 226.665C184.856 233.701 181.592 239.514 181.592 239.582C181.592 239.65 188.371 239.707 196.657 239.709L211.721 239.712L216.529 248.321C219.173 253.055 221.756 257.669 222.267 258.573L223.198 260.216H184.765C163.627 260.216 146.332 260.159 146.332 260.089Z" fill="#3F200A"/>
<path d="M105.285 236.283C105.535 235.816 123.845 204.082 170.87 122.615C170.87 122.615 184.137 99.8863 184.251 100.001C184.494 100.245 208.889 141.749 209.279 142.582C209.505 143.064 208.696 144.608 203.699 153.232C200.485 158.779 197.684 163.502 197.684 163.502C197.589 163.604 194.545 158.767 190.92 152.755C187.294 146.743 184.246 141.809 184.147 141.79C184.047 141.771 174.252 158.559 162.381 179.095L140.795 216.435L153.958 216.503C161.197 216.54 167.116 216.659 167.112 216.766C167.108 216.873 164.579 221.398 161.494 226.821L155.883 236.682L130.442 236.749L105 236.816L105.285 236.283Z" fill="#3F200A"/>
<path d="M105.097 283.29C105.171 283.11 110.742 273.259 117.477 261.399L129.723 239.837L141.712 239.769C148.305 239.731 153.7 239.745 153.7 239.799C153.7 239.853 150.922 245.09 147.526 251.437L141.352 262.977L184.408 263.044C208.089 263.08 227.515 263.06 227.577 262.998C227.639 262.935 224.836 257.699 221.348 251.361L215.007 239.837L226.505 239.769C232.829 239.731 238.092 239.79 238.2 239.9C238.419 240.122 263.69 283.37 263.69 283.523C263.69 283.576 227.977 283.619 184.327 283.619C120.94 283.619 104.991 283.553 105.097 283.29Z" fill="#3F200A"/>
<path d="M145.493 213.673C152.986 200.743 183.827 147.659 184.149 147.129L203.395 180.263C213.981 198.487 222.641 213.459 222.641 213.535C222.641 213.611 217.399 213.674 210.991 213.674H199.341L191.739 200.894L184.137 188.115L183.588 189.025C183.286 189.525 179.902 195.271 176.066 201.793L169.093 213.652L157.293 213.663L145.493 213.673Z" fill="#3F200A"/>
<path d="M186.408 236.485C186.482 236.304 189.013 231.778 192.033 226.427L197.522 216.697L212.318 216.63C221.935 216.585 227.115 216.47 227.115 216.299C227.115 216.155 223.858 210.219 219.878 203.108C215.898 195.997 212.642 190.075 212.642 189.948C212.642 189.718 224.097 170.317 224.436 169.974C224.573 169.835 262.459 235.513 262.857 236.579C262.908 236.716 246.987 236.813 224.609 236.813C194.043 236.813 186.3 236.747 186.408 236.485Z" stroke="#A16F35" stroke-width="6" mask="url(#path-3-inside-1_296_63)"/>
<path d="M252.91 258.836C252.477 258.076 249.825 253.491 247.015 248.646L241.907 239.837L254.925 239.769C262.372 239.73 267.906 239.601 267.856 239.467C267.808 239.339 258.061 222.421 246.196 201.873C229.626 173.175 224.553 164.587 224.321 164.835C224.155 165.013 221.203 169.892 217.763 175.677C214.322 181.462 211.369 186.398 211.201 186.646C210.941 187.03 210.032 185.609 205.146 177.18C201.985 171.725 199.402 167.144 199.406 166.999C199.415 166.696 224.512 122.889 224.609 123.007C224.644 123.051 226.482 126.222 228.693 130.055C230.904 133.887 239.937 149.506 248.766 164.764C257.595 180.022 273.343 207.238 283.76 225.243C294.178 243.249 302.993 258.484 303.351 259.099L304 260.216H278.848H253.696L252.91 258.836Z" stroke="#A16F35" stroke-width="6" mask="url(#path-3-inside-1_296_63)"/>
<path d="M146.332 260.089C146.332 259.981 183.908 193.691 184.086 193.486C184.156 193.405 195.735 212.932 195.953 213.5C196.032 213.704 192.832 219.628 188.844 226.665C184.856 233.701 181.592 239.514 181.592 239.582C181.592 239.65 188.371 239.707 196.657 239.709L211.721 239.712L216.529 248.321C219.173 253.055 221.756 257.669 222.267 258.573L223.198 260.216H184.765C163.627 260.216 146.332 260.159 146.332 260.089Z" stroke="#A16F35" stroke-width="6" mask="url(#path-3-inside-1_296_63)"/>
<path d="M105.285 236.283C105.535 235.816 123.845 204.082 170.87 122.615C170.87 122.615 184.137 99.8863 184.251 100.001C184.494 100.245 208.889 141.749 209.279 142.582C209.505 143.064 208.696 144.608 203.699 153.232C200.485 158.779 197.684 163.502 197.684 163.502C197.589 163.604 194.545 158.767 190.92 152.755C187.294 146.743 184.246 141.809 184.147 141.79C184.047 141.771 174.252 158.559 162.381 179.095L140.795 216.435L153.958 216.503C161.197 216.54 167.116 216.659 167.112 216.766C167.108 216.873 164.579 221.398 161.494 226.821L155.883 236.682L130.442 236.749L105 236.816L105.285 236.283Z" stroke="#A16F35" stroke-width="6" mask="url(#path-3-inside-1_296_63)"/>
<path d="M105.097 283.29C105.171 283.11 110.742 273.259 117.477 261.399L129.723 239.837L141.712 239.769C148.305 239.731 153.7 239.745 153.7 239.799C153.7 239.853 150.922 245.09 147.526 251.437L141.352 262.977L184.408 263.044C208.089 263.08 227.515 263.06 227.577 262.998C227.639 262.935 224.836 257.699 221.348 251.361L215.007 239.837L226.505 239.769C232.829 239.731 238.092 239.79 238.2 239.9C238.419 240.122 263.69 283.37 263.69 283.523C263.69 283.576 227.977 283.619 184.327 283.619C120.94 283.619 104.991 283.553 105.097 283.29Z" stroke="#A16F35" stroke-width="6" mask="url(#path-3-inside-1_296_63)"/>
<path d="M145.493 213.673C152.986 200.743 183.827 147.659 184.149 147.129L203.395 180.263C213.981 198.487 222.641 213.459 222.641 213.535C222.641 213.611 217.399 213.674 210.991 213.674H199.341L191.739 200.894L184.137 188.115L183.588 189.025C183.286 189.525 179.902 195.271 176.066 201.793L169.093 213.652L157.293 213.663L145.493 213.673Z" stroke="#A16F35" stroke-width="6" mask="url(#path-3-inside-1_296_63)"/>
</svg>
