<svg width="128" height="128" viewBox="0 0 128 128" fill="none" xmlns="http://www.w3.org/2000/svg">
<g clip-path="url(#clip0_393_241)">
<mask id="path-1-outside-1_393_241" maskUnits="userSpaceOnUse" x="-1" y="23" width="130" height="81" fill="black">
<rect fill="white" x="-1" y="23" width="130" height="81"/>
<path fill-rule="evenodd" clip-rule="evenodd" d="M74.9249 87.4717C78.2416 89.1921 80.8435 90.7031 84.9197 91.9551C87.1014 92.6248 91.8398 93.5851 94.6263 93.9221C102.761 94.9045 110.983 94.5859 119.204 92.9684C122.209 92.3775 124.58 91.7454 124.734 91.4956C124.793 91.4009 124.735 90.877 124.606 90.3315C123.798 86.9208 120.04 84.342 112.593 82.0865C109.596 81.1791 109.185 81.0644 104.818 79.918C96.8176 77.8173 93.8558 76.673 92.3274 75.092C92.1072 74.864 91.5997 73.9352 91.2005 73.0279C90.2422 70.8505 88.881 68.7387 86.3803 65.5512C83.1158 61.3897 82.654 60.5928 82.4102 58.7011C82.1273 56.5059 80.9459 52.3986 78.5314 47.0942L77.7182 45.3077L78.9483 39.604L80.2749 33.3477L79.6657 32.5628C77.9635 30.3721 75.3663 28.8858 72.9889 28.742C70.8124 28.6105 69.3337 29.0344 66.1209 30.7106C62.8579 32.4132 59.311 32.6857 55.3717 31.5363C53.3411 30.9439 51.6044 30.1695 49.9868 29.1352L48.7387 28.3372C48.7387 28.3372 47.0685 27.0441 46.3494 26.4443C43.9011 24.4026 38.1397 25.1235 38.1397 25.1235C37.8466 25.8073 37.3203 27.1043 37.0262 30.0701C36.0308 40.1069 35.7242 41.8419 33.5278 48.6281C31.5207 54.8295 31.1975 55.9646 30.4911 59.2914C30.0371 61.4301 29.7807 63.1671 29.7228 64.6153C29.7181 64.7336 29.7147 64.85 29.7127 64.9646C29.6806 66.7373 29.9663 68.0628 30.5717 69.1697C31.3731 70.6351 32.3836 70.9152 36.2915 70.755C40.7267 70.5731 42.9815 70.7809 46.9992 71.7424C53.5198 73.3026 59.3568 76.1792 67.4696 81.8305C71.0136 84.2992 72.3228 85.6792 74.9249 87.4717Z"/>
<path d="M62.0388 88.0675C71.4113 93.0089 76.8535 96.728 85.9075 99.3889C87.6134 99.89 96.1046 101.496 97.9121 101.66C107.782 102.552 116.086 101.703 124.365 98.9577L126.139 98.3697L126.45 97.6338C126.924 96.5109 127.124 94.9413 126.921 93.9125C126.828 93.4364 126.709 93.0376 126.658 93.0265C126.607 93.0155 125.878 93.2134 125.039 93.4658C122.281 94.2952 116.396 95.5086 114.151 95.7103C113.89 95.7338 112.737 95.8545 111.589 95.9789C106.593 96.519 100.86 96.4881 95.2885 95.8913C92.4011 95.5822 86.0806 94.2922 83.5792 93.5019C77.4656 91.5702 72.5732 87.6648 67.4819 84.0792C61.7757 80.0605 58.2412 77.9796 53.6818 75.9545C50.5218 74.551 49.1654 74.1183 45.5265 73.3556C41.7809 72.5702 40.153 72.4444 36.2646 72.6403C34.1675 72.7461 33.7384 72.7242 32.3528 72.4354C30.902 72.1338 30.7554 72.0761 30.1922 71.5852C29.8599 71.2957 29.5643 71.0537 29.5353 71.0476C29.5062 71.0414 28.9995 73.3137 28.4091 76.0972L28.4529 77.2118C29.4947 77.6943 31.7536 78.5728 34.2202 79.4549C37.1512 80.5028 45.7782 82.5868 48.1336 82.8156C48.1336 82.8156 50.4806 83.2714 52.5184 83.9384C54.5561 84.6055 55.5141 84.6276 62.0388 88.0675Z"/>
<path d="M29.5353 71.0476C29.5643 71.0537 29.8599 71.2957 30.1922 71.5852C30.7554 72.0761 30.902 72.1338 32.3528 72.4354C33.7384 72.7242 34.1675 72.7461 36.2646 72.6403C40.153 72.4444 41.7809 72.5702 45.5265 73.3556C49.1654 74.1183 50.5218 74.551 53.6818 75.9545C58.2412 77.9796 61.7757 80.0605 67.4819 84.0792C72.5732 87.6648 77.4656 91.5702 83.5792 93.5019C86.0806 94.2922 92.4011 95.5822 95.2885 95.8913C100.86 96.4881 106.593 96.519 111.589 95.9789C112.737 95.8545 113.89 95.7338 114.151 95.7103C116.396 95.5086 122.281 94.2952 125.039 93.4658C125.878 93.2134 126.607 93.0155 126.658 93.0265C126.092 92.1523 124.889 90.3897 124.606 90.3315C124.735 90.877 124.793 91.4009 124.734 91.4956C124.58 91.7454 122.209 92.3775 119.204 92.9684C110.983 94.5859 102.761 94.9045 94.6263 93.9221C91.8398 93.5851 87.1014 92.6248 84.9197 91.9551C80.8435 90.7031 78.2416 89.1921 74.9249 87.4717C72.3228 85.6792 71.0136 84.2992 67.4696 81.8305C59.3568 76.1792 53.5198 73.3026 46.9992 71.7424C42.9815 70.7809 40.7267 70.5731 36.2915 70.755C32.3836 70.9152 31.3731 70.6351 30.5717 69.1697C29.9663 68.0628 29.6806 66.7373 29.7127 64.9646L29.5353 71.0476Z"/>
<path d="M1.85224 98.5927C0.847363 99.2461 0.71676 100.279 1.53696 101.087C2.03087 101.573 3.70736 101.633 14.3895 101.548C27.2817 101.446 27.5546 101.41 27.5548 99.8466C27.555 98.0157 27.7336 98.0415 14.7991 98.0327C4.34579 98.026 2.60783 98.1011 1.85224 98.5927Z"/>
<path d="M35.0055 98.6722C34.332 99.5765 34.3421 100.128 35.0449 100.82C35.4938 101.262 36.4702 101.372 39.7025 101.346C44.1501 101.311 44.6677 101.112 44.6807 99.4323C44.6917 98.0047 43.4541 97.6478 39.1092 97.8252C36.0673 97.9495 35.4487 98.0776 35.0055 98.6722Z"/>
<path d="M1.50447 87.7316C0.938421 88.2894 0.92872 89.5504 1.48626 90.0993C2.11024 90.7136 33.4866 90.4639 34.1201 89.8397C34.3623 89.601 34.563 89.0667 34.5663 88.6523C34.5694 88.2379 34.3769 87.7068 34.1383 87.4719C33.5144 86.8576 2.13799 87.1073 1.50447 87.7316Z"/>
<path d="M1.3663 77.3259C1.11515 78.0176 1.14815 78.4525 1.48197 78.8496C1.86352 79.3036 2.86214 79.3982 6.9307 79.3658C12.1789 79.324 12.7877 79.1488 12.7991 77.677C12.8101 76.2411 12.0998 76.0694 6.75933 76.2179L1.71781 76.3581L1.3663 77.3259Z"/>
<path d="M17.3398 76.9271C16.8829 77.6097 16.8407 77.9686 17.1497 78.543C17.4988 79.1919 17.8891 79.2786 20.375 79.2588C23.3592 79.2351 24.0796 78.9163 24.0896 77.615C24.0995 76.3323 23.3779 76.0063 20.5775 76.0286C18.1718 76.0478 17.8729 76.1308 17.3398 76.9271Z"/>
<path d="M1.80998 65.6211C0.995864 66.4234 1.08575 67.4384 2.02814 68.0845C2.96727 68.7284 7.75668 68.8209 8.88971 68.217C9.84394 67.7084 9.85808 65.8657 8.91159 65.3723C7.7529 64.7682 2.48826 64.9527 1.80998 65.6211Z"/>
</mask>
<path fill-rule="evenodd" clip-rule="evenodd" d="M74.9249 87.4717C78.2416 89.1921 80.8435 90.7031 84.9197 91.9551C87.1014 92.6248 91.8398 93.5851 94.6263 93.9221C102.761 94.9045 110.983 94.5859 119.204 92.9684C122.209 92.3775 124.58 91.7454 124.734 91.4956C124.793 91.4009 124.735 90.877 124.606 90.3315C123.798 86.9208 120.04 84.342 112.593 82.0865C109.596 81.1791 109.185 81.0644 104.818 79.918C96.8176 77.8173 93.8558 76.673 92.3274 75.092C92.1072 74.864 91.5997 73.9352 91.2005 73.0279C90.2422 70.8505 88.881 68.7387 86.3803 65.5512C83.1158 61.3897 82.654 60.5928 82.4102 58.7011C82.1273 56.5059 80.9459 52.3986 78.5314 47.0942L77.7182 45.3077L78.9483 39.604L80.2749 33.3477L79.6657 32.5628C77.9635 30.3721 75.3663 28.8858 72.9889 28.742C70.8124 28.6105 69.3337 29.0344 66.1209 30.7106C62.8579 32.4132 59.311 32.6857 55.3717 31.5363C53.3411 30.9439 51.6044 30.1695 49.9868 29.1352L48.7387 28.3372C48.7387 28.3372 47.0685 27.0441 46.3494 26.4443C43.9011 24.4026 38.1397 25.1235 38.1397 25.1235C37.8466 25.8073 37.3203 27.1043 37.0262 30.0701C36.0308 40.1069 35.7242 41.8419 33.5278 48.6281C31.5207 54.8295 31.1975 55.9646 30.4911 59.2914C30.0371 61.4301 29.7807 63.1671 29.7228 64.6153C29.7181 64.7336 29.7147 64.85 29.7127 64.9646C29.6806 66.7373 29.9663 68.0628 30.5717 69.1697C31.3731 70.6351 32.3836 70.9152 36.2915 70.755C40.7267 70.5731 42.9815 70.7809 46.9992 71.7424C53.5198 73.3026 59.3568 76.1792 67.4696 81.8305C71.0136 84.2992 72.3228 85.6792 74.9249 87.4717Z" fill="#6A4A34"/>
<path d="M62.0388 88.0675C71.4113 93.0089 76.8535 96.728 85.9075 99.3889C87.6134 99.89 96.1046 101.496 97.9121 101.66C107.782 102.552 116.086 101.703 124.365 98.9577L126.139 98.3697L126.45 97.6338C126.924 96.5109 127.124 94.9413 126.921 93.9125C126.828 93.4364 126.709 93.0376 126.658 93.0265C126.607 93.0155 125.878 93.2134 125.039 93.4658C122.281 94.2952 116.396 95.5086 114.151 95.7103C113.89 95.7338 112.737 95.8545 111.589 95.9789C106.593 96.519 100.86 96.4881 95.2885 95.8913C92.4011 95.5822 86.0806 94.2922 83.5792 93.5019C77.4656 91.5702 72.5732 87.6648 67.4819 84.0792C61.7757 80.0605 58.2412 77.9796 53.6818 75.9545C50.5218 74.551 49.1654 74.1183 45.5265 73.3556C41.7809 72.5702 40.153 72.4444 36.2646 72.6403C34.1675 72.7461 33.7384 72.7242 32.3528 72.4354C30.902 72.1338 30.7554 72.0761 30.1922 71.5852C29.8599 71.2957 29.5643 71.0537 29.5353 71.0476C29.5062 71.0414 28.9995 73.3137 28.4091 76.0972L28.4529 77.2118C29.4947 77.6943 31.7536 78.5728 34.2202 79.4549C37.1512 80.5028 45.7782 82.5868 48.1336 82.8156C48.1336 82.8156 50.4806 83.2714 52.5184 83.9384C54.5561 84.6055 55.5141 84.6276 62.0388 88.0675Z" fill="#5E402B"/>
<path d="M29.5353 71.0476C29.5643 71.0537 29.8599 71.2957 30.1922 71.5852C30.7554 72.0761 30.902 72.1338 32.3528 72.4354C33.7384 72.7242 34.1675 72.7461 36.2646 72.6403C40.153 72.4444 41.7809 72.5702 45.5265 73.3556C49.1654 74.1183 50.5218 74.551 53.6818 75.9545C58.2412 77.9796 61.7757 80.0605 67.4819 84.0792C72.5732 87.6648 77.4656 91.5702 83.5792 93.5019C86.0806 94.2922 92.4011 95.5822 95.2885 95.8913C100.86 96.4881 106.593 96.519 111.589 95.9789C112.737 95.8545 113.89 95.7338 114.151 95.7103C116.396 95.5086 122.281 94.2952 125.039 93.4658C125.878 93.2134 126.607 93.0155 126.658 93.0265C126.092 92.1523 124.889 90.3897 124.606 90.3315C124.735 90.877 124.793 91.4009 124.734 91.4956C124.58 91.7454 122.209 92.3775 119.204 92.9684C110.983 94.5859 102.761 94.9045 94.6263 93.9221C91.8398 93.5851 87.1014 92.6248 84.9197 91.9551C80.8435 90.7031 78.2416 89.1921 74.9249 87.4717C72.3228 85.6792 71.0136 84.2992 67.4696 81.8305C59.3568 76.1792 53.5198 73.3026 46.9992 71.7424C42.9815 70.7809 40.7267 70.5731 36.2915 70.755C32.3836 70.9152 31.3731 70.6351 30.5717 69.1697C29.9663 68.0628 29.6806 66.7373 29.7127 64.9646L29.5353 71.0476Z" fill="black"/>
<path d="M1.85224 98.5927C0.847363 99.2461 0.71676 100.279 1.53696 101.087C2.03087 101.573 3.70736 101.633 14.3895 101.548C27.2817 101.446 27.5546 101.41 27.5548 99.8466C27.555 98.0157 27.7336 98.0415 14.7991 98.0327C4.34579 98.026 2.60783 98.1011 1.85224 98.5927Z" fill="#FFC997"/>
<path d="M35.0055 98.6722C34.332 99.5765 34.3421 100.128 35.0449 100.82C35.4938 101.262 36.4702 101.372 39.7025 101.346C44.1501 101.311 44.6677 101.112 44.6807 99.4323C44.6917 98.0047 43.4541 97.6478 39.1092 97.8252C36.0673 97.9495 35.4487 98.0776 35.0055 98.6722Z" fill="#FFC997"/>
<path d="M1.50447 87.7316C0.938421 88.2894 0.92872 89.5504 1.48626 90.0993C2.11024 90.7136 33.4866 90.4639 34.1201 89.8397C34.3623 89.601 34.563 89.0667 34.5663 88.6523C34.5694 88.2379 34.3769 87.7068 34.1383 87.4719C33.5144 86.8576 2.13799 87.1073 1.50447 87.7316Z" fill="#FFC997"/>
<path d="M1.3663 77.3259C1.11515 78.0176 1.14815 78.4525 1.48197 78.8496C1.86352 79.3036 2.86214 79.3982 6.9307 79.3658C12.1789 79.324 12.7877 79.1488 12.7991 77.677C12.8101 76.2411 12.0998 76.0694 6.75933 76.2179L1.71781 76.3581L1.3663 77.3259Z" fill="#FFC997"/>
<path d="M17.3398 76.9271C16.8829 77.6097 16.8407 77.9686 17.1497 78.543C17.4988 79.1919 17.8891 79.2786 20.375 79.2588C23.3592 79.2351 24.0796 78.9163 24.0896 77.615C24.0995 76.3323 23.3779 76.0063 20.5775 76.0286C18.1718 76.0478 17.8729 76.1308 17.3398 76.9271Z" fill="#FFC997"/>
<path d="M1.80998 65.6211C0.995864 66.4234 1.08575 67.4384 2.02814 68.0845C2.96727 68.7284 7.75668 68.8209 8.88971 68.217C9.84394 67.7084 9.85808 65.8657 8.91159 65.3723C7.7529 64.7682 2.48826 64.9527 1.80998 65.6211Z" fill="#FFC997"/>
<path d="M74.9249 87.4717L74.4994 88.0893L74.538 88.1159L74.5795 88.1375L74.9249 87.4717ZM84.9197 91.9551L84.6995 92.6721L84.6996 92.6721L84.9197 91.9551ZM94.6263 93.9221L94.5362 94.6667L94.5363 94.6667L94.6263 93.9221ZM119.204 92.9684L119.06 92.2325L119.059 92.2325L119.204 92.9684ZM124.734 91.4956L124.098 91.0991L124.096 91.1021L124.734 91.4956ZM30.5717 69.1697L31.2298 68.8099L31.2297 68.8099L30.5717 69.1697ZM36.2915 70.755L36.3222 71.5043H36.3223L36.2915 70.755ZM46.9992 71.7424L46.8247 72.4718H46.8247L46.9992 71.7424ZM67.4696 81.8305L67.8983 81.2151V81.2151L67.4696 81.8305ZM125.039 93.4658L124.823 92.7476L124.823 92.7476L125.039 93.4658ZM114.151 95.7103L114.084 94.9633L114.083 94.9633L114.151 95.7103ZM111.589 95.9789L111.669 96.7245L111.67 96.7245L111.589 95.9789ZM95.2885 95.8913L95.3683 95.1455L95.3683 95.1455L95.2885 95.8913ZM83.5792 93.5019L83.3532 94.2171L83.3532 94.2171L83.5792 93.5019ZM67.4819 84.0792L67.05 84.6924L67.05 84.6924L67.4819 84.0792ZM53.6818 75.9545L53.9863 75.2691L53.9862 75.2691L53.6818 75.9545ZM45.5265 73.3556L45.3726 74.0896L45.3726 74.0896L45.5265 73.3556ZM36.2646 72.6403L36.2269 71.8913H36.2268L36.2646 72.6403ZM32.3528 72.4354L32.5058 71.7012L32.5055 71.7011L32.3528 72.4354ZM30.1922 71.5852L30.685 71.0198L30.6849 71.0198L30.1922 71.5852ZM74.5795 88.1375C77.8712 89.8448 80.5431 91.3954 84.6995 92.6721L85.1399 91.2382C81.1439 90.0108 78.6121 88.5394 75.2702 86.8059L74.5795 88.1375ZM84.6996 92.6721C86.9321 93.3573 91.7153 94.3255 94.5362 94.6667L94.7163 93.1775C91.9643 92.8447 87.2707 91.8922 85.1398 91.2381L84.6996 92.6721ZM94.5363 94.6667C102.751 95.6587 111.052 95.3366 119.349 93.7043L119.059 92.2325C110.913 93.8351 102.771 94.1502 94.7162 93.1775L94.5363 94.6667ZM119.349 93.7043C120.862 93.4067 122.223 93.0974 123.232 92.8288C123.734 92.695 124.161 92.5681 124.48 92.4545C124.637 92.3984 124.785 92.3395 124.909 92.2783C124.97 92.2479 125.041 92.2095 125.109 92.1622C125.163 92.1245 125.282 92.0364 125.373 91.889L124.096 91.1021C124.168 90.9859 124.25 90.9321 124.251 90.9314C124.266 90.921 124.267 90.9224 124.243 90.9343C124.195 90.9579 124.11 90.994 123.976 91.0415C123.713 91.1351 123.331 91.25 122.845 91.3794C121.878 91.637 120.551 91.9392 119.06 92.2325L119.349 93.7043ZM125.371 91.892C125.46 91.7493 125.484 91.6092 125.492 91.5558C125.503 91.4836 125.507 91.4148 125.507 91.359C125.509 91.2459 125.5 91.1214 125.486 91C125.459 90.7536 125.406 90.4556 125.335 90.1581L123.876 90.5049C123.935 90.7529 123.976 90.9897 123.995 91.1652C124.005 91.2548 124.008 91.3131 124.007 91.3419C124.007 91.3571 124.006 91.349 124.01 91.3257C124.012 91.3135 124.016 91.2884 124.026 91.2553C124.036 91.225 124.056 91.1665 124.098 91.0991L125.371 91.892ZM28.9628 64.951C28.9291 66.8131 29.2286 68.277 29.9137 69.5296L31.2297 68.8099C30.704 67.8487 30.4321 66.6616 30.4625 64.9781L28.9628 64.951ZM29.9137 69.5296C30.1403 69.9439 30.4058 70.3194 30.7663 70.6279C31.1315 70.9405 31.5581 71.1538 32.0664 71.2947C33.038 71.564 34.383 71.5838 36.3222 71.5043L36.2608 70.0056C34.2921 70.0863 33.1779 70.0462 32.467 69.8492C32.134 69.7569 31.9135 69.6354 31.7417 69.4884C31.5652 69.3373 31.4039 69.1282 31.2298 68.8099L29.9137 69.5296ZM36.3223 71.5043C40.6936 71.325 42.879 71.5276 46.8247 72.4718L47.1738 71.0129C43.0841 70.0343 40.7599 69.8211 36.2608 70.0056L36.3223 71.5043ZM46.8247 72.4718C53.2218 74.0025 58.9718 76.8251 67.0409 82.4459L67.8983 81.2151C59.7418 75.5334 53.8179 72.6028 47.1738 71.0129L46.8247 72.4718ZM67.0409 82.4459C68.7925 83.666 69.9906 84.6161 71.0816 85.49C72.1735 86.3648 73.1723 87.1752 74.4994 88.0893L75.3503 86.8541C74.0754 85.9758 73.1186 85.1999 72.0194 84.3194C70.9192 83.438 69.6907 82.4637 67.8983 81.2151L67.0409 82.4459ZM126.817 92.2936C126.73 92.2747 126.658 92.2758 126.636 92.2763C126.603 92.2769 126.576 92.2794 126.559 92.2813C126.525 92.285 126.494 92.2903 126.473 92.2942C126.428 92.3024 126.378 92.3136 126.329 92.3252C126.228 92.3489 126.097 92.3829 125.947 92.4236C125.646 92.5054 125.247 92.62 124.823 92.7476L125.255 94.1841C125.67 94.0593 126.055 93.9487 126.34 93.8712C126.484 93.8322 126.597 93.8031 126.674 93.7849C126.714 93.7755 126.735 93.771 126.743 93.7696C126.748 93.7687 126.739 93.7706 126.721 93.7725C126.713 93.7734 126.693 93.7754 126.666 93.7759C126.649 93.7763 126.582 93.7777 126.498 93.7594L126.817 92.2936ZM124.823 92.7476C122.101 93.5662 116.267 94.7672 114.084 94.9633L114.218 96.4573C116.526 96.25 122.461 95.0242 125.255 94.1841L124.823 92.7476ZM114.083 94.9633C113.814 94.9876 112.654 95.1091 111.508 95.2332L111.67 96.7245C112.821 96.5998 113.966 96.48 114.218 96.4572L114.083 94.9633ZM111.508 95.2332C106.572 95.7669 100.892 95.7373 95.3683 95.1455L95.2086 96.637C100.827 97.2389 106.615 97.271 111.669 96.7245L111.508 95.2332ZM95.3683 95.1455C92.5254 94.8412 86.2542 93.5606 83.8051 92.7868L83.3532 94.2171C85.9069 95.0239 92.2768 96.3232 95.2086 96.637L95.3683 95.1455ZM83.8051 92.7868C77.8321 90.8995 73.0595 87.0899 67.9137 83.466L67.05 84.6924C72.0869 88.2397 77.0991 92.241 83.3532 94.2171L83.8051 92.7868ZM67.9137 83.466C62.1821 79.4294 58.6041 77.3201 53.9863 75.2691L53.3774 76.6399C57.8783 78.6391 61.3694 80.6917 67.05 84.6924L67.9137 83.466ZM53.9862 75.2691C50.7745 73.8426 49.3672 73.3943 45.6803 72.6216L45.3726 74.0896C48.9635 74.8423 50.2691 75.2594 53.3774 76.6399L53.9862 75.2691ZM45.6804 72.6216C41.8708 71.8227 40.1784 71.6922 36.2269 71.8913L36.3023 73.3894C40.1276 73.1967 41.6911 73.3177 45.3726 74.0896L45.6804 72.6216ZM36.2268 71.8913C35.174 71.9444 34.5795 71.9629 34.081 71.9368C33.5964 71.9115 33.1872 71.8432 32.5058 71.7012L32.1998 73.1696C32.904 73.3164 33.4022 73.4034 34.0028 73.4348C34.5895 73.4654 35.2581 73.442 36.3024 73.3894L36.2268 71.8913ZM32.5055 71.7011C31.7586 71.5458 31.4302 71.4683 31.2143 71.3834C31.0489 71.3183 30.9501 71.2509 30.685 71.0198L29.6994 72.1506C29.9975 72.4104 30.2536 72.6173 30.665 72.7792C31.0258 72.9212 31.4962 73.0233 32.2001 73.1697L32.5055 71.7011ZM30.6849 71.0198C30.5144 70.8712 30.3514 70.7332 30.225 70.6297C30.1626 70.5786 30.1044 70.5322 30.0568 70.496C30.034 70.4787 30.0061 70.458 29.9777 70.4389C29.9642 70.4298 29.9415 70.4148 29.9138 70.3991C29.9118 70.398 29.818 70.3407 29.6897 70.3137L29.3808 71.7815C29.3035 71.7653 29.2473 71.7402 29.2284 71.7316C29.2029 71.72 29.1837 71.7095 29.1737 71.7038C29.1537 71.6925 29.1406 71.6836 29.1387 71.6823C29.1333 71.6787 29.1359 71.6802 29.15 71.6909C29.1764 71.7109 29.2183 71.7442 29.275 71.7905C29.3867 71.882 29.5376 72.0097 29.6995 72.1507L30.6849 71.0198ZM124.606 90.3315L123.146 90.677L123.366 91.6084L124.304 91.8008L124.606 90.3315ZM112.593 82.0865L113.028 80.6509L113.027 80.6509L112.593 82.0865ZM104.818 79.918L104.437 81.3688L104.437 81.3688L104.818 79.918ZM92.3274 75.092L91.2486 76.1342L91.2489 76.1345L92.3274 75.092ZM91.2005 73.0279L92.5734 72.4238L92.5734 72.4237L91.2005 73.0279ZM86.3803 65.5512L85.2001 66.477L85.2001 66.477L86.3803 65.5512ZM82.4102 58.7011L80.9225 58.8928L80.9225 58.8929L82.4102 58.7011ZM78.5314 47.0942L77.1662 47.7156V47.7156L78.5314 47.0942ZM77.7182 45.3077L76.2519 44.9915L76.1472 45.4771L76.353 45.9292L77.7182 45.3077ZM78.9483 39.604L80.4146 39.9202L80.4157 39.9151L78.9483 39.604ZM80.2749 33.3477L81.7422 33.6589L81.8866 32.9779L81.4599 32.4281L80.2749 33.3477ZM79.6657 32.5628L80.8507 31.6432L80.8502 31.6425L79.6657 32.5628ZM72.9889 28.742L73.0794 27.2448L73.0794 27.2448L72.9889 28.742ZM66.1209 30.7106L65.427 29.3808L65.427 29.3808L66.1209 30.7106ZM55.3717 31.5363L55.7918 30.0963L55.7918 30.0963L55.3717 31.5363ZM49.9868 29.1352L50.7948 27.8715L50.7948 27.8715L49.9868 29.1352ZM48.7387 28.3372L47.8204 29.5233L47.8738 29.5646L47.9307 29.601L48.7387 28.3372ZM46.3494 26.4443L47.3101 25.2924L47.3101 25.2924L46.3494 26.4443ZM38.1397 25.1235L37.9535 23.6351L37.1 23.7419L36.7611 24.5324L38.1397 25.1235ZM37.0262 30.0701L38.5189 30.2182V30.2182L37.0262 30.0701ZM33.5278 48.6281L34.9549 49.09V49.09L33.5278 48.6281ZM30.4911 59.2914L29.0238 58.9798L29.0238 58.9799L30.4911 59.2914ZM29.7228 64.6153L28.224 64.5554L28.224 64.5556L29.7228 64.6153ZM29.7127 64.9646L31.212 65.0083L31.2123 65L31.2124 64.9916L29.7127 64.9646ZM62.0388 88.0675L62.7384 86.7406L62.7384 86.7406L62.0388 88.0675ZM85.9075 99.3889L85.4845 100.828L85.4847 100.828L85.9075 99.3889ZM97.9121 101.66L97.7771 103.154H97.7771L97.9121 101.66ZM124.365 98.9577L123.893 97.5338L123.892 97.5339L124.365 98.9577ZM126.139 98.3697L126.611 99.7936L127.256 99.5797L127.521 98.9534L126.139 98.3697ZM126.45 97.6338L125.068 97.0501L125.068 97.0502L126.45 97.6338ZM126.921 93.9125L125.449 94.2017L125.45 94.2023L126.921 93.9125ZM126.658 93.0265L125.398 93.8414L125.736 94.3632L126.344 94.4933L126.658 93.0265ZM29.5353 71.0476L29.2228 72.5147L30.9822 72.8894L31.0346 71.0913L29.5353 71.0476ZM28.4091 76.0972L26.9418 75.7859L26.9029 75.969L26.9103 76.1561L28.4091 76.0972ZM28.4529 77.2118L26.9541 77.2707L26.9901 78.1874L27.8225 78.5729L28.4529 77.2118ZM34.2202 79.4549L33.7151 80.8673L33.7152 80.8673L34.2202 79.4549ZM48.1336 82.8156L48.4195 81.3431L48.3496 81.3296L48.2786 81.3227L48.1336 82.8156ZM52.5184 83.9384L52.9851 82.5129L52.985 82.5128L52.5184 83.9384ZM1.85224 98.5927L2.66997 99.8502L2.67022 99.85L1.85224 98.5927ZM1.53696 101.087L2.58947 100.018L2.58915 100.017L1.53696 101.087ZM14.3895 101.548L14.4014 103.048H14.4014L14.3895 101.548ZM27.5548 99.8466L29.0548 99.8468V99.8468L27.5548 99.8466ZM14.7991 98.0327L14.8001 96.5327H14.8L14.7991 98.0327ZM35.0055 98.6722L33.8028 97.7757L33.8025 97.7762L35.0055 98.6722ZM35.0449 100.82L33.9922 101.889L33.9931 101.89L35.0449 100.82ZM39.7025 101.346L39.6906 99.8464H39.6905L39.7025 101.346ZM44.6807 99.4323L46.1806 99.4439V99.4438L44.6807 99.4323ZM39.1092 97.8252L39.0481 96.3264H39.048L39.1092 97.8252ZM1.50447 87.7316L2.55731 88.8L2.55735 88.8L1.50447 87.7316ZM1.48626 90.0993L2.53859 89.0304H2.53859L1.48626 90.0993ZM34.1201 89.8397L33.0672 88.7713L33.0672 88.7713L34.1201 89.8397ZM34.5663 88.6523L36.0662 88.664L36.0662 88.6638L34.5663 88.6523ZM34.1383 87.4719L35.1907 86.403L35.1907 86.403L34.1383 87.4719ZM1.3663 77.3259L-0.0435888 76.8139L-0.0436207 76.814L1.3663 77.3259ZM1.48197 78.8496L2.63025 77.8845L2.63023 77.8845L1.48197 78.8496ZM6.9307 79.3658L6.94263 80.8658H6.94264L6.9307 79.3658ZM12.7991 77.677L14.299 77.6886V77.6886L12.7991 77.677ZM6.75933 76.2179L6.80102 77.7173H6.80105L6.75933 76.2179ZM1.71781 76.3581L1.67611 74.8587L0.656216 74.887L0.307915 75.846L1.71781 76.3581ZM17.3398 76.9271L16.0933 76.0928L16.0933 76.0928L17.3398 76.9271ZM17.1497 78.543L18.4707 77.8323L17.1497 78.543ZM20.375 79.2588L20.3631 77.7589H20.3631L20.375 79.2588ZM24.0896 77.615L25.5896 77.6265V77.6265L24.0896 77.615ZM20.5775 76.0286L20.5894 77.5286H20.5894L20.5775 76.0286ZM1.80998 65.6211L0.757133 64.5526L0.757083 64.5527L1.80998 65.6211ZM2.02814 68.0845L2.87635 66.8473L2.87633 66.8473L2.02814 68.0845ZM8.88971 68.217L8.18422 66.8933L8.18421 66.8933L8.88971 68.217ZM8.91159 65.3723L8.21815 66.7024L8.2182 66.7024L8.91159 65.3723ZM126.065 89.986C125.55 87.8115 124.113 86.0315 121.938 84.5391C119.783 83.0602 116.814 81.7977 113.028 80.6509L112.158 83.5221C115.819 84.6308 118.453 85.7855 120.24 87.0126C122.009 88.2261 122.853 89.4408 123.146 90.677L126.065 89.986ZM113.027 80.6509C110.007 79.7363 109.576 79.6164 105.199 78.4672L104.437 81.3688C108.793 82.5124 109.185 82.6219 112.158 83.5221L113.027 80.6509ZM105.199 78.4672C101.203 77.4179 98.533 76.6244 96.6863 75.9109C94.8401 75.1976 93.9505 74.6128 93.4059 74.0494L91.2489 76.1345C92.2327 77.1522 93.5882 77.93 95.6051 78.7093C97.6216 79.4884 100.433 80.3174 104.437 81.3688L105.199 78.4672ZM93.4062 74.0498C93.4636 74.1091 93.4582 74.1185 93.3802 73.9959C93.3187 73.8991 93.2393 73.7638 93.1475 73.5957C92.9644 73.2603 92.7564 72.8397 92.5734 72.4238L89.8275 73.6321C90.0437 74.1234 90.2891 74.6208 90.5146 75.0336C90.6271 75.2396 90.7408 75.436 90.8489 75.6059C90.9405 75.7499 91.0811 75.9608 91.2486 76.1342L93.4062 74.0498ZM92.5734 72.4237C91.5415 70.0789 90.0926 67.853 87.5605 64.6253L85.2001 66.477C87.6693 69.6245 88.9429 71.622 89.8275 73.6321L92.5734 72.4237ZM87.5605 64.6253C85.9116 62.5234 85.0513 61.37 84.5603 60.5228C84.1255 59.7725 83.9997 59.2997 83.8979 58.5094L80.9225 58.8929C81.0644 59.9942 81.2916 60.8657 81.9647 62.0271C82.5817 63.0916 83.5845 64.4175 85.2001 66.477L87.5605 64.6253ZM83.8979 58.5095C83.5881 56.1053 82.3416 51.8441 79.8966 46.4728L77.1662 47.7156C79.5502 52.9531 80.6666 56.9064 80.9225 58.8928L83.8979 58.5095ZM79.8966 46.4728L79.0834 44.6863L76.353 45.9292L77.1662 47.7156L79.8966 46.4728ZM79.1845 45.6239L80.4146 39.9202L77.482 39.2877L76.2519 44.9915L79.1845 45.6239ZM80.4157 39.9151L81.7422 33.6589L78.8075 33.0366L77.4809 39.2928L80.4157 39.9151ZM81.4599 32.4281L80.8507 31.6432L78.4807 33.4825L79.0899 34.2674L81.4599 32.4281ZM80.8502 31.6425C78.9314 29.1731 75.9601 27.4189 73.0794 27.2448L72.8984 30.2393C74.7726 30.3526 76.9956 31.5711 78.4812 33.4832L80.8502 31.6425ZM73.0794 27.2448C70.5062 27.0893 68.7388 27.6529 65.427 29.3808L66.8147 32.0405C69.9285 30.4159 71.1186 30.1318 72.8985 30.2393L73.0794 27.2448ZM65.427 29.3808C62.5478 30.8831 59.406 31.1508 55.7918 30.0963L54.9516 32.9763C59.2161 34.2205 63.1679 33.9434 66.8148 32.0405L65.427 29.3808ZM55.7918 30.0963C53.8845 29.5399 52.2806 28.8215 50.7948 27.8715L49.1787 30.399C50.9281 31.5175 52.7978 32.3479 54.9516 32.9763L55.7918 30.0963ZM50.7948 27.8715L49.5467 27.0735L47.9307 29.601L49.1787 30.399L50.7948 27.8715ZM48.7387 28.3372C49.657 27.1512 49.657 27.1512 49.657 27.1512C49.657 27.1512 49.657 27.1512 49.657 27.1511C49.6569 27.1511 49.6569 27.1511 49.6568 27.151C49.6566 27.1509 49.6563 27.1506 49.6559 27.1503C49.6552 27.1498 49.654 27.1489 49.6525 27.1477C49.6494 27.1453 49.6448 27.1417 49.6387 27.137C49.6265 27.1275 49.6084 27.1135 49.5852 27.0955C49.5386 27.0593 49.4711 27.0069 49.3877 26.942C49.2211 26.8123 48.9915 26.6332 48.7398 26.4357C48.2305 26.036 47.6501 25.5759 47.3101 25.2924L45.3886 27.5963C45.7678 27.9125 46.382 28.3988 46.8876 28.7957C47.1434 28.9964 47.3763 29.1781 47.5453 29.3096C47.6298 29.3754 47.6984 29.4286 47.7459 29.4655C47.7697 29.484 47.7882 29.4984 47.8009 29.5081C47.8072 29.513 47.812 29.5168 47.8153 29.5193C47.817 29.5206 47.8182 29.5216 47.8191 29.5222C47.8195 29.5226 47.8198 29.5228 47.8201 29.523C47.8202 29.5231 47.8203 29.5232 47.8203 29.5232C47.8204 29.5232 47.8204 29.5233 47.8204 29.5233C47.8204 29.5233 47.8204 29.5233 48.7387 28.3372ZM47.3101 25.2924C46.4564 24.5805 45.3949 24.1689 44.3951 23.9208C43.3813 23.6691 42.3246 23.5597 41.3908 23.5196C40.4518 23.4793 39.6007 23.5077 38.9858 23.5456C38.6772 23.5646 38.425 23.5863 38.2474 23.6035C38.1586 23.6121 38.0882 23.6196 38.0385 23.6252C38.0136 23.6279 37.9939 23.6302 37.9797 23.6319C37.9726 23.6328 37.9668 23.6335 37.9624 23.634C37.9602 23.6343 37.9584 23.6345 37.9569 23.6347C37.9562 23.6348 37.9555 23.6348 37.9549 23.6349C37.9547 23.6349 37.9543 23.635 37.9542 23.635C37.9538 23.635 37.9535 23.6351 38.1397 25.1235C38.326 26.6119 38.3257 26.6119 38.3254 26.6119C38.3254 26.6119 38.3252 26.612 38.3251 26.612C38.3248 26.612 38.3247 26.612 38.3247 26.612C38.3246 26.612 38.3248 26.612 38.3254 26.6119C38.3266 26.6118 38.3291 26.6115 38.333 26.611C38.3407 26.6101 38.3536 26.6086 38.3716 26.6066C38.4075 26.6026 38.4632 26.5966 38.5367 26.5895C38.6837 26.5753 38.9008 26.5565 39.1706 26.5399C39.7125 26.5065 40.4548 26.4822 41.2621 26.5169C42.0747 26.5518 42.9174 26.645 43.6724 26.8324C44.4415 27.0233 45.0182 27.2874 45.3886 27.5963L47.3101 25.2924ZM36.7611 24.5324C36.4115 25.348 35.8437 26.794 35.5335 29.9221L38.5189 30.2182C38.7969 27.4147 39.2817 26.2666 39.5184 25.7145L36.7611 24.5324ZM35.5335 29.9221C34.5443 39.8973 34.2526 41.5176 32.1007 48.1662L34.9549 49.09C37.1959 42.1662 37.5174 40.3164 38.5189 30.2182L35.5335 29.9221ZM32.1007 48.1662C30.0892 54.381 29.7467 55.5754 29.0238 58.9798L31.9584 59.6029C32.6482 56.3539 32.9521 55.278 34.9549 49.09L32.1007 48.1662ZM29.0238 58.9799C28.5613 61.1586 28.2866 62.9879 28.224 64.5554L31.2216 64.6751C31.2747 63.3463 31.5129 61.7016 31.9584 59.6029L29.0238 58.9799ZM28.224 64.5556C28.2189 64.6844 28.2152 64.8118 28.2129 64.9376L31.2124 64.9916C31.2143 64.8883 31.2174 64.7828 31.2216 64.675L28.224 64.5556ZM61.3393 89.3944C70.573 94.2626 76.2399 98.1111 85.4845 100.828L86.3304 97.9498C77.4672 95.3449 72.2497 91.7552 62.7384 86.7406L61.3393 89.3944ZM85.4847 100.828C86.4246 101.104 89.0568 101.645 91.5929 102.125C94.1304 102.605 96.7851 103.064 97.7771 103.154L98.0471 100.166C97.2316 100.092 94.7369 99.6664 92.1505 99.1771C89.5626 98.6876 87.0963 98.1747 86.3302 97.9497L85.4847 100.828ZM97.7771 103.154C107.824 104.062 116.338 103.2 124.837 100.381L123.892 97.5339C115.834 100.206 107.74 101.042 98.0471 100.166L97.7771 103.154ZM124.836 100.382L126.611 99.7936L125.667 96.9458L123.893 97.5338L124.836 100.382ZM127.521 98.9534L127.832 98.2175L125.068 97.0502L124.757 97.786L127.521 98.9534ZM127.832 98.2175C128.403 96.866 128.663 94.9915 128.393 93.6227L125.45 94.2023C125.585 94.891 125.446 96.1558 125.068 97.0501L127.832 98.2175ZM128.393 93.6233C128.34 93.3513 128.276 93.0846 128.211 92.8674C128.181 92.7648 128.139 92.6363 128.087 92.513C128.063 92.4574 128.015 92.3495 127.938 92.2321C127.901 92.1745 127.829 92.0703 127.717 91.961C127.624 91.8699 127.375 91.6461 126.972 91.5598L126.344 94.4933C125.947 94.4084 125.705 94.1889 125.619 94.1052C125.515 94.0031 125.45 93.909 125.421 93.8643C125.362 93.7727 125.332 93.7016 125.328 93.6923C125.315 93.6618 125.319 93.6648 125.336 93.7229C125.367 93.8269 125.409 93.9976 125.449 94.2017L128.393 93.6233ZM29.8477 69.5805C29.202 69.443 28.7421 69.7603 28.5946 69.8788C28.4264 70.0141 28.3283 70.1538 28.2925 70.2064C28.2121 70.3249 28.1671 70.429 28.1556 70.4555C28.123 70.5304 28.1024 70.5945 28.096 70.6144C28.0785 70.669 28.0634 70.7245 28.053 70.7637C28.03 70.8501 28.0019 70.9646 27.9708 71.0955C27.9075 71.3614 27.8212 71.74 27.7187 72.1998C27.5131 73.1215 27.2377 74.3908 26.9418 75.7859L29.8765 76.4084C30.1709 75.0201 30.4441 73.7615 30.6467 72.8528C30.7483 72.3974 30.831 72.035 30.8894 71.7897C30.919 71.665 30.9399 71.5812 30.9525 71.5336C30.9599 71.5058 30.9592 71.5104 30.9526 71.531C30.9517 71.5339 30.9356 71.5853 30.9067 71.6519C30.897 71.6741 30.8536 71.775 30.7746 71.8915C30.7395 71.9432 30.642 72.0821 30.4743 72.2169C30.3274 72.3351 29.8681 72.6522 29.2228 72.5147L29.8477 69.5805ZM26.9103 76.1561L26.9541 77.2707L29.9518 77.1529L29.9079 76.0382L26.9103 76.1561ZM27.8225 78.5729C28.9311 79.0864 31.2458 79.9842 33.7151 80.8673L34.7253 78.0425C32.2614 77.1614 30.0584 76.3023 29.0833 75.8507L27.8225 78.5729ZM33.7152 80.8673C35.2632 81.4208 38.2216 82.2195 41.0405 82.9005C43.8383 83.5763 46.6877 84.1822 47.9885 84.3086L48.2786 81.3227C47.2241 81.2202 44.5823 80.6697 41.7449 79.9843C38.9288 79.3041 36.1082 78.5369 34.7252 78.0424L33.7152 80.8673ZM48.1336 82.8156C47.8476 84.2881 47.8475 84.2881 47.8475 84.2881C47.8475 84.2881 47.8474 84.2881 47.8474 84.2881C47.8474 84.2881 47.8474 84.2881 47.8474 84.2881C47.8475 84.2881 47.8477 84.2881 47.848 84.2882C47.8487 84.2883 47.85 84.2886 47.8518 84.2889C47.8554 84.2896 47.8612 84.2908 47.8692 84.2924C47.885 84.2955 47.9093 84.3003 47.9414 84.3068C48.0057 84.3198 48.101 84.3393 48.2224 84.3649C48.4653 84.4162 48.8113 84.4916 49.2194 84.5873C50.0409 84.7799 51.0907 85.0494 52.0518 85.364L52.985 82.5128C51.9083 82.1604 50.7657 81.8685 49.9043 81.6665C49.4708 81.5649 49.1027 81.4846 48.8419 81.4296C48.7114 81.4021 48.6074 81.3808 48.5354 81.3662C48.4993 81.3589 48.4712 81.3533 48.4517 81.3495C48.4419 81.3475 48.4343 81.346 48.4289 81.345C48.4262 81.3444 48.4241 81.344 48.4225 81.3437C48.4218 81.3436 48.4211 81.3434 48.4206 81.3433C48.4204 81.3433 48.4201 81.3433 48.42 81.3432C48.4199 81.3432 48.4198 81.3432 48.4197 81.3432C48.4196 81.3432 48.4195 81.3431 48.1336 82.8156ZM52.0517 85.364C53.184 85.7346 53.785 85.8591 55.0435 86.3577C56.28 86.8475 58.096 87.6845 61.3393 89.3944L62.7384 86.7406C59.457 85.0106 57.5316 84.1165 56.1485 83.5686C54.7874 83.0294 53.8905 82.8093 52.9851 82.5129L52.0517 85.364ZM127.917 92.2116C127.625 91.7599 127.166 91.0757 126.737 90.4884C126.525 90.1981 126.303 89.9069 126.102 89.6741C126.004 89.5604 125.886 89.4317 125.76 89.3173C125.697 89.2604 125.609 89.1852 125.5 89.113C125.412 89.0546 125.202 88.9226 124.907 88.8621L124.304 91.8008C124.044 91.7476 123.877 91.6362 123.838 91.6105C123.779 91.5709 123.745 91.5404 123.744 91.539C123.74 91.5355 123.767 91.5609 123.831 91.6343C123.953 91.7756 124.119 91.9906 124.314 92.2576C124.699 92.7847 125.125 93.4189 125.398 93.8414L127.917 92.2116ZM28.2133 64.9209L28.0359 71.0039L31.0346 71.0913L31.212 65.0083L28.2133 64.9209ZM1.0345 97.3352C0.259588 97.8391 -0.353813 98.6118 -0.477961 99.5938C-0.603983 100.591 -0.186692 101.495 0.484767 102.156L2.58915 100.017C2.51167 99.9412 2.49363 99.8962 2.49343 99.8957C2.49329 99.8953 2.49637 99.9032 2.49838 99.9184C2.50041 99.9338 2.50067 99.9517 2.49835 99.9701C2.49323 100.011 2.48006 100.023 2.49317 100.004C2.50822 99.9823 2.55629 99.9241 2.66997 99.8502L1.0345 97.3352ZM0.484444 102.155C0.926678 102.591 1.48025 102.759 1.97899 102.851C2.48737 102.945 3.16975 102.997 4.08888 103.03C5.9453 103.097 9.07274 103.09 14.4014 103.048L14.3776 100.048C9.02408 100.09 5.97222 100.096 4.19639 100.032C3.2994 100 2.80242 99.9521 2.52373 99.9007C2.2354 99.8474 2.39419 99.8255 2.58947 100.018L0.484444 102.155ZM14.4014 103.048C20.783 102.997 24.2031 102.965 25.9989 102.733C26.8264 102.626 27.7436 102.44 28.366 101.824C29.0952 101.102 29.0548 100.16 29.0548 99.8468L26.0548 99.8464C26.0548 100.315 25.9801 99.9642 26.2552 99.6918C26.4235 99.5252 26.4667 99.6475 25.6144 99.7577C24.0507 99.9598 20.8882 99.9963 14.3776 100.048L14.4014 103.048ZM29.0548 99.8468C29.0548 99.6664 29.0604 99.3539 29.0272 99.0696C28.9903 98.7531 28.8938 98.3228 28.5944 97.9106C28.0084 97.1037 27.0301 96.8838 26.2386 96.7713C24.5301 96.5284 21.1817 96.537 14.8001 96.5327L14.798 99.5327C21.3509 99.5371 24.3806 99.5373 25.8163 99.7414C26.597 99.8524 26.3824 99.97 26.1671 99.6735C26.053 99.5165 26.0436 99.3846 26.0474 99.4172C26.055 99.4819 26.0549 99.5691 26.0548 99.8464L29.0548 99.8468ZM14.8 96.5327C9.58489 96.5294 6.49993 96.5461 4.62421 96.6273C3.69024 96.6676 2.99617 96.726 2.46416 96.8195C1.918 96.9156 1.45253 97.0632 1.03425 97.3353L2.67022 99.85C2.62974 99.8763 2.66486 99.8303 2.98374 99.7742C3.31678 99.7156 3.8522 99.6634 4.75383 99.6245C6.54932 99.5468 9.55998 99.5294 14.7981 99.5327L14.8 96.5327ZM33.8025 97.7762C33.4128 98.2994 32.9937 99.0025 33.0093 99.8531C33.026 100.764 33.5243 101.428 33.9922 101.889L36.0976 99.7516C35.9853 99.6409 35.9594 99.5923 35.9635 99.5997C35.9673 99.6067 35.9791 99.6301 35.9899 99.6685C36.001 99.7079 36.008 99.7524 36.0088 99.7981C36.0106 99.8929 35.9856 99.9329 36.0034 99.892C36.0245 99.8437 36.0797 99.7411 36.2085 99.5681L33.8025 97.7762ZM33.9931 101.89C34.5929 102.48 35.3838 102.661 36.1616 102.749C36.9681 102.84 38.1061 102.859 39.7144 102.846L39.6905 99.8464C38.0666 99.8593 37.1003 99.836 36.4984 99.768C35.8676 99.6967 35.9458 99.6023 36.0967 99.7507L33.9931 101.89ZM39.7144 102.846C40.827 102.837 41.7371 102.818 42.4654 102.765C43.1711 102.712 43.8352 102.621 44.3928 102.406C45.0199 102.165 45.5641 101.747 45.8808 101.072C46.149 100.501 46.1772 99.8884 46.1806 99.4439L43.1807 99.4207C43.1777 99.8162 43.1364 99.8588 43.1648 99.798C43.2418 99.6339 43.3762 99.5829 43.3164 99.606C43.187 99.6557 42.8869 99.7252 42.2443 99.7727C41.6242 99.8185 40.8018 99.8375 39.6906 99.8464L39.7144 102.846ZM46.1806 99.4438C46.185 98.8703 46.063 98.2082 45.604 97.6256C45.1575 97.059 44.5407 96.7577 43.9441 96.5856C42.8233 96.2623 41.1869 96.2391 39.0481 96.3264L39.1704 99.3239C41.3764 99.2339 42.5312 99.3004 43.1127 99.4681C43.3672 99.5415 43.3293 99.5861 43.2476 99.4824C43.1533 99.3627 43.1818 99.2805 43.1807 99.4208L46.1806 99.4438ZM39.048 96.3264C37.5566 96.3874 36.5124 96.452 35.7795 96.6033C35.3919 96.6833 35.0082 96.8027 34.6521 97.0096C34.2751 97.2288 34.0087 97.4996 33.8028 97.7757L36.2082 99.5686C36.2239 99.5475 36.201 99.5793 36.1597 99.6033C36.1393 99.6151 36.1835 99.5832 36.3861 99.5413C36.8339 99.4489 37.6199 99.3873 39.1705 99.3239L39.048 96.3264ZM0.451638 86.6631C-0.205219 87.3104 -0.420529 88.2044 -0.425937 88.9072C-0.431316 89.6065 -0.231242 90.5134 0.433918 91.1682L2.53859 89.0304C2.60267 89.0935 2.6074 89.1319 2.59604 89.0981C2.58569 89.0673 2.57338 89.008 2.57397 88.9303C2.57457 88.8529 2.58777 88.7907 2.60028 88.755C2.61378 88.7164 2.61269 88.7454 2.55731 88.8L0.451638 86.6631ZM0.433917 91.1682C0.677054 91.4076 0.941734 91.506 1.01214 91.5324C1.1249 91.5746 1.22915 91.601 1.30289 91.6176C1.45346 91.6516 1.61729 91.6755 1.76959 91.6938C2.08193 91.7313 2.48909 91.7619 2.95895 91.7879C3.90615 91.8402 5.20758 91.8788 6.73319 91.9055C9.78951 91.959 13.8035 91.9658 17.8115 91.9339C21.8196 91.902 25.8342 91.8313 28.8916 91.7292C30.4178 91.6782 31.7199 91.6189 32.6679 91.5515C33.1382 91.5181 33.5455 91.481 33.858 91.4386C34.0104 91.4179 34.1737 91.3915 34.3234 91.3555C34.3968 91.3378 34.4996 91.3102 34.6104 91.2672C34.681 91.2398 34.9368 91.1408 35.1729 90.9081L33.0672 88.7713C33.2836 88.5581 33.5045 88.4784 33.5257 88.4702C33.5596 88.457 33.5851 88.449 33.5984 88.4451C33.6124 88.441 33.6206 88.439 33.6215 88.4387C33.6224 88.4385 33.6092 88.4417 33.5776 88.4472C33.5471 88.4525 33.5064 88.4588 33.4541 88.4659C33.237 88.4954 32.9047 88.5271 32.4552 88.5591C31.5636 88.6224 30.3056 88.6802 28.7914 88.7308C25.7682 88.8319 21.7809 88.9022 17.7877 88.934C13.7944 88.9658 9.80775 88.9589 6.78572 88.9059C5.27214 88.8794 4.01498 88.8416 3.12437 88.7924C2.67533 88.7676 2.34378 88.7412 2.12764 88.7152C2.07558 88.709 2.03522 88.7033 2.00517 88.6986C1.97393 88.6936 1.96143 88.6908 1.96305 88.6912C1.96438 88.6915 1.97322 88.6935 1.98788 88.6976C2.00178 88.7015 2.02835 88.7095 2.06345 88.7226C2.08479 88.7306 2.31496 88.8102 2.53859 89.0304L0.433917 91.1682ZM35.1729 90.9081C35.5079 90.578 35.7154 90.1631 35.8369 89.8395C35.9653 89.4979 36.0629 89.0844 36.0662 88.664L33.0663 88.6406C33.0664 88.6298 33.0671 88.6424 33.06 88.6768C33.0533 88.7096 33.0425 88.7474 33.0287 88.7843C33.0145 88.8219 33.0023 88.845 32.9981 88.8521C32.9964 88.855 32.9994 88.8495 33.0084 88.8375C33.017 88.826 33.0359 88.8021 33.0672 88.7713L35.1729 90.9081ZM36.0662 88.6638C36.0695 88.2426 35.9779 87.8277 35.8531 87.4835C35.7356 87.1592 35.5308 86.7379 35.1907 86.403L33.086 88.5408C33.0522 88.5075 33.0314 88.4812 33.0213 88.4676C33.0108 88.4534 33.0066 88.446 33.0072 88.4471C33.0093 88.4507 33.02 88.4707 33.0328 88.506C33.0452 88.5404 33.055 88.5762 33.0609 88.6074C33.0672 88.6401 33.0662 88.6518 33.0663 88.6408L36.0662 88.6638ZM35.1907 86.403C34.9475 86.1636 34.6829 86.0652 34.6124 86.0388C34.4997 85.9966 34.3954 85.9702 34.3217 85.9536C34.1711 85.9196 34.0073 85.8957 33.855 85.8774C33.5427 85.8399 33.1355 85.8093 32.6656 85.7833C31.7184 85.731 30.417 85.6925 28.8914 85.6657C25.8351 85.6122 21.8211 85.6054 17.813 85.6373C13.805 85.6692 9.79043 85.7399 6.73293 85.8421C5.20673 85.8931 3.90463 85.9524 2.95666 86.0197C2.48635 86.0532 2.079 86.0902 1.76656 86.1327C1.61408 86.1534 1.4508 86.1798 1.30109 86.2158C1.22766 86.2335 1.12487 86.2611 1.01405 86.3041C0.943504 86.3314 0.687744 86.4305 0.451598 86.6632L2.55735 88.8C2.341 89.0132 2.12005 89.0929 2.09885 89.1011C2.06499 89.1142 2.03943 89.1222 2.02619 89.1262C2.01221 89.1303 2.00395 89.1323 2.00303 89.1325C2.00221 89.1327 2.01536 89.1296 2.04697 89.1241C2.07743 89.1188 2.11814 89.1125 2.17046 89.1054C2.38754 89.0759 2.71987 89.0441 3.16935 89.0122C4.06098 88.9488 5.31897 88.891 6.83313 88.8404C9.85639 88.7394 13.8437 88.669 17.8369 88.6372C21.8302 88.6054 25.8168 88.6124 28.8389 88.6653C30.3525 88.6918 31.6096 88.7296 32.5002 88.7788C32.9493 88.8036 33.2808 88.83 33.4969 88.856C33.549 88.8622 33.5894 88.8679 33.6194 88.8727C33.6506 88.8776 33.6631 88.8804 33.6615 88.88C33.6602 88.8797 33.6514 88.8777 33.6367 88.8736C33.6228 88.8697 33.5962 88.8617 33.5611 88.8486C33.5398 88.8406 33.3096 88.761 33.086 88.5408L35.1907 86.403ZM-0.0436207 76.814C-0.203896 77.2553 -0.332317 77.7664 -0.290924 78.3117C-0.245765 78.9067 -0.01018 79.4056 0.333721 79.8148L2.63023 77.8845C2.62658 77.8801 2.64584 77.9023 2.66613 77.9496C2.68749 77.9994 2.69771 78.0483 2.70047 78.0847C2.70289 78.1166 2.69799 78.118 2.70585 78.076C2.71404 78.0323 2.73326 77.9562 2.77623 77.8379L-0.0436207 76.814ZM0.333694 79.8147C0.950207 80.5483 1.87434 80.7069 2.68222 80.7834C3.57808 80.8683 4.9232 80.8819 6.94263 80.8658L6.91876 77.8659C4.86963 77.8822 3.68117 77.8646 2.96519 77.7968C2.16124 77.7206 2.39529 77.605 2.63025 77.8845L0.333694 79.8147ZM6.94264 80.8658C8.25518 80.8553 9.30985 80.8365 10.1454 80.7889C10.9614 80.7424 11.6695 80.6644 12.2435 80.4992C12.8402 80.3275 13.4743 80.0088 13.8857 79.3536C14.2613 78.7555 14.2958 78.106 14.299 77.6886L11.2991 77.6655C11.2966 77.9839 11.2508 77.9083 11.345 77.7583C11.4751 77.5512 11.6268 77.5549 11.4138 77.6162C11.1782 77.684 10.7494 77.7496 9.9748 77.7937C9.21979 77.8367 8.23029 77.8554 6.91875 77.8659L6.94264 80.8658ZM14.299 77.6886C14.3023 77.257 14.2672 76.5828 13.8466 75.9718C13.4008 75.3243 12.7335 75.0391 12.1383 74.8952C11.5519 74.7536 10.8287 74.6998 9.98995 74.6817C9.13243 74.6631 8.05463 74.6813 6.71762 74.7185L6.80105 77.7173C8.13424 77.6803 9.14789 77.6642 9.92521 77.681C10.7213 77.6981 11.1763 77.7492 11.4337 77.8113C11.6823 77.8714 11.5242 77.889 11.3754 77.6729C11.2518 77.4933 11.3013 77.3791 11.2991 77.6655L14.299 77.6886ZM6.71764 74.7185L1.67611 74.8587L1.7595 77.8575L6.80102 77.7173L6.71764 74.7185ZM0.307915 75.846L-0.0435888 76.8139L2.77619 77.838L3.1277 76.8702L0.307915 75.846ZM16.0933 76.0928C15.8324 76.4825 15.5399 76.9879 15.4678 77.6004C15.3886 78.274 15.5995 78.8276 15.8287 79.2536L18.4707 77.8323C18.4285 77.7539 18.4295 77.7394 18.437 77.7685C18.4413 77.7852 18.4468 77.8122 18.4494 77.847C18.452 77.8823 18.4512 77.9178 18.4473 77.9509C18.4394 78.0179 18.423 78.0436 18.4381 78.0106C18.4458 77.9936 18.4602 77.9649 18.485 77.9221C18.5098 77.8794 18.5427 77.8267 18.5863 77.7615L16.0933 76.0928ZM15.8287 79.2536C15.9621 79.5016 16.1678 79.827 16.5174 80.1052C16.8714 80.3868 17.2618 80.533 17.636 80.616C18.2903 80.7613 19.2011 80.7682 20.3869 80.7588L20.3631 77.7589C19.7445 77.7638 19.2842 77.7617 18.9307 77.7478C18.5684 77.7334 18.3809 77.7084 18.2861 77.6873C18.2083 77.6701 18.2803 77.6741 18.3853 77.7576C18.4858 77.8376 18.5118 77.9088 18.4707 77.8323L15.8287 79.2536ZM20.3869 80.7588C21.1508 80.7527 21.8144 80.7278 22.3768 80.666C22.9269 80.6055 23.4726 80.501 23.9546 80.2877C24.4741 80.0578 24.9406 79.6909 25.2434 79.1322C25.5249 78.6128 25.5862 78.0691 25.5896 77.6265L22.5897 77.6034C22.5881 77.8115 22.5555 77.7956 22.6059 77.7028C22.6775 77.5706 22.7755 77.5289 22.7406 77.5443C22.6682 77.5763 22.4737 77.6373 22.0491 77.684C21.6368 77.7293 21.0913 77.7531 20.3631 77.7589L20.3869 80.7588ZM25.5896 77.6265C25.593 77.1849 25.5386 76.6455 25.2683 76.1283C24.977 75.5706 24.5201 75.1981 24.0049 74.9654C23.5281 74.75 22.9927 74.6491 22.4626 74.5946C21.9205 74.5388 21.2867 74.5229 20.5655 74.5287L20.5894 77.5286C21.2685 77.5232 21.7751 77.5397 22.1556 77.5788C22.548 77.6192 22.7176 77.6758 22.77 77.6995C22.7839 77.7057 22.6806 77.6539 22.6093 77.5174C22.5591 77.4213 22.5912 77.4036 22.5897 77.6034L25.5896 77.6265ZM20.5656 74.5287C19.4356 74.5377 18.5311 74.5535 17.8553 74.7411C17.4525 74.8529 17.0867 75.0322 16.7581 75.3129C16.4565 75.5705 16.2458 75.8649 16.0933 76.0928L18.5863 77.7615C18.7004 77.5912 18.7269 77.5766 18.7065 77.5941C18.659 77.6346 18.6183 77.6427 18.6576 77.6318C18.7282 77.6122 18.8855 77.583 19.2233 77.5623C19.5541 77.5421 19.9883 77.5334 20.5894 77.5286L20.5656 74.5287ZM0.757083 64.5527C0.104352 65.196 -0.320044 66.0696 -0.233782 67.0437C-0.147509 68.0179 0.423952 68.8033 1.17994 69.3216L2.87633 66.8473C2.78171 66.7824 2.74824 66.7356 2.74206 66.726C2.73779 66.7194 2.75097 66.7389 2.75452 66.779C2.75808 66.8192 2.74852 66.8405 2.75165 66.833C2.75614 66.8223 2.78099 66.7701 2.86287 66.6894L0.757083 64.5527ZM1.17992 69.3216C1.4987 69.5402 1.86188 69.6653 2.13858 69.7434C2.44162 69.8289 2.77624 69.8944 3.11469 69.9452C3.7932 70.0469 4.58233 70.1034 5.35725 70.1184C6.13296 70.1333 6.93149 70.1074 7.63012 70.0332C8.25637 69.9667 9.03062 69.8416 9.59521 69.5407L8.18421 66.8933C8.21574 66.8765 8.16744 66.9054 7.9804 66.9473C7.81123 66.9852 7.58717 67.0209 7.3132 67.05C6.7658 67.1081 6.09584 67.1321 5.41518 67.1189C4.73372 67.1058 4.0786 67.0561 3.55955 66.9783C3.29923 66.9393 3.09675 66.8966 2.95368 66.8562C2.78428 66.8084 2.79236 66.7897 2.87635 66.8473L1.17992 69.3216ZM9.5952 69.5407C10.7414 68.9299 11.1065 67.6909 11.1134 66.8005C11.1202 65.9159 10.7753 64.6522 9.60497 64.0421L8.2182 66.7024C8.10357 66.6426 8.07422 66.5703 8.08271 66.5884C8.08641 66.5963 8.09492 66.6177 8.10217 66.6534C8.10936 66.6888 8.11382 66.7312 8.11346 66.7774C8.11311 66.8236 8.10799 66.8671 8.09983 66.9046C8.09161 66.9424 8.08186 66.9671 8.07603 66.9792C8.06297 67.0065 8.08392 66.9467 8.18422 66.8933L9.5952 69.5407ZM9.60503 64.0422C9.01892 63.7366 8.19258 63.624 7.53669 63.5678C6.79659 63.5043 5.94674 63.4917 5.12811 63.5204C4.3116 63.549 3.48495 63.6201 2.79462 63.7359C2.45196 63.7934 2.10888 63.8675 1.80352 63.9656C1.55743 64.0447 1.10851 64.2064 0.757133 64.5526L2.86282 66.6895C2.68102 66.8686 2.54499 66.8784 2.72116 66.8218C2.83807 66.7842 3.02662 66.7389 3.29101 66.6946C3.81477 66.6067 4.50388 66.5441 5.23315 66.5186C5.9603 66.4931 6.68626 66.5059 7.28035 66.5568C7.95867 66.615 8.22491 66.7059 8.21815 66.7024L9.60503 64.0422Z" fill="black" mask="url(#path-1-outside-1_393_241)"/>
</g>
<defs>
<clipPath id="clip0_393_241">
<rect width="128" height="128" fill="white"/>
</clipPath>
</defs>
</svg>
