<svg width="597" height="157" viewBox="0 0 597 157" fill="none" xmlns="http://www.w3.org/2000/svg">
<path d="M99.5616 14L78.0467 30.9139H26.31V51.93C26.31 56.2216 27.8453 58.3885 30.9158 58.4305C32.5983 58.4726 34.2177 57.6732 35.774 56.0323C37.2041 54.5597 38.1716 52.8346 38.6763 50.8571L38.9918 50.9203V83.8014H38.7394C37.9823 81.5714 36.8256 79.7622 35.2693 78.3738C33.9653 77.1536 32.7035 76.5015 31.4837 76.4173C29.9274 76.3332 28.6655 76.9222 27.6981 78.1844C26.7727 79.4046 26.31 80.9614 26.31 82.8547V105.638H36.405C39.9382 105.638 42.6092 104.965 44.4178 103.618C46.0162 102.482 47.4043 100.484 48.582 97.6228H48.8975L48.8344 122.615H0V122.299C4.92129 120.364 7.38194 116.388 7.38194 110.371V25.2339C7.38194 19.1751 5.40501 15.5357 1.45115 14.3156V14H99.5616Z" fill="#F5F5F7"/>
<path d="M72.873 40.9486C72.873 43.5572 71.9897 45.7872 70.2231 47.6385C68.4985 49.4897 66.3954 50.4154 63.9137 50.4154C61.432 50.4154 59.3079 49.4897 57.5413 47.6385C55.7747 45.7872 54.8914 43.5572 54.8914 40.9486C54.8914 38.34 55.7747 36.1101 57.5413 34.2588C59.3079 32.4075 61.432 31.4819 63.9137 31.4819C66.3954 31.4819 68.4985 32.4075 70.2231 34.2588C71.9897 36.1101 72.873 38.34 72.873 40.9486ZM75.9015 122.615H55.0175V70.2324C55.0175 66.8664 53.7977 65.1414 51.3581 65.0572V64.363L72.4314 47.8278V117.818C72.4314 120.133 73.5881 121.479 75.9015 121.858V122.615Z" fill="#F5F5F7"/>
<path d="M126.629 122.615H106.691V68.4653C106.691 64.931 105.282 63.1639 102.464 63.1639C99.6877 63.1639 98.2997 64.9731 98.2997 68.5915V117.377C98.2997 119.985 99.4564 121.479 101.77 121.858V122.615H80.8859V69.7275C80.8859 66.4036 79.6661 64.6786 77.2265 64.5523V63.9843L98.2997 47.1967V54.3914C101.623 50.8992 105.997 49.1531 111.423 49.1531C119.078 49.1952 122.906 52.9609 122.906 60.4501V116.746C122.906 119.396 124.147 121.184 126.629 122.11V122.615Z" fill="#F5F5F7"/>
<path d="M176.346 122.615H156.409V68.4653C156.409 64.931 155 63.1639 152.182 63.1639C149.405 63.1639 148.017 64.9731 148.017 68.5915V116.367C148.017 119.144 149.216 121.058 151.614 122.11V122.615H130.604V36.089C130.604 32.7652 129.384 31.0401 126.944 30.9139V30.409L148.017 14V54.3914C151.509 50.8571 155.862 49.09 161.078 49.09C164.527 49.1321 167.303 50.184 169.406 52.2456C171.551 54.3072 172.624 57.1893 172.624 60.8919V116.746C172.624 119.396 173.865 121.184 176.346 122.11V122.615Z" fill="#F5F5F7"/>
<path d="M221.521 107.09C221.479 117.44 217.273 122.615 208.903 122.615H187.956C182.151 122.615 179.249 119.775 179.249 114.095V58.1781C179.249 55.6536 180.153 53.6551 181.962 52.1825C183.77 50.7099 185.958 49.9736 188.523 49.9736H212.941C215.17 49.9736 217.021 50.6468 218.493 51.9932C220.091 53.5078 220.89 55.4853 220.89 57.9256V73.6404C220.89 77.0484 219.271 80.0988 216.032 82.7916L201.962 94.4672C198.766 97.1179 197.188 99.6003 197.23 101.914C197.314 105.407 199.922 107.153 205.054 107.153H209.786C215.296 107.153 218.829 105.112 220.386 101.031L220.953 100.968C221.374 102.567 221.563 104.607 221.521 107.09ZM203.54 68.1497V67.1399C203.54 63.9002 202.383 62.3224 200.07 62.4066C197.672 62.4907 196.473 64.2578 196.473 67.7079V79.068L200.511 75.66C202.53 74.0191 203.54 71.5157 203.54 68.1497Z" fill="#F5F5F7"/>
<path d="M269.22 70.3586L253.005 85.4423V68.4653C253.005 64.931 251.827 63.1639 249.472 63.1639C246.864 63.0797 245.56 64.8889 245.56 68.5915V117.377C245.56 119.985 246.717 121.479 249.03 121.858V122.615H228.146V69.7275C228.146 66.3615 226.926 64.6365 224.487 64.5523V63.9843L245.56 47.1967V54.5176C248.841 51.0675 252.879 49.3214 257.674 49.2794C265.371 49.1952 269.22 52.9188 269.22 60.4501V70.3586Z" fill="#F5F5F7"/>
<path d="M298.117 33.249C298.117 36.4467 297.044 39.1815 294.899 41.4535C292.754 43.7255 290.146 44.8615 287.075 44.8615C284.047 44.8615 281.46 43.7255 279.315 41.4535C277.17 39.1815 276.097 36.4467 276.097 33.249C276.097 30.0514 277.17 27.3165 279.315 25.0445C281.46 22.7725 284.047 21.6365 287.075 21.6365C290.146 21.6365 292.754 22.7725 294.899 25.0445C297.044 27.3165 298.117 30.0514 298.117 33.249ZM295.088 125.076C295.088 132.566 293.427 137.572 290.104 140.097C287.538 142.032 282.869 143 276.097 143C269.031 143 264.173 141.948 261.523 139.844C258.915 137.741 257.569 133.786 257.485 127.979L257.422 125.581H273.132V127.222C273.132 130.251 273.952 131.766 275.592 131.766C277.107 131.766 277.864 130.209 277.864 127.096V69.3488C277.864 66.025 276.602 64.2999 274.078 64.1737V63.6057L295.088 47.1967V125.076Z" fill="#F5F5F7"/>
<path d="M346.51 122.615H332.881C328.885 122.615 326.698 119.775 326.32 114.095H326.13C324.153 119.775 321.419 122.615 317.928 122.615H310.357C304.594 122.615 301.713 119.922 301.713 114.537V96.8023C301.713 93.0577 301.86 90.5964 302.155 89.4183C302.449 88.2402 303.185 87.1673 304.363 86.1996L323.67 70.3586C325.1 69.1805 325.815 68.0235 325.815 66.8875V64.8048C325.815 63.5426 325.1 62.9114 323.67 62.9114H317.297C312.25 62.9114 307.938 64.8258 304.363 68.6546C304.363 66.8875 304.931 64.8469 306.067 62.5328L309.6 55.275C311.577 51.2779 314.563 49.2794 318.559 49.2794H333.702C336.814 49.2794 339.212 50.2681 340.894 52.2456C342.577 54.181 343.418 56.6844 343.418 59.7559V111.823C343.418 116.746 344.449 120.343 346.51 122.615ZM325.815 107.847V86.3258L321.525 89.6707C319.968 90.8488 319.19 92.9105 319.19 95.8557V105.07C319.19 106.921 320.136 107.847 322.029 107.847H325.815Z" fill="#F5F5F7"/>
<path d="M392 70.3586L375.785 85.4423V68.4653C375.785 64.931 374.607 63.1639 372.252 63.1639C369.644 63.0797 368.34 64.8889 368.34 68.5915V117.377C368.34 119.985 369.497 121.479 371.81 121.858V122.615H350.926V69.7275C350.926 66.3615 349.706 64.6365 347.267 64.5523V63.9843L368.34 47.1967V54.5176C371.621 51.0675 375.659 49.3214 380.454 49.2794C388.151 49.1952 392 52.9188 392 60.4501V70.3586Z" fill="#F5F5F7"/>
<path d="M558.184 23.5267C558.202 21.8279 558.576 18.9702 560.5 12.9213C556.633 17.8271 554.073 19.3989 552.84 20.3832C553.662 21.2088 555.773 20.3991 553.046 23.9236L550.932 25.155C552.287 25.8914 553.674 26.6004 555.078 27.2765C555.15 26.6452 555.281 25.348 555.232 25.2096C556.988 21.1135 557.063 23.2092 558.184 23.5267Z" fill="#717171"/>
<path d="M549.442 62.8361C547.499 66.1384 547.111 66.7987 546.504 70.8869C549.694 71.578 551.847 74.0303 555.745 78.1018C553.803 81.4036 553.414 82.0646 552.807 86.1526C558.478 84.1545 574.249 72.6294 577.979 66.2891C590.024 45.8151 583.175 39.1186 583.114 34.6375C576.589 35.4144 565.368 32.2299 555.078 27.2765C553.674 26.6004 552.287 25.8914 550.932 25.155C543.091 20.8941 536.31 15.7166 533.362 10.702C538.05 24.1285 531.821 24.0198 532.052 31.268C524.936 34.1941 527.389 39.1934 514.712 42.4036C520.164 43.8332 530.591 50.5604 532.745 53.0127L539.424 56.9421C542.613 57.6332 545.544 58.7646 549.442 62.8361Z" fill="#919191"/>
<path d="M506.397 113.08L499.718 109.151C496.748 115.852 496.229 116.375 493.186 115.201C492.71 115.017 492.004 114.703 491.473 114.53C491.162 117.3 489.507 128.16 488.495 135.685C494.782 131.264 503.471 124.541 505.54 122.805C505.13 122.426 504.72 122.083 504.328 121.756C501.824 119.667 502.532 119.65 506.397 113.08Z" fill="#696969"/>
<path d="M519.219 91.2854C520.385 89.304 522.34 86.898 526.614 89.4127C522.34 86.898 523.493 84.0204 524.659 82.0391L517.98 78.1097C516.814 80.0911 514.859 82.4972 510.585 79.9824C514.859 82.4972 513.706 85.3747 512.54 87.356L519.219 91.2854Z" fill="#696969"/>
<path fill-rule="evenodd" clip-rule="evenodd" d="M539.424 56.9421L524.659 82.0391L517.98 78.1097L532.745 53.0127L539.424 56.9421Z" fill="#5C4331"/>
<path d="M512.54 87.356L499.718 109.151L506.397 113.08L517.602 94.0347L519.219 91.2854L512.54 87.356Z" fill="#5F3313"/>
<path d="M512.541 87.3565C514.466 89.1782 518.173 93.0643 517.602 94.0352M507.9 95.2447C509.825 97.0664 513.533 100.953 512.961 101.923M510.16 91.4037C512.085 93.2254 515.792 97.1115 515.221 98.0824M502.828 103.866C504.753 105.688 508.46 109.574 507.889 110.545M505.498 99.3273C507.423 101.149 511.131 105.035 510.56 106.006" stroke="#7C7C7C" stroke-width="0.35"/>
<path d="M465.625 23.0365C465.607 21.3377 465.233 18.4799 463.309 12.4311C467.176 17.3369 469.736 18.9086 470.969 19.893C470.147 20.7186 468.036 19.9089 470.763 23.4334L472.877 24.6648C471.522 25.4012 470.135 26.1102 468.731 26.7862C468.659 26.1549 468.528 24.8578 468.577 24.7193C466.821 20.6233 466.746 22.7189 465.625 23.0365Z" fill="#717171"/>
<path d="M474.367 62.3458C476.31 65.6481 476.698 66.3085 477.305 70.3967C474.116 71.0878 471.962 73.5401 468.064 77.6115C470.006 80.9134 470.395 81.5744 471.002 85.6623C465.331 83.6643 449.56 72.1392 445.83 65.7989C433.785 45.3249 440.634 38.6283 440.695 34.1473C447.22 34.9242 458.442 31.7397 468.731 26.7862C470.135 26.1102 471.522 25.4012 472.877 24.6648C480.718 20.4039 487.499 15.2263 490.447 10.2118C485.759 23.6383 491.988 23.5295 491.757 30.7778C498.873 33.7038 496.42 38.7032 509.097 41.9134C503.645 43.343 493.218 50.0702 491.064 52.5225L484.385 56.4519C481.196 57.143 478.265 58.2744 474.367 62.3458Z" fill="#919191"/>
<path d="M517.412 112.59L524.091 108.661C527.061 115.362 527.581 115.885 530.623 114.711C531.099 114.527 531.805 114.213 532.336 114.039C532.647 116.81 534.302 127.67 535.314 135.195C529.027 130.774 520.338 124.051 518.269 122.315C518.679 121.935 519.089 121.593 519.481 121.266C521.985 119.176 521.278 119.16 517.412 112.59Z" fill="#696969"/>
<path d="M504.59 90.7952C503.424 88.8138 501.469 86.4077 497.195 88.9225C501.469 86.4077 500.316 83.5302 499.15 81.5489L505.829 77.6195C506.995 79.6009 508.95 82.0069 513.224 79.4922C508.95 82.0069 510.103 84.8845 511.269 86.8658L504.59 90.7952Z" fill="#696969"/>
<path fill-rule="evenodd" clip-rule="evenodd" d="M484.385 56.4519L499.15 81.5489L505.829 77.6195L491.064 52.5225L484.385 56.4519Z" fill="#5C4331"/>
<path d="M511.269 86.8658L524.091 108.661L517.412 112.59L506.207 93.5445L504.59 90.7952L511.269 86.8658Z" fill="#5F3313"/>
<path d="M511.269 86.8658C509.344 88.6875 505.636 92.5736 506.207 93.5445M515.91 94.754C513.985 96.5757 510.277 100.462 510.848 101.433M513.65 90.913C511.725 92.7347 508.017 96.6208 508.588 97.5916M520.982 103.376C519.057 105.197 515.349 109.083 515.92 110.054M518.312 98.8366C516.386 100.658 512.679 104.544 513.25 105.515" stroke="#7C7C7C" stroke-width="0.35"/>
</svg>
