<svg width="125" height="233" viewBox="0 0 125 233" fill="none" xmlns="http://www.w3.org/2000/svg">
<path fill-rule="evenodd" clip-rule="evenodd" d="M80.6565 226.721C82.2678 229.863 85.1208 231.425 85.5175 231.592C86.9194 232.183 89.9523 223.261 89.9523 223.261C85.1519 215.215 79.0246 202.394 80.6895 195.54C81.0852 193.911 82.1193 191.26 83.4225 187.918C88.9729 173.686 99.4041 146.939 86.1768 133.383C78.0363 125.04 74.3844 120.833 72.6097 118.289L67.2783 120.274C69.3079 122.928 73.2877 127.29 81.8806 136.096C94.9477 149.488 84.1459 175.688 78.2381 190.017C76.7617 193.598 72.0529 197.755 71.6367 199.468C70.443 204.383 76.5741 218.759 80.6565 226.721ZM63.2912 109.514L68.6137 107.531C68.2923 104.413 68.2808 98.8476 68.8922 87.4985C69.9082 68.6384 44.3713 55.286 30.783 48.1812C27.5927 46.5131 25.0611 45.1894 23.6864 44.2196C17.9026 40.1395 14.0513 26.4711 12.3545 17.2695C12.3545 17.2695 2.61224 13.1051 1.94585 14.4665C1.75729 14.8517 2.1987 17.3105 3.05968 20.731C5.24167 29.3998 10.1185 44.2457 14.2658 47.1713C15.7114 48.1911 22.0085 48.2497 25.4878 49.9853C39.4095 56.9299 64.8641 69.6274 63.8604 88.2592C63.2141 100.255 63.0868 106.15 63.2912 109.514Z" fill="#EEB879"/>
<path d="M70.293 113.137C69.926 112.163 69.5524 111.553 69.2349 110.64C68.9815 109.91 68.7638 108.988 68.6137 107.531L63.2912 109.514C63.3151 109.907 63.3435 110.265 63.3761 110.595C63.4618 111.46 63.5765 112.125 63.7149 112.695C63.9489 113.659 64.2506 114.348 64.594 115.26C64.9215 116.129 65.1441 116.821 65.563 117.646C65.8219 118.156 66.1558 118.716 66.6359 119.4C66.6493 119.419 66.6628 119.438 66.6764 119.458C66.8559 119.712 67.0553 119.983 67.2783 120.274L72.6097 118.289C72.3981 117.985 72.2131 117.706 72.0505 117.445C72.04 117.429 72.0297 117.412 72.0194 117.395C71.571 116.672 71.2832 116.104 71.083 115.59C70.7568 114.753 70.6426 114.065 70.293 113.137Z" fill="#5C4331"/>
<path d="M63.3356 110.146C63.3356 110.146 66.0829 109.587 66.8565 109.299C67.6301 109.011 68.6857 108.153 68.6857 108.153M63.6462 112.396C63.6462 112.396 66.603 111.831 67.3766 111.543C68.1502 111.255 69.1395 110.35 69.1395 110.35M64.74 115.653L70.4334 113.533M63.4684 111.206C63.4684 111.206 66.1948 110.748 66.9684 110.459C67.742 110.171 68.8536 109.201 68.8536 109.201M63.9213 113.434C63.9213 113.434 67.0068 112.903 67.7804 112.615C68.554 112.327 69.5367 111.405 69.5367 111.405M64.3707 114.678L70.0586 112.56M66.8809 119.743C66.8809 119.743 69.2283 118.435 70.0019 118.147C70.7755 117.859 72.3321 117.882 72.3321 117.882M65.6729 117.857C65.6729 117.857 68.4162 116.279 69.1899 115.991C69.9635 115.703 71.1721 115.81 71.1721 115.81M66.2781 118.873C66.2781 118.873 68.8312 117.381 69.6048 117.093C70.3784 116.805 71.6972 116.855 71.6972 116.855M65.1903 116.835C65.1903 116.835 67.8893 115.246 68.6629 114.958C69.4365 114.67 70.7982 114.747 70.7982 114.747" stroke="black" stroke-width="0.4" stroke-linecap="round"/>
<path d="M9.14621 24.9478C9.14621 24.9478 32.6767 87.9557 48.3127 128.92C63.5176 168.755 82.5122 219.706 82.5122 219.706" stroke="#FFF9F9" stroke-width="2" stroke-linecap="round"/>
<path d="M26.3217 128.205L32.6223 130.018L29.7367 131.585L26.6265 130.736L16.1832 136.404L15.043 134.328L26.3217 128.205Z" fill="#601D1D"/>
<path d="M117.991 86.5328C113.524 86.8741 100.719 89.6591 99.9025 89.6857C100.479 91.039 98.3799 97.1778 96.1069 97.5785L96.8118 98.8623C98.3799 97.1778 104.709 98.7417 105.542 99.956C106.006 99.2876 115.463 90.4045 117.991 86.5328Z" fill="#3E3E3E"/>
<path fill-rule="evenodd" clip-rule="evenodd" d="M120.808 85.0037C114.903 85.3448 99.0222 88.2367 97.9419 88.2503C99.086 89.7123 97.043 96.185 94.0442 96.6672L94.0485 96.6751L96.4673 101.08L96.4697 101.078C98.5014 98.8346 105.078 100.625 105.696 102.372C106.291 101.476 117.568 90.1991 120.808 85.0037ZM99.9025 89.6857C100.719 89.6591 113.524 86.8741 117.991 86.5328C115.463 90.4045 106.006 99.2876 105.542 99.956C104.709 98.7417 98.3799 97.1778 96.8118 98.8623L96.1069 97.5785C98.3799 97.1778 100.479 91.039 99.9025 89.6857Z" fill="#717171"/>
<path d="M96.4697 101.078L96.4673 101.08L94.0485 96.6751C93.7812 96.8149 92.3729 96.865 91.9034 96.01C92.3746 96.8683 91.5627 98.0244 91.303 98.1654L93.7212 102.57L93.7261 102.578C93.9858 102.437 95.403 102.384 95.8742 103.242C95.403 102.384 96.2149 101.227 96.4746 101.087L96.4697 101.078Z" fill="#383838"/>
<path d="M17.6743 138.132C17.5128 138.22 17.3691 138.328 17.2447 138.45C16.6584 139.029 16.5 139.944 16.9156 140.701L17.5094 141.782C17.9344 142.556 18.8241 142.918 19.646 142.711C19.7983 142.673 19.9482 142.615 20.0925 142.537L93.7212 102.57L91.303 98.1654L17.6743 138.132Z" fill="#885D3E"/>
<path d="M33.1633 140.666L35.0405 134.422L32.1549 135.989L31.1876 139.042L20.7443 144.711L21.8846 146.788L33.1633 140.666Z" fill="#601D1D"/>
<path d="M15.9552 135.989L17.2447 138.45C17.3691 138.328 17.5128 138.22 17.6743 138.132L29.7367 131.585L26.6265 130.736L16.1832 136.404L15.9552 135.989Z" fill="#9E4E13"/>
<path d="M32.1549 135.989L20.0925 142.537C19.9482 142.615 19.7983 142.673 19.646 142.711L20.7443 144.711L31.1876 139.042L32.1549 135.989Z" fill="#9E4E13"/>
</svg>
