<svg width="128" height="128" viewBox="0 0 128 128" fill="none" xmlns="http://www.w3.org/2000/svg">
<mask id="path-1-inside-1_393_212" fill="white">
<path d="M43.9467 33.4719C43.2142 33.3388 41.7035 33.2219 40.8373 33.2312C39.7183 33.2433 39.0744 33.4167 38.5931 33.8355C38.4927 33.9229 37.721 35.1797 36.5277 37.1994C34.6492 40.3787 34.6211 40.4227 34.5136 40.3497C34.454 40.3084 34.1984 40.0711 33.9463 39.8212C33.0888 38.9709 32.8434 38.8139 26.9934 35.3732C20.6836 31.662 19.8129 31.1013 17.1762 29.0536C15.2225 27.5361 14.5549 26.8003 14.1661 25.7353C13.9474 25.1362 13.7647 24.9061 13.2364 24.5643C12.1475 23.8598 11.1242 23.9086 9.92383 24.7224C8.86767 25.4385 8.01463 26.458 7.0135 28.2009C6.0257 29.9204 5.5545 31.2075 5.45429 32.4594C5.346 33.8121 5.88832 34.8622 6.97802 35.41C7.49078 35.6678 7.78721 35.7052 8.53158 35.6065C9.76761 35.4426 11.0101 35.7746 14.0578 37.0828C16.6646 38.2018 20.5571 40.2658 24.4545 42.5958C27.4111 44.3633 29.1997 45.303 30.1587 45.5931C30.5317 45.7059 30.9681 45.8217 31.1285 45.8505C31.4133 45.9016 31.4192 45.906 31.3752 46.0438C31.3505 46.1215 30.517 47.6102 29.523 49.352L27.7157 52.519L27.6795 52.9389C27.5999 53.8634 28.1703 55.1076 29.4514 56.8045C29.9941 57.5233 30.3111 57.8487 30.6714 58.0566C31.0879 58.2971 31.2197 58.2519 31.4483 57.79C31.6052 57.4728 31.6288 57.2998 31.6531 56.2844C31.6977 54.42 31.8942 53.314 32.4314 51.9037C32.7864 50.9719 33.593 49.2387 34.0011 48.5308L34.3097 47.9954L37.6587 49.9803C39.5007 51.0719 42.5516 52.898 44.4387 54.0379C49.1228 56.8679 73.5821 70.9845 77.4136 73.0692C78.9533 73.907 80.5215 74.7386 80.8984 74.9173C81.2754 75.096 81.958 75.4218 82.4153 75.6415C84.5669 76.6754 87.7459 77.9702 91.3519 79.2816C93.8787 80.2005 98.8409 81.7254 99.6475 81.8309C99.9189 81.8664 99.9877 81.7878 99.8418 81.6088C99.7033 81.439 97.8579 79.6653 96.3921 78.2934C94.758 76.7639 93.9125 76.0327 89.4977 72.3315L87.9214 71.01L85.9407 69.7542C79.691 65.7922 63.5521 56.3653 50.6442 49.1371C46.9393 47.0624 42.5346 44.595 40.856 43.6541L37.8039 41.9434L38.1133 41.4078C38.7225 40.3533 39.8527 38.7809 40.646 37.8842C41.2841 37.163 42.0594 36.534 43.3696 35.6747C44.4336 34.977 44.709 34.7668 44.8771 34.5244C45.0502 34.2748 45.0747 34.1977 45.032 34.038C44.9607 33.7721 44.6184 33.5939 43.9467 33.4719Z"/>
</mask>
<path d="M43.9467 33.4719C43.2142 33.3388 41.7035 33.2219 40.8373 33.2312C39.7183 33.2433 39.0744 33.4167 38.5931 33.8355C38.4927 33.9229 37.721 35.1797 36.5277 37.1994C34.6492 40.3787 34.6211 40.4227 34.5136 40.3497C34.454 40.3084 34.1984 40.0711 33.9463 39.8212C33.0888 38.9709 32.8434 38.8139 26.9934 35.3732C20.6836 31.662 19.8129 31.1013 17.1762 29.0536C15.2225 27.5361 14.5549 26.8003 14.1661 25.7353C13.9474 25.1362 13.7647 24.9061 13.2364 24.5643C12.1475 23.8598 11.1242 23.9086 9.92383 24.7224C8.86767 25.4385 8.01463 26.458 7.0135 28.2009C6.0257 29.9204 5.5545 31.2075 5.45429 32.4594C5.346 33.8121 5.88832 34.8622 6.97802 35.41C7.49078 35.6678 7.78721 35.7052 8.53158 35.6065C9.76761 35.4426 11.0101 35.7746 14.0578 37.0828C16.6646 38.2018 20.5571 40.2658 24.4545 42.5958C27.4111 44.3633 29.1997 45.303 30.1587 45.5931C30.5317 45.7059 30.9681 45.8217 31.1285 45.8505C31.4133 45.9016 31.4192 45.906 31.3752 46.0438C31.3505 46.1215 30.517 47.6102 29.523 49.352L27.7157 52.519L27.6795 52.9389C27.5999 53.8634 28.1703 55.1076 29.4514 56.8045C29.9941 57.5233 30.3111 57.8487 30.6714 58.0566C31.0879 58.2971 31.2197 58.2519 31.4483 57.79C31.6052 57.4728 31.6288 57.2998 31.6531 56.2844C31.6977 54.42 31.8942 53.314 32.4314 51.9037C32.7864 50.9719 33.593 49.2387 34.0011 48.5308L34.3097 47.9954L37.6587 49.9803C39.5007 51.0719 42.5516 52.898 44.4387 54.0379C49.1228 56.8679 73.5821 70.9845 77.4136 73.0692C78.9533 73.907 80.5215 74.7386 80.8984 74.9173C81.2754 75.096 81.958 75.4218 82.4153 75.6415C84.5669 76.6754 87.7459 77.9702 91.3519 79.2816C93.8787 80.2005 98.8409 81.7254 99.6475 81.8309C99.9189 81.8664 99.9877 81.7878 99.8418 81.6088C99.7033 81.439 97.8579 79.6653 96.3921 78.2934C94.758 76.7639 93.9125 76.0327 89.4977 72.3315L87.9214 71.01L85.9407 69.7542C79.691 65.7922 63.5521 56.3653 50.6442 49.1371C46.9393 47.0624 42.5346 44.595 40.856 43.6541L37.8039 41.9434L38.1133 41.4078C38.7225 40.3533 39.8527 38.7809 40.646 37.8842C41.2841 37.163 42.0594 36.534 43.3696 35.6747C44.4336 34.977 44.709 34.7668 44.8771 34.5244C45.0502 34.2748 45.0747 34.1977 45.032 34.038C44.9607 33.7721 44.6184 33.5939 43.9467 33.4719Z" fill="#C74116"/>
<path d="M43.9467 33.4719L44.2147 31.996L44.2149 31.996L43.9467 33.4719ZM40.8373 33.2312L40.8212 31.7313L40.8212 31.7313L40.8373 33.2312ZM38.5931 33.8355L37.6084 32.704L37.6084 32.704L38.5931 33.8355ZM36.5277 37.1994L37.8191 37.9624L37.8191 37.9624L36.5277 37.1994ZM34.5136 40.3497L33.6709 41.5907L33.6597 41.5829L34.5136 40.3497ZM33.9463 39.8212L32.8903 40.8865L32.8901 40.8863L33.9463 39.8212ZM26.9934 35.3732L27.7539 34.0802L27.7539 34.0802L26.9934 35.3732ZM17.1762 29.0536L16.2561 30.2383L16.2561 30.2382L17.1762 29.0536ZM14.1661 25.7353L12.7571 26.2498L12.7571 26.2498L14.1661 25.7353ZM13.2364 24.5643L12.4216 25.8237L12.4216 25.8237L13.2364 24.5643ZM9.92383 24.7224L9.08208 23.4809L9.08208 23.4809L9.92383 24.7224ZM7.0135 28.2009L8.31419 28.948L8.31417 28.9481L7.0135 28.2009ZM5.45429 32.4594L6.9495 32.5791L6.9495 32.5791L5.45429 32.4594ZM6.97802 35.41L7.6517 34.0698L7.65177 34.0698L6.97802 35.41ZM8.53158 35.6065L8.33438 34.1195L8.33441 34.1195L8.53158 35.6065ZM14.0578 37.0828L14.6495 35.7044L14.6495 35.7044L14.0578 37.0828ZM24.4545 42.5958L25.2242 41.3083L25.2242 41.3083L24.4545 42.5958ZM30.1587 45.5931L29.7247 47.0289L29.7243 47.0288L30.1587 45.5931ZM31.1285 45.8505L31.3931 44.374L31.3938 44.3741L31.1285 45.8505ZM31.3752 46.0438L32.8044 46.4994L32.8043 46.4996L31.3752 46.0438ZM29.523 49.352L28.2202 48.6086L28.2202 48.6086L29.523 49.352ZM27.7157 52.519L26.2212 52.3904L26.2495 52.0619L26.4129 51.7756L27.7157 52.519ZM27.6795 52.9389L26.1851 52.8102L26.1851 52.8102L27.6795 52.9389ZM29.4514 56.8045L30.6486 55.9007L30.6486 55.9007L29.4514 56.8045ZM31.4483 57.79L32.7926 58.4554L32.7926 58.4554L31.4483 57.79ZM31.6531 56.2844L33.1526 56.3203L33.1526 56.3203L31.6531 56.2844ZM32.4314 51.9037L33.8332 52.4376L33.8332 52.4376L32.4314 51.9037ZM34.0011 48.5308L35.3006 49.28L35.3006 49.28L34.0011 48.5308ZM34.3097 47.9954L33.0102 47.2463L33.7685 45.931L35.0745 46.705L34.3097 47.9954ZM37.6587 49.9803L36.894 51.2707L36.8939 51.2707L37.6587 49.9803ZM44.4387 54.0379L45.2143 52.754L45.2143 52.7541L44.4387 54.0379ZM77.4136 73.0692L78.1305 71.7516L78.1306 71.7516L77.4136 73.0692ZM80.8984 74.9173L81.5409 73.5619L81.5409 73.5619L80.8984 74.9173ZM82.4153 75.6415L81.7656 76.9935L81.7656 76.9935L82.4153 75.6415ZM91.3519 79.2816L91.8645 77.8719L91.8645 77.8719L91.3519 79.2816ZM99.6475 81.8309L99.8421 80.3436L99.8422 80.3436L99.6475 81.8309ZM99.8418 81.6088L101.004 80.661L101.005 80.6611L99.8418 81.6088ZM96.3921 78.2934L95.3671 79.3885L95.3671 79.3885L96.3921 78.2934ZM89.4977 72.3315L88.534 73.4809L88.534 73.4809L89.4977 72.3315ZM87.9214 71.01L88.7246 69.7431L88.8087 69.7965L88.8851 69.8605L87.9214 71.01ZM85.9407 69.7542L86.7438 68.4873L86.7439 68.4873L85.9407 69.7542ZM50.6442 49.1371L51.3771 47.8283L51.3771 47.8283L50.6442 49.1371ZM40.856 43.6541L40.1226 44.9626L40.1225 44.9626L40.856 43.6541ZM37.8039 41.9434L37.0705 43.2518L35.745 42.5088L36.5051 41.1931L37.8039 41.9434ZM38.1133 41.4078L36.8144 40.6575L36.8145 40.6575L38.1133 41.4078ZM40.646 37.8842L41.7695 38.8781L41.7695 38.8781L40.646 37.8842ZM43.3696 35.6747L44.1922 36.9291L44.1922 36.9291L43.3696 35.6747ZM44.8771 34.5244L43.6445 33.6696L43.6445 33.6696L44.8771 34.5244ZM45.032 34.038L46.4809 33.6498L46.481 33.6503L45.032 34.038ZM43.6787 34.9477C43.0537 34.8342 41.6394 34.7227 40.8534 34.7312L40.8212 31.7313C41.7676 31.7212 43.3748 31.8435 44.2147 31.996L43.6787 34.9477ZM40.8534 34.7312C39.8481 34.742 39.6511 34.9032 39.5778 34.9671L37.6084 32.704C38.4977 31.9301 39.5886 31.7446 40.8212 31.7313L40.8534 34.7312ZM39.5778 34.967C39.6435 34.9099 39.6877 34.8607 39.7035 34.843C39.7237 34.8202 39.7375 34.8029 39.7433 34.7956C39.7546 34.7813 39.7574 34.7768 39.7488 34.789C39.7323 34.8122 39.7016 34.8575 39.6534 34.9316C39.5587 35.0772 39.4234 35.2929 39.2485 35.5777C38.9002 36.1449 38.4138 36.9558 37.8191 37.9624L35.2363 36.4363C35.8348 35.4233 36.331 34.5959 36.692 34.008C36.8717 33.7152 37.0227 33.4741 37.1383 33.2964C37.1952 33.2088 37.2505 33.1258 37.3002 33.0556C37.3246 33.0212 37.3554 32.9787 37.3896 32.9354C37.4058 32.915 37.4882 32.8086 37.6084 32.704L39.5778 34.967ZM37.8191 37.9624C36.8897 39.5354 36.394 40.374 36.1203 40.8021C36.0172 40.9634 35.8429 41.2379 35.6276 41.4368C35.5134 41.5424 35.1575 41.8488 34.5974 41.865C34.3156 41.8732 34.085 41.8033 33.9255 41.7326C33.7861 41.6708 33.6843 41.5997 33.6709 41.5906L35.3563 39.1087C35.3515 39.1055 35.3281 39.0896 35.296 39.0703C35.2631 39.0505 35.21 39.0204 35.1411 38.9899C34.9947 38.925 34.7776 38.8586 34.5105 38.8663C33.9798 38.8817 33.6585 39.1717 33.5913 39.2338C33.4702 39.3457 33.4406 39.4241 33.5927 39.1862C33.8296 38.8157 34.2871 38.0427 35.2363 36.4363L37.8191 37.9624ZM33.6597 41.5829C33.52 41.4862 33.3503 41.3269 33.2803 41.2617C33.1649 41.1544 33.0266 41.0216 32.8903 40.8865L35.0022 38.7559C35.118 38.8706 35.2336 38.9814 35.324 39.0656C35.3696 39.108 35.4042 39.1394 35.4267 39.1592C35.4381 39.1692 35.4418 39.1723 35.4396 39.1704C35.4383 39.1693 35.4325 39.1646 35.4233 39.1574C35.4157 39.1515 35.3957 39.136 35.3675 39.1165L33.6597 41.5829ZM32.8901 40.8863C32.2026 40.2046 32.1795 40.1636 26.233 36.6661L27.7539 34.0802C33.5073 37.4642 33.9749 37.7372 35.0025 38.7561L32.8901 40.8863ZM26.233 36.6661C19.9169 32.9513 18.9746 32.3495 16.2561 30.2383L18.0963 27.8689C20.6512 29.8531 21.4502 30.3727 27.7539 34.0802L26.233 36.6661ZM16.2561 30.2382C14.2867 28.7086 13.3044 27.7489 12.7571 26.2498L15.5752 25.2209C15.8054 25.8516 16.1583 26.3637 18.0963 27.8689L16.2561 30.2382ZM12.7571 26.2498C12.6691 26.0088 12.6348 25.9761 12.6426 25.986C12.6515 25.9973 12.6304 25.9588 12.4216 25.8237L14.0512 23.3049C14.3707 23.5116 14.705 23.759 14.9921 24.1206C15.278 24.4807 15.4444 24.8627 15.5752 25.2209L12.7571 26.2498ZM12.4216 25.8237C12.079 25.602 11.8564 25.5645 11.6934 25.5723C11.5116 25.581 11.2197 25.6561 10.7656 25.964L9.08208 23.4809C9.82828 22.975 10.6482 22.6188 11.5504 22.5757C12.4713 22.5317 13.3048 22.822 14.0512 23.3049L12.4216 25.8237ZM10.7656 25.964C9.97564 26.4995 9.26036 27.3009 8.31419 28.948L5.71282 27.4538C6.7689 25.6152 7.7597 24.3774 9.08208 23.4809L10.7656 25.964ZM8.31417 28.9481C7.37967 30.5748 7.02473 31.6394 6.9495 32.5791L3.95907 32.3397C4.08428 30.7756 4.67173 29.2661 5.71284 27.4537L8.31417 28.9481ZM6.9495 32.5791C6.88284 33.4118 7.18258 33.834 7.6517 34.0698L6.30434 36.7502C4.59406 35.8905 3.80916 34.2124 3.95907 32.3397L6.9495 32.5791ZM7.65177 34.0698C7.74329 34.1158 7.79253 34.1354 7.81868 34.1444C7.83914 34.1514 7.84776 34.1527 7.85616 34.1538C7.8889 34.1579 7.99227 34.1649 8.33438 34.1195L8.72878 37.0935C8.32652 37.1469 7.90948 37.1844 7.47973 37.1301C7.01722 37.0716 6.64446 36.9212 6.30427 36.7502L7.65177 34.0698ZM8.33441 34.1195C10.0356 33.894 11.643 34.4139 14.6495 35.7044L13.4662 38.4612C10.3773 37.1353 9.49962 36.9913 8.72874 37.0935L8.33441 34.1195ZM14.6495 35.7044C17.3427 36.8605 21.2991 38.9618 25.2242 41.3083L23.6848 43.8833C19.8151 41.5698 15.9865 39.5431 13.4661 38.4612L14.6495 35.7044ZM25.2242 41.3083C28.2241 43.1017 29.8459 43.9313 30.593 44.1574L29.7243 47.0288C28.5535 46.6746 26.5981 45.6249 23.6848 43.8832L25.2242 41.3083ZM30.5927 44.1573C30.7622 44.2085 30.9481 44.261 31.1081 44.3035C31.188 44.3247 31.2575 44.3423 31.3125 44.3556C31.3737 44.3703 31.397 44.3747 31.3931 44.374L30.864 47.3269C30.6088 47.2812 30.0978 47.1417 29.7247 47.0289L30.5927 44.1573ZM31.3938 44.3741C31.4507 44.3843 31.5551 44.4027 31.6498 44.4258C31.694 44.4367 32.0065 44.5039 32.3 44.7337C32.4837 44.8776 32.666 45.0873 32.7812 45.3709C32.8914 45.6419 32.9021 45.8869 32.8928 46.0484C32.8841 46.201 32.8548 46.3214 32.8407 46.3756C32.8257 46.4332 32.8093 46.484 32.8044 46.4994L29.9461 45.5883C29.975 45.4975 29.9096 45.6688 29.8977 45.877C29.8897 46.0179 29.8982 46.245 30.0019 46.5002C30.1107 46.7681 30.2824 46.9641 30.4503 47.0956C30.6016 47.2141 30.7399 47.2729 30.8052 47.298C30.8745 47.3246 30.9257 47.3372 30.937 47.3399C30.9519 47.3436 30.9488 47.3422 30.8632 47.3268L31.3938 44.3741ZM32.8043 46.4996C32.7748 46.5924 32.7411 46.665 32.7367 46.6746C32.7248 46.7009 32.7137 46.7238 32.706 46.7393C32.6902 46.7713 32.6729 46.8047 32.6569 46.835C32.6242 46.8972 32.5812 46.9768 32.5313 47.0682C32.4306 47.2524 32.2902 47.5052 32.1214 47.8067C31.7832 48.4107 31.3242 49.222 30.8257 50.0955L28.2202 48.6086C28.7157 47.7402 29.1705 46.9362 29.5038 46.3411C29.6707 46.0429 29.8054 45.8002 29.899 45.629C29.9463 45.5426 29.9802 45.4796 30.0017 45.4387C30.0129 45.4175 30.017 45.4093 30.0166 45.41C30.0162 45.4108 30.015 45.4132 30.0132 45.4169C30.0115 45.4205 30.0084 45.427 30.0044 45.4359C30.0008 45.444 29.994 45.459 29.9859 45.4787C29.9795 45.4944 29.9632 45.5347 29.9461 45.5881L32.8043 46.4996ZM30.8258 50.0955L29.0185 53.2625L26.4129 51.7756L28.2202 48.6086L30.8258 50.0955ZM29.2101 52.6477L29.174 53.0675L26.1851 52.8102L26.2212 52.3904L29.2101 52.6477ZM29.174 53.0675C29.1648 53.1745 29.1846 53.446 29.4188 53.957C29.6491 54.4596 30.0427 55.0982 30.6486 55.9007L28.2543 57.7083C27.579 56.8139 27.0468 55.982 26.6916 55.2071C26.3403 54.4406 26.1147 53.6277 26.1851 52.8102L29.174 53.0675ZM30.6486 55.9007C31.1786 56.6027 31.3426 56.7121 31.4214 56.7576L29.9214 59.3557C29.2797 58.9852 28.8096 58.4438 28.2543 57.7083L30.6486 55.9007ZM31.4214 56.7576C31.4978 56.8017 31.4632 56.7734 31.3675 56.7447C31.2496 56.7093 30.9745 56.6543 30.6433 56.7679C30.3258 56.8769 30.1563 57.0736 30.106 57.1381C30.0616 57.1951 30.059 57.2154 30.1039 57.1247L32.7926 58.4554C32.7232 58.5955 32.6185 58.7947 32.472 58.9826C32.3197 59.178 32.0484 59.4575 31.6172 59.6055C31.1725 59.7581 30.772 59.6982 30.5052 59.6181C30.2605 59.5446 30.0532 59.4318 29.9214 59.3557L31.4214 56.7576ZM30.1039 57.1247C30.1255 57.081 30.1217 57.0839 30.1151 57.1046C30.1077 57.1274 30.1092 57.1326 30.1141 57.0969C30.1292 56.986 30.1408 56.7779 30.1535 56.2485L33.1526 56.3203C33.141 56.8063 33.1287 57.1924 33.0867 57.5012C33.0327 57.8985 32.9303 58.1771 32.7926 58.4554L30.1039 57.1247ZM30.1535 56.2485C30.2013 54.2524 30.4194 52.9718 31.0297 51.3697L33.8332 52.4376C33.369 53.6562 33.1941 54.5876 33.1526 56.3203L30.1535 56.2485ZM31.0297 51.3697C31.407 50.3791 32.2462 48.5714 32.7016 47.7816L35.3006 49.28C34.9397 49.9059 34.1657 51.5647 33.8332 52.4376L31.0297 51.3697ZM32.7016 47.7816L33.0102 47.2463L35.6093 48.7446L35.3006 49.28L32.7016 47.7816ZM35.0745 46.705L38.4235 48.6899L36.8939 51.2707L33.545 49.2858L35.0745 46.705ZM38.4235 48.6899C40.2693 49.7837 43.3238 51.612 45.2143 52.754L43.6631 55.3219C41.7794 54.184 38.7321 52.36 36.894 51.2707L38.4235 48.6899ZM45.2143 52.7541C49.8837 55.5752 74.323 69.68 78.1305 71.7516L76.6967 74.3868C72.8411 72.289 48.3618 58.1607 43.663 55.3218L45.2143 52.7541ZM78.1306 71.7516C79.6851 72.5975 81.2106 73.4053 81.5409 73.5619L80.2559 76.2727C79.8324 76.072 78.2215 75.2165 76.6967 74.3867L78.1306 71.7516ZM81.5409 73.5619C81.9205 73.7418 82.6055 74.0687 83.065 74.2895L81.7656 76.9935C81.3105 76.7748 80.6303 76.4502 80.2559 76.2727L81.5409 73.5619ZM83.0649 74.2895C85.1534 75.293 88.2808 76.5687 91.8645 77.8719L90.8392 80.6913C87.2109 79.3718 83.9803 78.0577 81.7656 76.9935L83.0649 74.2895ZM91.8645 77.8719C93.0943 78.3191 94.9397 78.9217 96.5854 79.4274C97.4063 79.6797 98.1676 79.9048 98.7688 80.0723C99.07 80.1562 99.3239 80.2236 99.5215 80.2722C99.6202 80.2965 99.6993 80.3147 99.7596 80.3274C99.825 80.3413 99.8481 80.3444 99.8421 80.3436L99.453 83.3182C99.1237 83.2752 98.5501 83.1255 97.9639 82.9623C97.3289 82.7854 96.5405 82.5521 95.7042 82.2951C94.0354 81.7823 92.1363 81.1629 90.8392 80.6913L91.8645 77.8719ZM99.8422 80.3436C99.8382 80.3431 99.8194 80.3407 99.7887 80.3397C99.7596 80.3387 99.7042 80.3385 99.6308 80.3474C99.5427 80.3582 99.1196 80.4153 98.7721 80.8127C98.3357 81.3116 98.3915 81.8852 98.4772 82.1644C98.5505 82.4029 98.6665 82.5411 98.6791 82.5565L101.005 80.6611C101.09 80.766 101.252 80.9811 101.345 81.2836C101.45 81.6268 101.499 82.2513 101.03 82.7878C100.65 83.2228 100.168 83.3041 99.9949 83.3253C99.777 83.3519 99.5826 83.3352 99.4528 83.3182L99.8422 80.3436ZM98.6792 82.5566C98.7117 82.5964 98.6529 82.5312 98.3993 82.282C98.1894 82.0759 97.9043 81.7996 97.5753 81.4833C96.9177 80.8514 96.0947 80.0695 95.3671 79.3885L97.4171 77.1982C98.1553 77.8891 98.9879 78.6801 99.6541 79.3204C99.987 79.6403 100.281 79.925 100.502 80.142C100.679 80.3161 100.903 80.5362 101.004 80.661L98.6792 82.5566ZM95.3671 79.3885C93.7666 77.8905 92.9504 77.1835 88.534 73.4809L90.4613 71.182C94.8746 74.8819 95.7494 75.6372 97.4171 77.1982L95.3671 79.3885ZM88.534 73.4809L86.9577 72.1594L88.8851 69.8605L90.4613 71.182L88.534 73.4809ZM87.1182 72.2768L85.1375 71.021L86.7439 68.4873L88.7246 69.7431L87.1182 72.2768ZM85.1376 71.0211C78.9237 67.0818 62.814 57.6711 49.9113 50.4458L51.3771 47.8283C64.2903 55.0595 80.4583 64.5027 86.7438 68.4873L85.1376 71.0211ZM49.9113 50.4458C46.2063 48.3711 41.8015 45.9036 40.1226 44.9626L41.5894 42.3457C43.2678 43.2864 47.6722 45.7536 51.3771 47.8283L49.9113 50.4458ZM40.1225 44.9626L37.0705 43.2518L38.5374 40.6349L41.5894 42.3457L40.1225 44.9626ZM36.5051 41.1931L36.8144 40.6575L39.4122 42.1581L39.1028 42.6936L36.5051 41.1931ZM36.8145 40.6575C37.4729 39.5177 38.6616 37.8634 39.5225 36.8903L41.7695 38.8781C41.0437 39.6984 39.972 41.189 39.4121 42.1582L36.8145 40.6575ZM39.5225 36.8903C40.2865 36.0268 41.1857 35.3132 42.547 34.4204L44.1922 36.9291C42.9331 37.7548 42.2816 38.2991 41.7695 38.8781L39.5225 36.8903ZM42.547 34.4204C43.0842 34.0681 43.3754 33.8691 43.5494 33.7364C43.7071 33.616 43.6841 33.6125 43.6445 33.6696L46.1097 35.3792C45.902 35.6788 45.6573 35.9015 45.3693 36.1213C45.0975 36.3287 44.719 36.5836 44.1922 36.9291L42.547 34.4204ZM43.6445 33.6696C43.6804 33.6179 43.6871 33.6055 43.6824 33.6136C43.6775 33.6222 43.6395 33.6876 43.6061 33.7926C43.5679 33.9128 43.5465 34.0492 43.5508 34.1913C43.5546 34.3183 43.5781 34.4075 43.583 34.4258L46.481 33.6503C46.5451 33.89 46.6048 34.2625 46.4649 34.7023C46.3649 35.0163 46.1856 35.2698 46.1097 35.3792L43.6445 33.6696ZM43.5831 34.4262C43.6355 34.6219 43.7339 34.7755 43.8335 34.8815C43.9252 34.9791 44.0037 35.0221 44.021 35.0311C44.0392 35.0405 44.0256 35.0311 43.9614 35.012C43.8993 34.9935 43.8076 34.9711 43.6785 34.9477L44.2149 31.996C44.6072 32.0673 45.0327 32.1753 45.408 32.3709C45.7944 32.5724 46.2963 32.9609 46.4809 33.6498L43.5831 34.4262Z" fill="black" mask="url(#path-1-inside-1_393_212)"/>
<path d="M112.108 64.2035C109.862 64.336 109.456 64.4509 108.844 65.1263C108.197 65.8405 108.082 66.6416 108.493 67.5652C108.658 67.9367 109.02 68.8961 109.297 69.6971C111.401 75.7743 109.858 82.5298 105.322 87.1018C103.917 88.5176 102.717 89.4105 101.068 90.2661C98.3429 91.6805 96.2513 92.192 93.1685 92.198C90.0942 92.2039 87.9714 91.7032 85.215 90.3221C84.1437 89.7852 83.9562 89.7328 83.2824 89.7814C82.3945 89.8455 81.7979 90.2161 81.4406 90.9253C81.0354 91.7298 80.4868 96.032 80.2858 99.9802C80.1583 102.484 80.3502 102.671 81.9571 101.605C83.0915 100.853 84.2537 100.414 85.6573 100.209C86.955 100.02 87.7092 100.088 88.7903 100.492C91.0064 101.319 93.1292 105.102 94.5641 110.78C94.6636 111.174 94.8077 111.394 95.0323 111.496C95.5026 111.71 95.8405 111.348 96.0288 110.428C96.5857 107.709 98.9009 104.324 101.097 103.019C102.794 102.011 105.117 101.577 106.926 101.93C110.63 102.653 116.405 105.393 121.31 108.756C122.945 109.877 123.292 110.023 123.594 109.722C123.92 109.396 123.729 108.913 122.701 107.46C119.718 103.248 117.211 98.2437 116.266 94.6126C114.873 89.2619 115.915 85.8781 119.64 83.6651C121.277 82.6923 124.092 81.7961 126.141 81.5955C127.297 81.4824 127.494 81.3686 127.443 80.843C127.404 80.4417 127.306 80.374 125.41 79.4285C123.068 78.2609 122.023 77.5749 120.8 76.4034C119.679 75.3292 119.178 74.5571 118.901 73.4759C118.494 71.8931 119.049 70.4499 120.686 68.8302C121.763 67.7652 122.973 66.9142 124.51 66.1418C125.437 65.676 125.697 65.377 125.538 64.9615C125.418 64.6491 124.887 64.5009 123.288 64.333C121.426 64.1373 114.577 64.058 112.108 64.2035ZM122.158 65.6319C122.407 65.7239 122.332 65.8087 121.495 66.3795C118.499 68.4217 117.012 71.1011 117.517 73.5426C117.971 75.7369 119.675 77.6741 122.832 79.5872L124.296 80.4742L123.726 80.6208C122.592 80.9126 121.031 81.4427 120.203 81.8175C117.25 83.1535 115.09 85.6217 114.514 88.3172C114.218 89.7045 114.337 92.4023 114.777 94.2573C115.576 97.6264 117.499 101.962 119.732 105.427C120.054 105.927 120.299 106.351 120.277 106.37C120.255 106.389 119.55 105.993 118.711 105.491C114.894 103.204 109.84 101.056 107.198 100.597C104.988 100.213 102.432 100.682 100.466 101.834C98.7717 102.827 96.8741 104.983 95.7899 107.148L95.2687 108.189L94.8389 106.949C94.6026 106.268 94.1185 105.099 93.7632 104.351C92.1988 101.062 90.544 99.4357 88.2054 98.89C86.6958 98.5378 84.1127 98.9319 82.4585 99.767C82.1142 99.9408 81.8008 100.083 81.7619 100.083C81.4612 100.083 82.2776 92.2556 82.6524 91.5439C82.9797 90.9226 83.3965 90.9338 84.7239 91.5998C86.0484 92.2643 88.0616 92.9596 89.586 93.2789C91.4228 93.6638 95.0798 93.6337 96.9501 93.2185C100.525 92.4247 103.535 90.7577 106.172 88.1098C109.746 84.5215 111.547 80.1954 111.545 75.2015C111.544 72.4365 111.125 70.3693 110.035 67.7522C109.509 66.4893 109.527 66.0496 110.117 65.7855C110.848 65.4575 121.323 65.3239 122.158 65.6319ZM122.004 88.7508C120.184 89.2339 119.372 91.1529 120.247 92.9042C120.857 94.1247 121.983 94.8277 123.355 94.8428C124.42 94.8546 125.209 94.4622 125.795 93.6291C126.251 92.981 126.409 91.8237 126.149 91.0374C125.603 89.3851 123.657 88.312 122.004 88.7508ZM123.887 90.3184C124.521 90.749 124.834 91.2332 124.91 91.8982C124.965 92.3932 124.921 92.5466 124.619 92.9054C124.194 93.4091 123.609 93.5908 122.911 93.4362C122.255 93.2913 121.849 92.9875 121.506 92.3857C121.083 91.6428 121.141 91.0114 121.683 90.4707C122.075 90.0799 122.221 90.0205 122.791 90.0205C123.254 90.0205 123.578 90.1085 123.887 90.3184ZM79.5321 104.478C78.5484 105.798 77.7086 108.026 77.7134 109.304C77.7239 112.094 80.7332 113.024 81.9885 110.625C82.5836 109.488 82.2283 107.018 81.1861 105.048C80.7533 104.229 80.647 104.116 80.2772 104.081C79.9338 104.047 79.7997 104.119 79.5321 104.478ZM80.6457 107.342C80.9798 108.491 81.0093 109.558 80.7218 110.103C80.1737 111.142 79.0374 110.604 79.0374 109.305C79.0374 108.769 79.4854 107.255 79.8631 106.514C80.1783 105.896 80.2461 105.968 80.6457 107.342Z" fill="black"/>
<path d="M122.158 65.6319C122.407 65.7239 122.332 65.8087 121.495 66.3795C118.499 68.4217 117.012 71.1011 117.517 73.5426C117.971 75.7369 119.675 77.6741 122.832 79.5872L124.296 80.4742L123.726 80.6208C122.592 80.9126 121.031 81.4427 120.203 81.8175C117.25 83.1535 115.09 85.6217 114.514 88.3172C114.218 89.7045 114.337 92.4023 114.777 94.2573C115.576 97.6264 117.499 101.962 119.732 105.427C120.054 105.927 120.299 106.351 120.277 106.37C120.255 106.389 119.55 105.993 118.711 105.491C114.894 103.204 109.84 101.056 107.198 100.597C104.988 100.213 102.432 100.682 100.466 101.834C98.7717 102.827 96.8741 104.983 95.7899 107.148L95.2687 108.189L94.8389 106.949C94.6026 106.268 94.1185 105.099 93.7632 104.351C92.1988 101.062 90.544 99.4357 88.2054 98.89C86.6958 98.5378 84.1127 98.9319 82.4585 99.767C82.1142 99.9408 81.8008 100.083 81.7619 100.083C81.4612 100.083 82.2776 92.2556 82.6524 91.5439C82.9797 90.9226 83.3965 90.9338 84.7239 91.5998C86.0484 92.2643 88.0616 92.9596 89.586 93.2789C91.4228 93.6638 95.0798 93.6337 96.9501 93.2185C100.525 92.4247 103.535 90.7577 106.172 88.1098C109.746 84.5215 111.547 80.1954 111.545 75.2015C111.544 72.4365 111.125 70.3693 110.035 67.7522C109.509 66.4893 109.527 66.0496 110.117 65.7855C110.848 65.4575 121.323 65.3239 122.158 65.6319Z" fill="#C74116"/>
<path d="M80.6457 107.342C80.9798 108.491 81.0093 109.558 80.7218 110.103C80.1737 111.142 79.0374 110.604 79.0374 109.305C79.0374 108.769 79.4854 107.255 79.8631 106.514C80.1783 105.896 80.2461 105.968 80.6457 107.342Z" fill="#C74116"/>
<path d="M123.887 90.3184C124.521 90.749 124.834 91.2332 124.91 91.8982C124.965 92.3932 124.921 92.5466 124.619 92.9054C124.194 93.4091 123.609 93.5908 122.911 93.4362C122.255 93.2913 121.849 92.9875 121.506 92.3857C121.083 91.6428 121.141 91.0114 121.683 90.4707C122.075 90.0799 122.221 90.0205 122.791 90.0205C123.254 90.0205 123.578 90.1085 123.887 90.3184Z" fill="#C74116"/>
</svg>
