<svg width="128" height="128" viewBox="0 0 128 128" fill="none" xmlns="http://www.w3.org/2000/svg">
<path d="M35.5968 81.294L33.5041 77.4826L33.4721 77.1215C33.4368 76.7235 33.5299 76.1876 33.8429 75.4637C34.1545 74.7431 34.6633 73.8837 35.3988 72.859L34.8077 72.414L35.3988 72.859C35.9643 72.0713 36.2607 71.7591 36.5185 71.581C36.6154 71.7848 36.6485 71.888 36.6845 73.1141C36.7543 75.4973 37.0072 76.9593 37.6905 78.8103C38.1297 80.0001 39.1159 82.1973 39.6279 83.1205L39.9984 83.7884L40.3667 84.4526L41.0134 84.054L44.9705 81.6151C47.1489 80.2725 50.7554 78.0273 52.9867 76.6251L52.9867 76.6251C58.5134 73.1517 87.4066 55.8174 91.923 53.2655C93.7506 52.2327 95.5824 51.225 96.0042 51.0178C96.4513 50.7982 97.2597 50.3984 97.8016 50.1285C100.313 48.8777 104.048 47.3051 108.304 45.7097C109.782 45.1557 111.984 44.4164 113.94 43.7992C114.748 43.5443 115.51 43.3113 116.159 43.1217C116.158 43.1225 116.157 43.1233 116.157 43.1241C115.379 43.907 114.405 44.875 113.544 45.7188L114.049 46.2658L113.544 45.7189C111.635 47.5894 110.653 48.4782 105.444 53.0422L103.624 54.6373L101.327 56.153C93.9632 61.0128 74.9078 72.5857 59.6554 81.4599C55.2768 84.0075 50.0711 87.0374 48.0871 88.1928L44.4801 90.2935L43.8236 90.6759L44.1928 91.3403L44.5641 92.0085C45.3184 93.3658 46.6992 95.3696 47.6793 96.5282C48.5012 97.4999 49.4844 98.3301 51.0702 99.426C51.7065 99.8657 52.0849 100.137 52.3275 100.331C52.5224 100.488 52.6036 100.575 52.6501 100.636C52.5265 100.684 52.3414 100.737 52.0736 100.786C51.2602 100.935 49.5177 101.065 48.5301 101.047C47.3065 101.025 46.7517 100.827 46.3726 100.5C46.3698 100.496 46.3667 100.492 46.3632 100.487C46.3315 100.44 46.2856 100.369 46.2247 100.271C46.1036 100.077 45.9355 99.7984 45.724 99.44C45.3016 98.7242 44.7145 97.706 43.9994 96.4475C42.8769 94.472 42.296 93.4504 41.9813 92.938C41.8399 92.7077 41.7054 92.499 41.5704 92.3681C41.5022 92.302 41.3184 92.1383 41.0321 92.1276C40.7536 92.1172 40.5563 92.2657 40.5351 92.2815C40.5343 92.2822 40.5338 92.2826 40.5335 92.2828L40.5277 92.2869C40.4363 92.3529 40.2971 92.4866 40.1926 92.5884C40.065 92.7127 39.9096 92.8688 39.7559 93.0285L39.7558 93.0286C38.8319 93.9883 38.6559 94.1197 31.6942 98.3773C24.2352 102.939 23.17 103.65 20.0167 106.207C17.7015 108.085 16.7575 109.112 16.2272 110.659L16.9237 110.901L16.2272 110.659C16.11 111.001 16.0249 111.166 15.9349 111.285C15.8461 111.403 15.7161 111.523 15.4327 111.714C14.894 112.077 14.4247 112.211 13.9719 112.185C13.5072 112.158 12.9741 111.959 12.327 111.497C11.1939 110.688 10.2384 109.521 9.06216 107.392L9.06215 107.392C7.90119 105.292 7.38684 103.797 7.27059 102.394C7.15226 100.965 7.67652 99.9979 8.64317 99.4939L8.6432 99.4939C8.90307 99.3584 9.05545 99.3087 9.21208 99.289C9.38617 99.2672 9.61639 99.2761 10.0439 99.3384L10.044 99.3384C11.745 99.5865 13.401 99.0863 16.9868 97.4944L16.7251 96.8492L16.9868 97.4944C20.1146 96.1057 24.7486 93.5531 29.3677 90.6811C32.8829 88.4953 34.9118 87.4011 35.9388 87.0821C36.3802 86.9452 36.8591 86.8172 37.001 86.7915L37.0013 86.7914L37.0045 86.7909C37.0808 86.777 37.1689 86.761 37.243 86.7425L37.2471 86.7415C37.3014 86.728 37.4742 86.6851 37.6307 86.5572C37.7303 86.4757 37.8249 86.3598 37.8834 86.207C37.9388 86.0621 37.9434 85.9315 37.9381 85.8446C37.9302 85.7156 37.891 85.5943 37.8819 85.5663C37.8813 85.5642 37.8808 85.5626 37.8805 85.5616L37.8804 85.5615C37.8602 85.4963 37.8301 85.4342 37.8245 85.4227L37.8238 85.4212C37.8107 85.3937 37.7947 85.3616 37.7773 85.3273C37.7421 85.2578 37.6938 85.1648 37.6348 85.0527C37.5164 84.8279 37.3499 84.5163 37.1479 84.1414C36.7436 83.3912 36.1941 82.3818 35.5968 81.294Z" fill="#C5A124" stroke="black" stroke-width="1.5"/>
<path d="M84.6857 50.4658L85.8129 49.5024C80.878 42.922 76.7167 38.4238 72.3826 35.1797C68.0378 31.9277 63.5555 29.9628 58.0165 28.3972L57.5371 29.813C64.4965 32.926 76.8652 42.1202 84.6857 50.4658ZM93.8488 43.7262L94.976 42.7628C89.0443 34.8532 84.0493 29.456 78.8531 25.5666C73.6461 21.6692 68.2732 19.3128 61.6235 17.4333L61.1441 18.8491C69.5385 22.604 84.4321 33.6773 93.8488 43.7262ZM104.545 37.2826L105.673 36.3192C98.1688 26.3132 91.859 19.4979 85.3029 14.5907C78.7362 9.67551 71.9586 6.70162 63.5571 4.32697L63.0776 5.74274C73.7355 10.5102 92.6114 24.5472 104.545 37.2826Z" fill="#C5A124" stroke="black" stroke-width="1.5"/>
</svg>
