<svg width="128" height="128" viewBox="0 0 128 128" fill="none" xmlns="http://www.w3.org/2000/svg">
<path fill-rule="evenodd" clip-rule="evenodd" d="M59.592 15.048L55.0449 10.4895C43.7712 12.4197 33.6894 17.8411 25.952 25.6014L27.1029 32.0364L20.5245 31.9543C14.0163 40.8803 10.176 51.8756 10.176 63.768C10.176 64.3892 10.1865 65.0079 10.2073 65.624L15.6238 68.9922L11.0946 73.744C13.1325 84.6668 18.4551 94.4338 25.9984 101.981L32.5003 100.829L32.4186 107.476C40.8971 113.658 51.2429 117.432 62.4509 117.795L66.3036 112.405L70.96 117.409C81.9763 116.042 91.9645 111.359 99.8952 104.391L99.0971 97.9933L105.692 98.4555C112.964 89.7736 117.559 78.7738 118.208 66.7254L113.311 62.8371L118.028 58.432C116.702 44.8963 110.383 32.8252 100.937 24.0844L94.7305 25.6805L94.16 18.76C85.545 12.9575 75.4 9.712 64.232 9.712C63.8929 9.712 63.5545 9.71512 63.2169 9.72134L59.592 15.048ZM85.344 64.928C85.344 75.9212 76.8483 84.9302 66.0644 85.7476C65.8347 85.765 65.6039 85.7787 65.3722 85.7886C65.0711 85.8015 64.7683 85.808 64.464 85.808C53.255 85.808 44.1089 76.9755 43.6058 65.8907C43.5995 65.7517 43.5945 65.6123 43.591 65.4726C43.5863 65.2916 43.584 65.1101 43.584 64.928C43.584 53.5037 52.759 44.2223 64.1425 44.0504L64.464 44.048C75.4572 44.048 84.4662 52.5437 85.2836 63.3276C85.301 63.5573 85.3147 63.7881 85.3246 64.0198C85.3375 64.3209 85.344 64.6237 85.344 64.928Z" fill="url(#paint0_linear_393_220)"/>
<path fill-rule="evenodd" clip-rule="evenodd" d="M122 64C122 96.0325 96.0325 122 64 122C31.9675 122 6 96.0325 6 64C6 31.9675 31.9675 6 64 6C96.0325 6 122 31.9675 122 64ZM59.592 15.048L55.0449 10.4895C43.7712 12.4197 33.6894 17.8411 25.952 25.6014L27.1029 32.0364L20.5245 31.9543C14.0163 40.8803 10.176 51.8756 10.176 63.768C10.176 64.3892 10.1865 65.0079 10.2073 65.624L15.6238 68.9922L11.0946 73.744C13.1325 84.6668 18.4551 94.4338 25.9984 101.981L32.5003 100.829L32.4186 107.476C40.8971 113.658 51.2429 117.432 62.4509 117.795L66.3036 112.405L70.96 117.409C81.9763 116.042 91.9645 111.359 99.8952 104.391L99.0971 97.9933L105.692 98.4555C112.964 89.7736 117.559 78.7738 118.208 66.7254L113.311 62.8371L118.028 58.432C116.702 44.8963 110.383 32.8252 100.937 24.0844L94.7305 25.6805L94.16 18.76C85.545 12.9575 75.4 9.712 64.232 9.712C63.8929 9.712 63.5545 9.71512 63.2169 9.72134L59.592 15.048Z" fill="url(#paint1_radial_393_220)"/>
<path fill-rule="evenodd" clip-rule="evenodd" d="M59.592 15.048L55.0449 10.4895C43.7712 12.4197 33.6894 17.8411 25.952 25.6014L27.1029 32.0364L20.5245 31.9543C14.0163 40.8803 10.176 51.8756 10.176 63.768C10.176 64.3892 10.1865 65.0079 10.2073 65.624L15.6238 68.9922L11.0946 73.744C13.1325 84.6668 18.4551 94.4338 25.9984 101.981L32.5003 100.829L32.4186 107.476C40.8971 113.658 51.2429 117.432 62.4509 117.795L66.3036 112.405L70.96 117.409C81.9763 116.042 91.9645 111.359 99.8952 104.391L99.0971 97.9933L105.692 98.4555C112.964 89.7736 117.559 78.7738 118.208 66.7254L113.311 62.8371L118.028 58.432C116.702 44.8963 110.383 32.8252 100.937 24.0844L94.7305 25.6805L94.16 18.76C85.545 12.9575 75.4 9.712 64.232 9.712C63.8929 9.712 63.5545 9.71512 63.2169 9.72134L59.592 15.048ZM85.344 64.928C85.344 75.9212 76.8483 84.9302 66.0644 85.7476C65.8347 85.765 65.6039 85.7787 65.3722 85.7886C65.0711 85.8015 64.7683 85.808 64.464 85.808C53.255 85.808 44.1089 76.9755 43.6058 65.8907C43.5995 65.7517 43.5945 65.6123 43.591 65.4726C43.5863 65.2916 43.584 65.1101 43.584 64.928C43.584 53.5037 52.759 44.2223 64.1425 44.0504L64.464 44.048C75.4572 44.048 84.4662 52.5437 85.2836 63.3276C85.301 63.5573 85.3147 63.7881 85.3246 64.0198C85.3375 64.3209 85.344 64.6237 85.344 64.928Z" stroke="black" stroke-width="0.5"/>
<path fill-rule="evenodd" clip-rule="evenodd" d="M122 64C122 96.0325 96.0325 122 64 122C31.9675 122 6 96.0325 6 64C6 31.9675 31.9675 6 64 6C96.0325 6 122 31.9675 122 64ZM59.592 15.048L55.0449 10.4895C43.7712 12.4197 33.6894 17.8411 25.952 25.6014L27.1029 32.0364L20.5245 31.9543C14.0163 40.8803 10.176 51.8756 10.176 63.768C10.176 64.3892 10.1865 65.0079 10.2073 65.624L15.6238 68.9922L11.0946 73.744C13.1325 84.6668 18.4551 94.4338 25.9984 101.981L32.5003 100.829L32.4186 107.476C40.8971 113.658 51.2429 117.432 62.4509 117.795L66.3036 112.405L70.96 117.409C81.9763 116.042 91.9645 111.359 99.8952 104.391L99.0971 97.9933L105.692 98.4555C112.964 89.7736 117.559 78.7738 118.208 66.7254L113.311 62.8371L118.028 58.432C116.702 44.8963 110.383 32.8252 100.937 24.0844L94.7305 25.6805L94.16 18.76C85.545 12.9575 75.4 9.712 64.232 9.712C63.8929 9.712 63.5545 9.71512 63.2169 9.72134L59.592 15.048Z" stroke="black" stroke-width="0.5"/>
<g filter="url(#filter0_d_393_220)">
<path d="M68.176 116.664C68.176 117.561 67.4489 118.288 66.552 118.288C65.6551 118.288 64.928 117.561 64.928 116.664C64.928 115.767 65.6551 115.04 66.552 115.04C67.4489 115.04 68.176 115.767 68.176 116.664Z" fill="url(#paint2_radial_393_220)"/>
<path d="M68.176 116.664C68.176 117.561 67.4489 118.288 66.552 118.288C65.6551 118.288 64.928 117.561 64.928 116.664C64.928 115.767 65.6551 115.04 66.552 115.04C67.4489 115.04 68.176 115.767 68.176 116.664Z" fill="url(#paint3_radial_393_220)"/>
<path d="M68.176 116.664C68.176 117.561 67.4489 118.288 66.552 118.288C65.6551 118.288 64.928 117.561 64.928 116.664C64.928 115.767 65.6551 115.04 66.552 115.04C67.4489 115.04 68.176 115.767 68.176 116.664Z" stroke="black" stroke-width="0.5"/>
</g>
<g filter="url(#filter1_d_393_220)">
<path d="M25.4881 29.4321C25.4881 30.329 24.761 31.0561 23.8641 31.0561C22.9672 31.0561 22.2401 30.329 22.2401 29.4321C22.2401 28.5352 22.9672 27.8081 23.8641 27.8081C24.761 27.8081 25.4881 28.5352 25.4881 29.4321Z" fill="url(#paint4_radial_393_220)"/>
<path d="M25.4881 29.4321C25.4881 30.329 24.761 31.0561 23.8641 31.0561C22.9672 31.0561 22.2401 30.329 22.2401 29.4321C22.2401 28.5352 22.9672 27.8081 23.8641 27.8081C24.761 27.8081 25.4881 28.5352 25.4881 29.4321Z" fill="url(#paint5_radial_393_220)"/>
<path d="M25.4881 29.4321C25.4881 30.329 24.761 31.0561 23.8641 31.0561C22.9672 31.0561 22.2401 30.329 22.2401 29.4321C22.2401 28.5352 22.9672 27.8081 23.8641 27.8081C24.761 27.8081 25.4881 28.5352 25.4881 29.4321Z" stroke="black" stroke-width="0.5"/>
</g>
<g filter="url(#filter2_d_393_220)">
<path d="M12.9603 69.336C12.9603 70.2329 12.2332 70.96 11.3363 70.96C10.4394 70.96 9.71228 70.2329 9.71228 69.336C9.71228 68.4391 10.4394 67.712 11.3363 67.712C12.2332 67.712 12.9603 68.4391 12.9603 69.336Z" fill="url(#paint6_radial_393_220)"/>
<path d="M12.9603 69.336C12.9603 70.2329 12.2332 70.96 11.3363 70.96C10.4394 70.96 9.71228 70.2329 9.71228 69.336C9.71228 68.4391 10.4394 67.712 11.3363 67.712C12.2332 67.712 12.9603 68.4391 12.9603 69.336Z" fill="url(#paint7_radial_393_220)"/>
<path d="M12.9603 69.336C12.9603 70.2329 12.2332 70.96 11.3363 70.96C10.4394 70.96 9.71228 70.2329 9.71228 69.336C9.71228 68.4391 10.4394 67.712 11.3363 67.712C12.2332 67.712 12.9603 68.4391 12.9603 69.336Z" stroke="black" stroke-width="0.5"/>
</g>
<g filter="url(#filter3_d_393_220)">
<path d="M31.52 104.136C31.52 105.033 30.7929 105.76 29.896 105.76C28.9991 105.76 28.272 105.033 28.272 104.136C28.272 103.239 28.9991 102.512 29.896 102.512C30.7929 102.512 31.52 103.239 31.52 104.136Z" fill="url(#paint8_radial_393_220)"/>
<path d="M31.52 104.136C31.52 105.033 30.7929 105.76 29.896 105.76C28.9991 105.76 28.272 105.033 28.272 104.136C28.272 103.239 28.9991 102.512 29.896 102.512C30.7929 102.512 31.52 103.239 31.52 104.136Z" fill="url(#paint9_radial_393_220)"/>
<path d="M31.52 104.136C31.52 105.033 30.7929 105.76 29.896 105.76C28.9991 105.76 28.272 105.033 28.272 104.136C28.272 103.239 28.9991 102.512 29.896 102.512C30.7929 102.512 31.52 103.239 31.52 104.136Z" stroke="black" stroke-width="0.5"/>
</g>
<mask id="path-10-inside-1_393_220" fill="white">
<path fill-rule="evenodd" clip-rule="evenodd" d="M86.2721 65.1599C86.2721 77.3322 76.4045 87.1999 64.2321 87.1999C52.0598 87.1999 42.1921 77.3322 42.1921 65.1599C42.1921 52.9875 52.0598 43.1199 64.2321 43.1199C76.4045 43.1199 86.2721 52.9875 86.2721 65.1599Z"/>
</mask>
<path fill-rule="evenodd" clip-rule="evenodd" d="M86.2721 65.1599C86.2721 77.3322 76.4045 87.1999 64.2321 87.1999C52.0598 87.1999 42.1921 77.3322 42.1921 65.1599C42.1921 52.9875 52.0598 43.1199 64.2321 43.1199C76.4045 43.1199 86.2721 52.9875 86.2721 65.1599Z" fill="url(#paint10_radial_393_220)" stroke="black" mask="url(#path-10-inside-1_393_220)"/>
<g filter="url(#filter4_d_393_220)">
<path d="M45.6721 65.16C45.6721 66.0569 44.945 66.784 44.0481 66.784C43.1512 66.784 42.4241 66.0569 42.4241 65.16C42.4241 64.2631 43.1512 63.536 44.0481 63.536C44.945 63.536 45.6721 64.2631 45.6721 65.16Z" fill="url(#paint11_radial_393_220)"/>
<path d="M45.6721 65.16C45.6721 66.0569 44.945 66.784 44.0481 66.784C43.1512 66.784 42.4241 66.0569 42.4241 65.16C42.4241 64.2631 43.1512 63.536 44.0481 63.536C44.945 63.536 45.6721 64.2631 45.6721 65.16Z" fill="url(#paint12_radial_393_220)"/>
<path d="M45.6721 65.16C45.6721 66.0569 44.945 66.784 44.0481 66.784C43.1512 66.784 42.4241 66.0569 42.4241 65.16C42.4241 64.2631 43.1512 63.536 44.0481 63.536C44.945 63.536 45.6721 64.2631 45.6721 65.16Z" stroke="black" stroke-width="0.3"/>
</g>
<g filter="url(#filter5_d_393_220)">
<path d="M86.04 64.696C86.04 65.5929 85.3129 66.32 84.416 66.32C83.5191 66.32 82.792 65.5929 82.792 64.696C82.792 63.7991 83.5191 63.072 84.416 63.072C85.3129 63.072 86.04 63.7991 86.04 64.696Z" fill="url(#paint13_radial_393_220)"/>
<path d="M86.04 64.696C86.04 65.5929 85.3129 66.32 84.416 66.32C83.5191 66.32 82.792 65.5929 82.792 64.696C82.792 63.7991 83.5191 63.072 84.416 63.072C85.3129 63.072 86.04 63.7991 86.04 64.696Z" fill="url(#paint14_radial_393_220)"/>
<path d="M86.04 64.696C86.04 65.5929 85.3129 66.32 84.416 66.32C83.5191 66.32 82.792 65.5929 82.792 64.696C82.792 63.7991 83.5191 63.072 84.416 63.072C85.3129 63.072 86.04 63.7991 86.04 64.696Z" stroke="black" stroke-width="0.3"/>
</g>
<g filter="url(#filter6_d_393_220)">
<path d="M65.856 44.9759C65.856 45.8728 65.1289 46.5999 64.232 46.5999C63.3351 46.5999 62.608 45.8728 62.608 44.9759C62.608 44.079 63.3351 43.3519 64.232 43.3519C65.1289 43.3519 65.856 44.079 65.856 44.9759Z" fill="url(#paint15_radial_393_220)"/>
<path d="M65.856 44.9759C65.856 45.8728 65.1289 46.5999 64.232 46.5999C63.3351 46.5999 62.608 45.8728 62.608 44.9759C62.608 44.079 63.3351 43.3519 64.232 43.3519C65.1289 43.3519 65.856 44.079 65.856 44.9759Z" fill="url(#paint16_radial_393_220)"/>
<path d="M65.856 44.9759C65.856 45.8728 65.1289 46.5999 64.232 46.5999C63.3351 46.5999 62.608 45.8728 62.608 44.9759C62.608 44.079 63.3351 43.3519 64.232 43.3519C65.1289 43.3519 65.856 44.079 65.856 44.9759Z" stroke="black" stroke-width="0.3"/>
</g>
<g filter="url(#filter7_d_393_220)">
<path d="M65.722 85.2948C65.722 86.1917 64.9949 86.9188 64.098 86.9188C63.2011 86.9188 62.474 86.1917 62.474 85.2948C62.474 84.3979 63.2011 83.6708 64.098 83.6708C64.9949 83.6708 65.722 84.3979 65.722 85.2948Z" fill="url(#paint17_radial_393_220)"/>
<path d="M65.722 85.2948C65.722 86.1917 64.9949 86.9188 64.098 86.9188C63.2011 86.9188 62.474 86.1917 62.474 85.2948C62.474 84.3979 63.2011 83.6708 64.098 83.6708C64.9949 83.6708 65.722 84.3979 65.722 85.2948Z" fill="url(#paint18_radial_393_220)"/>
<path d="M65.722 85.2948C65.722 86.1917 64.9949 86.9188 64.098 86.9188C63.2011 86.9188 62.474 86.1917 62.474 85.2948C62.474 84.3979 63.2011 83.6708 64.098 83.6708C64.9949 83.6708 65.722 84.3979 65.722 85.2948Z" stroke="black" stroke-width="0.3"/>
</g>
<g filter="url(#filter8_d_393_220)">
<path d="M119.149 62.8399C119.149 63.7369 118.422 64.4639 117.525 64.4639C116.628 64.4639 115.901 63.7369 115.901 62.8399C115.901 61.943 116.628 61.2159 117.525 61.2159C118.422 61.2159 119.149 61.943 119.149 62.8399Z" fill="url(#paint19_radial_393_220)"/>
<path d="M119.149 62.8399C119.149 63.7369 118.422 64.4639 117.525 64.4639C116.628 64.4639 115.901 63.7369 115.901 62.8399C115.901 61.943 116.628 61.2159 117.525 61.2159C118.422 61.2159 119.149 61.943 119.149 62.8399Z" stroke="black" stroke-width="0.5"/>
</g>
<g filter="url(#filter9_d_393_220)">
<path d="M103.904 100.888C103.904 101.785 103.177 102.512 102.28 102.512C101.383 102.512 100.656 101.785 100.656 100.888C100.656 99.9912 101.383 99.2642 102.28 99.2642C103.177 99.2642 103.904 99.9912 103.904 100.888Z" fill="url(#paint20_radial_393_220)"/>
<path d="M103.904 100.888C103.904 101.785 103.177 102.512 102.28 102.512C101.383 102.512 100.656 101.785 100.656 100.888C100.656 99.9912 101.383 99.2642 102.28 99.2642C103.177 99.2642 103.904 99.9912 103.904 100.888Z" fill="url(#paint21_radial_393_220)"/>
<path d="M103.904 100.888C103.904 101.785 103.177 102.512 102.28 102.512C101.383 102.512 100.656 101.785 100.656 100.888C100.656 99.9912 101.383 99.2642 102.28 99.2642C103.177 99.2642 103.904 99.9912 103.904 100.888Z" stroke="black" stroke-width="0.5"/>
</g>
<g filter="url(#filter10_d_393_220)">
<path d="M60.7522 10.8722C60.7522 11.7691 60.0251 12.4962 59.1282 12.4962C58.2312 12.4962 57.5042 11.7691 57.5042 10.8722C57.5042 9.97526 58.2312 9.24817 59.1282 9.24817C60.0251 9.24817 60.7522 9.97526 60.7522 10.8722Z" fill="url(#paint22_radial_393_220)"/>
<path d="M60.7522 10.8722C60.7522 11.7691 60.0251 12.4962 59.1282 12.4962C58.2312 12.4962 57.5042 11.7691 57.5042 10.8722C57.5042 9.97526 58.2312 9.24817 59.1282 9.24817C60.0251 9.24817 60.7522 9.97526 60.7522 10.8722Z" fill="url(#paint23_radial_393_220)"/>
<path d="M60.7522 10.8722C60.7522 11.7691 60.0251 12.4962 59.1282 12.4962C58.2312 12.4962 57.5042 11.7691 57.5042 10.8722C57.5042 9.97526 58.2312 9.24817 59.1282 9.24817C60.0251 9.24817 60.7522 9.97526 60.7522 10.8722Z" stroke="black" stroke-width="0.5"/>
</g>
<g filter="url(#filter11_d_393_220)">
<path d="M98.7999 22.0079C98.7999 22.9048 98.0728 23.6319 97.1759 23.6319C96.279 23.6319 95.5519 22.9048 95.5519 22.0079C95.5519 21.111 96.279 20.3839 97.1759 20.3839C98.0728 20.3839 98.7999 21.111 98.7999 22.0079Z" fill="url(#paint24_radial_393_220)"/>
<path d="M98.7999 22.0079C98.7999 22.9048 98.0728 23.6319 97.1759 23.6319C96.279 23.6319 95.5519 22.9048 95.5519 22.0079C95.5519 21.111 96.279 20.3839 97.1759 20.3839C98.0728 20.3839 98.7999 21.111 98.7999 22.0079Z" fill="url(#paint25_radial_393_220)"/>
<path d="M98.7999 22.0079C98.7999 22.9048 98.0728 23.6319 97.1759 23.6319C96.279 23.6319 95.5519 22.9048 95.5519 22.0079C95.5519 21.111 96.279 20.3839 97.1759 20.3839C98.0728 20.3839 98.7999 21.111 98.7999 22.0079Z" stroke="black" stroke-width="0.5"/>
</g>
<defs>
<filter id="filter0_d_393_220" x="60.678" y="114.79" width="11.748" height="11.748" filterUnits="userSpaceOnUse" color-interpolation-filters="sRGB">
<feFlood flood-opacity="0" result="BackgroundImageFix"/>
<feColorMatrix in="SourceAlpha" type="matrix" values="0 0 0 0 0 0 0 0 0 0 0 0 0 0 0 0 0 0 127 0" result="hardAlpha"/>
<feOffset dy="4"/>
<feGaussianBlur stdDeviation="2"/>
<feComposite in2="hardAlpha" operator="out"/>
<feColorMatrix type="matrix" values="0 0 0 0 0 0 0 0 0 0 0 0 0 0 0 0 0 0 0.25 0"/>
<feBlend mode="normal" in2="BackgroundImageFix" result="effect1_dropShadow_393_220"/>
<feBlend mode="normal" in="SourceGraphic" in2="effect1_dropShadow_393_220" result="shape"/>
</filter>
<filter id="filter1_d_393_220" x="17.9901" y="27.5581" width="11.748" height="11.748" filterUnits="userSpaceOnUse" color-interpolation-filters="sRGB">
<feFlood flood-opacity="0" result="BackgroundImageFix"/>
<feColorMatrix in="SourceAlpha" type="matrix" values="0 0 0 0 0 0 0 0 0 0 0 0 0 0 0 0 0 0 127 0" result="hardAlpha"/>
<feOffset dy="4"/>
<feGaussianBlur stdDeviation="2"/>
<feComposite in2="hardAlpha" operator="out"/>
<feColorMatrix type="matrix" values="0 0 0 0 0 0 0 0 0 0 0 0 0 0 0 0 0 0 0.25 0"/>
<feBlend mode="normal" in2="BackgroundImageFix" result="effect1_dropShadow_393_220"/>
<feBlend mode="normal" in="SourceGraphic" in2="effect1_dropShadow_393_220" result="shape"/>
</filter>
<filter id="filter2_d_393_220" x="5.46228" y="67.462" width="11.748" height="11.748" filterUnits="userSpaceOnUse" color-interpolation-filters="sRGB">
<feFlood flood-opacity="0" result="BackgroundImageFix"/>
<feColorMatrix in="SourceAlpha" type="matrix" values="0 0 0 0 0 0 0 0 0 0 0 0 0 0 0 0 0 0 127 0" result="hardAlpha"/>
<feOffset dy="4"/>
<feGaussianBlur stdDeviation="2"/>
<feComposite in2="hardAlpha" operator="out"/>
<feColorMatrix type="matrix" values="0 0 0 0 0 0 0 0 0 0 0 0 0 0 0 0 0 0 0.25 0"/>
<feBlend mode="normal" in2="BackgroundImageFix" result="effect1_dropShadow_393_220"/>
<feBlend mode="normal" in="SourceGraphic" in2="effect1_dropShadow_393_220" result="shape"/>
</filter>
<filter id="filter3_d_393_220" x="24.022" y="102.262" width="11.748" height="11.748" filterUnits="userSpaceOnUse" color-interpolation-filters="sRGB">
<feFlood flood-opacity="0" result="BackgroundImageFix"/>
<feColorMatrix in="SourceAlpha" type="matrix" values="0 0 0 0 0 0 0 0 0 0 0 0 0 0 0 0 0 0 127 0" result="hardAlpha"/>
<feOffset dy="4"/>
<feGaussianBlur stdDeviation="2"/>
<feComposite in2="hardAlpha" operator="out"/>
<feColorMatrix type="matrix" values="0 0 0 0 0 0 0 0 0 0 0 0 0 0 0 0 0 0 0.25 0"/>
<feBlend mode="normal" in2="BackgroundImageFix" result="effect1_dropShadow_393_220"/>
<feBlend mode="normal" in="SourceGraphic" in2="effect1_dropShadow_393_220" result="shape"/>
</filter>
<filter id="filter4_d_393_220" x="38.274" y="63.386" width="11.548" height="11.548" filterUnits="userSpaceOnUse" color-interpolation-filters="sRGB">
<feFlood flood-opacity="0" result="BackgroundImageFix"/>
<feColorMatrix in="SourceAlpha" type="matrix" values="0 0 0 0 0 0 0 0 0 0 0 0 0 0 0 0 0 0 127 0" result="hardAlpha"/>
<feOffset dy="4"/>
<feGaussianBlur stdDeviation="2"/>
<feComposite in2="hardAlpha" operator="out"/>
<feColorMatrix type="matrix" values="0 0 0 0 0 0 0 0 0 0 0 0 0 0 0 0 0 0 0.25 0"/>
<feBlend mode="normal" in2="BackgroundImageFix" result="effect1_dropShadow_393_220"/>
<feBlend mode="normal" in="SourceGraphic" in2="effect1_dropShadow_393_220" result="shape"/>
</filter>
<filter id="filter5_d_393_220" x="78.642" y="62.922" width="11.548" height="11.548" filterUnits="userSpaceOnUse" color-interpolation-filters="sRGB">
<feFlood flood-opacity="0" result="BackgroundImageFix"/>
<feColorMatrix in="SourceAlpha" type="matrix" values="0 0 0 0 0 0 0 0 0 0 0 0 0 0 0 0 0 0 127 0" result="hardAlpha"/>
<feOffset dy="4"/>
<feGaussianBlur stdDeviation="2"/>
<feComposite in2="hardAlpha" operator="out"/>
<feColorMatrix type="matrix" values="0 0 0 0 0 0 0 0 0 0 0 0 0 0 0 0 0 0 0.25 0"/>
<feBlend mode="normal" in2="BackgroundImageFix" result="effect1_dropShadow_393_220"/>
<feBlend mode="normal" in="SourceGraphic" in2="effect1_dropShadow_393_220" result="shape"/>
</filter>
<filter id="filter6_d_393_220" x="58.458" y="43.2019" width="11.548" height="11.548" filterUnits="userSpaceOnUse" color-interpolation-filters="sRGB">
<feFlood flood-opacity="0" result="BackgroundImageFix"/>
<feColorMatrix in="SourceAlpha" type="matrix" values="0 0 0 0 0 0 0 0 0 0 0 0 0 0 0 0 0 0 127 0" result="hardAlpha"/>
<feOffset dy="4"/>
<feGaussianBlur stdDeviation="2"/>
<feComposite in2="hardAlpha" operator="out"/>
<feColorMatrix type="matrix" values="0 0 0 0 0 0 0 0 0 0 0 0 0 0 0 0 0 0 0.25 0"/>
<feBlend mode="normal" in2="BackgroundImageFix" result="effect1_dropShadow_393_220"/>
<feBlend mode="normal" in="SourceGraphic" in2="effect1_dropShadow_393_220" result="shape"/>
</filter>
<filter id="filter7_d_393_220" x="58.324" y="83.5208" width="11.548" height="11.548" filterUnits="userSpaceOnUse" color-interpolation-filters="sRGB">
<feFlood flood-opacity="0" result="BackgroundImageFix"/>
<feColorMatrix in="SourceAlpha" type="matrix" values="0 0 0 0 0 0 0 0 0 0 0 0 0 0 0 0 0 0 127 0" result="hardAlpha"/>
<feOffset dy="4"/>
<feGaussianBlur stdDeviation="2"/>
<feComposite in2="hardAlpha" operator="out"/>
<feColorMatrix type="matrix" values="0 0 0 0 0 0 0 0 0 0 0 0 0 0 0 0 0 0 0.25 0"/>
<feBlend mode="normal" in2="BackgroundImageFix" result="effect1_dropShadow_393_220"/>
<feBlend mode="normal" in="SourceGraphic" in2="effect1_dropShadow_393_220" result="shape"/>
</filter>
<filter id="filter8_d_393_220" x="111.651" y="60.9659" width="11.748" height="11.748" filterUnits="userSpaceOnUse" color-interpolation-filters="sRGB">
<feFlood flood-opacity="0" result="BackgroundImageFix"/>
<feColorMatrix in="SourceAlpha" type="matrix" values="0 0 0 0 0 0 0 0 0 0 0 0 0 0 0 0 0 0 127 0" result="hardAlpha"/>
<feOffset dy="4"/>
<feGaussianBlur stdDeviation="2"/>
<feComposite in2="hardAlpha" operator="out"/>
<feColorMatrix type="matrix" values="0 0 0 0 0 0 0 0 0 0 0 0 0 0 0 0 0 0 0.25 0"/>
<feBlend mode="normal" in2="BackgroundImageFix" result="effect1_dropShadow_393_220"/>
<feBlend mode="normal" in="SourceGraphic" in2="effect1_dropShadow_393_220" result="shape"/>
</filter>
<filter id="filter9_d_393_220" x="96.406" y="99.0142" width="11.748" height="11.748" filterUnits="userSpaceOnUse" color-interpolation-filters="sRGB">
<feFlood flood-opacity="0" result="BackgroundImageFix"/>
<feColorMatrix in="SourceAlpha" type="matrix" values="0 0 0 0 0 0 0 0 0 0 0 0 0 0 0 0 0 0 127 0" result="hardAlpha"/>
<feOffset dy="4"/>
<feGaussianBlur stdDeviation="2"/>
<feComposite in2="hardAlpha" operator="out"/>
<feColorMatrix type="matrix" values="0 0 0 0 0 0 0 0 0 0 0 0 0 0 0 0 0 0 0.25 0"/>
<feBlend mode="normal" in2="BackgroundImageFix" result="effect1_dropShadow_393_220"/>
<feBlend mode="normal" in="SourceGraphic" in2="effect1_dropShadow_393_220" result="shape"/>
</filter>
<filter id="filter10_d_393_220" x="53.2542" y="8.99817" width="11.748" height="11.748" filterUnits="userSpaceOnUse" color-interpolation-filters="sRGB">
<feFlood flood-opacity="0" result="BackgroundImageFix"/>
<feColorMatrix in="SourceAlpha" type="matrix" values="0 0 0 0 0 0 0 0 0 0 0 0 0 0 0 0 0 0 127 0" result="hardAlpha"/>
<feOffset dy="4"/>
<feGaussianBlur stdDeviation="2"/>
<feComposite in2="hardAlpha" operator="out"/>
<feColorMatrix type="matrix" values="0 0 0 0 0 0 0 0 0 0 0 0 0 0 0 0 0 0 0.25 0"/>
<feBlend mode="normal" in2="BackgroundImageFix" result="effect1_dropShadow_393_220"/>
<feBlend mode="normal" in="SourceGraphic" in2="effect1_dropShadow_393_220" result="shape"/>
</filter>
<filter id="filter11_d_393_220" x="91.3019" y="20.1339" width="11.748" height="11.748" filterUnits="userSpaceOnUse" color-interpolation-filters="sRGB">
<feFlood flood-opacity="0" result="BackgroundImageFix"/>
<feColorMatrix in="SourceAlpha" type="matrix" values="0 0 0 0 0 0 0 0 0 0 0 0 0 0 0 0 0 0 127 0" result="hardAlpha"/>
<feOffset dy="4"/>
<feGaussianBlur stdDeviation="2"/>
<feComposite in2="hardAlpha" operator="out"/>
<feColorMatrix type="matrix" values="0 0 0 0 0 0 0 0 0 0 0 0 0 0 0 0 0 0 0.25 0"/>
<feBlend mode="normal" in2="BackgroundImageFix" result="effect1_dropShadow_393_220"/>
<feBlend mode="normal" in="SourceGraphic" in2="effect1_dropShadow_393_220" result="shape"/>
</filter>
<linearGradient id="paint0_linear_393_220" x1="64" y1="12.496" x2="61.68" y2="122" gradientUnits="userSpaceOnUse">
<stop stop-color="#703E1A"/>
<stop offset="1" stop-color="#3E1F08"/>
</linearGradient>
<radialGradient id="paint1_radial_393_220" cx="0" cy="0" r="1" gradientUnits="userSpaceOnUse" gradientTransform="translate(64 64) rotate(90) scale(56.144)">
<stop stop-color="white"/>
<stop offset="1" stop-color="#3A3737"/>
</radialGradient>
<radialGradient id="paint2_radial_393_220" cx="0" cy="0" r="1" gradientUnits="userSpaceOnUse" gradientTransform="translate(66.32 116.664) rotate(90) scale(1.624)">
<stop stop-color="#6A5736"/>
<stop offset="1" stop-color="#512404"/>
</radialGradient>
<radialGradient id="paint3_radial_393_220" cx="0" cy="0" r="1" gradientUnits="userSpaceOnUse" gradientTransform="translate(66.552 116.664) rotate(90) scale(1.624)">
<stop stop-color="#6A5736"/>
<stop offset="1" stop-color="#512404"/>
</radialGradient>
<radialGradient id="paint4_radial_393_220" cx="0" cy="0" r="1" gradientUnits="userSpaceOnUse" gradientTransform="translate(23.6321 29.4321) rotate(90) scale(1.624)">
<stop stop-color="#6A5736"/>
<stop offset="1" stop-color="#512404"/>
</radialGradient>
<radialGradient id="paint5_radial_393_220" cx="0" cy="0" r="1" gradientUnits="userSpaceOnUse" gradientTransform="translate(23.8641 29.4321) rotate(90) scale(1.624)">
<stop stop-color="#6A5736"/>
<stop offset="1" stop-color="#512404"/>
</radialGradient>
<radialGradient id="paint6_radial_393_220" cx="0" cy="0" r="1" gradientUnits="userSpaceOnUse" gradientTransform="translate(11.1043 69.336) rotate(90) scale(1.624)">
<stop stop-color="#6A5736"/>
<stop offset="1" stop-color="#512404"/>
</radialGradient>
<radialGradient id="paint7_radial_393_220" cx="0" cy="0" r="1" gradientUnits="userSpaceOnUse" gradientTransform="translate(11.3363 69.336) rotate(90) scale(1.624)">
<stop stop-color="#6A5736"/>
<stop offset="1" stop-color="#512404"/>
</radialGradient>
<radialGradient id="paint8_radial_393_220" cx="0" cy="0" r="1" gradientUnits="userSpaceOnUse" gradientTransform="translate(29.664 104.136) rotate(90) scale(1.624)">
<stop stop-color="#6A5736"/>
<stop offset="1" stop-color="#512404"/>
</radialGradient>
<radialGradient id="paint9_radial_393_220" cx="0" cy="0" r="1" gradientUnits="userSpaceOnUse" gradientTransform="translate(29.896 104.136) rotate(90) scale(1.624)">
<stop stop-color="#6A5736"/>
<stop offset="1" stop-color="#512404"/>
</radialGradient>
<radialGradient id="paint10_radial_393_220" cx="0" cy="0" r="1" gradientUnits="userSpaceOnUse" gradientTransform="translate(64.2321 65.1599) rotate(90) scale(22.04)">
<stop stop-color="#D9D9D9"/>
<stop offset="1" stop-color="#373737"/>
</radialGradient>
<radialGradient id="paint11_radial_393_220" cx="0" cy="0" r="1" gradientUnits="userSpaceOnUse" gradientTransform="translate(44.0481 65.16) rotate(90) scale(1.624)">
<stop stop-color="#6A5736"/>
<stop offset="1" stop-color="#512404"/>
</radialGradient>
<radialGradient id="paint12_radial_393_220" cx="0" cy="0" r="1" gradientUnits="userSpaceOnUse" gradientTransform="translate(44.0481 65.16) rotate(90) scale(1.624)">
<stop stop-color="#6A5736"/>
<stop offset="1" stop-color="#512404"/>
</radialGradient>
<radialGradient id="paint13_radial_393_220" cx="0" cy="0" r="1" gradientUnits="userSpaceOnUse" gradientTransform="translate(83.952 64.696) rotate(90) scale(1.624)">
<stop stop-color="#6A5736"/>
<stop offset="1" stop-color="#512404"/>
</radialGradient>
<radialGradient id="paint14_radial_393_220" cx="0" cy="0" r="1" gradientUnits="userSpaceOnUse" gradientTransform="translate(84.416 64.696) rotate(90) scale(1.624)">
<stop stop-color="#6A5736"/>
<stop offset="1" stop-color="#512404"/>
</radialGradient>
<radialGradient id="paint15_radial_393_220" cx="0" cy="0" r="1" gradientUnits="userSpaceOnUse" gradientTransform="translate(64 45.2079) rotate(90) scale(1.624)">
<stop stop-color="#6A5736"/>
<stop offset="1" stop-color="#512404"/>
</radialGradient>
<radialGradient id="paint16_radial_393_220" cx="0" cy="0" r="1" gradientUnits="userSpaceOnUse" gradientTransform="translate(64.232 44.9759) rotate(90) scale(1.624)">
<stop stop-color="#6A5736"/>
<stop offset="1" stop-color="#512404"/>
</radialGradient>
<radialGradient id="paint17_radial_393_220" cx="0" cy="0" r="1" gradientUnits="userSpaceOnUse" gradientTransform="translate(64 83.9519) rotate(90) scale(1.624)">
<stop stop-color="#6A5736"/>
<stop offset="1" stop-color="#512404"/>
</radialGradient>
<radialGradient id="paint18_radial_393_220" cx="0" cy="0" r="1" gradientUnits="userSpaceOnUse" gradientTransform="translate(64.098 85.2948) rotate(90) scale(1.624)">
<stop stop-color="#6A5736"/>
<stop offset="1" stop-color="#512404"/>
</radialGradient>
<radialGradient id="paint19_radial_393_220" cx="0" cy="0" r="1" gradientUnits="userSpaceOnUse" gradientTransform="translate(117.36 62.8399) rotate(90) scale(1.392)">
<stop stop-color="#6A5736"/>
<stop offset="1" stop-color="#512404"/>
</radialGradient>
<radialGradient id="paint20_radial_393_220" cx="0" cy="0" r="1" gradientUnits="userSpaceOnUse" gradientTransform="translate(102.048 100.888) rotate(90) scale(1.624)">
<stop stop-color="#6A5736"/>
<stop offset="1" stop-color="#512404"/>
</radialGradient>
<radialGradient id="paint21_radial_393_220" cx="0" cy="0" r="1" gradientUnits="userSpaceOnUse" gradientTransform="translate(102.28 100.888) rotate(90) scale(1.624)">
<stop stop-color="#6A5736"/>
<stop offset="1" stop-color="#512404"/>
</radialGradient>
<radialGradient id="paint22_radial_393_220" cx="0" cy="0" r="1" gradientUnits="userSpaceOnUse" gradientTransform="translate(58.8962 10.8722) rotate(90) scale(1.624)">
<stop stop-color="#6A5736"/>
<stop offset="1" stop-color="#512404"/>
</radialGradient>
<radialGradient id="paint23_radial_393_220" cx="0" cy="0" r="1" gradientUnits="userSpaceOnUse" gradientTransform="translate(59.1282 10.8722) rotate(90) scale(1.624)">
<stop stop-color="#6A5736"/>
<stop offset="1" stop-color="#512404"/>
</radialGradient>
<radialGradient id="paint24_radial_393_220" cx="0" cy="0" r="1" gradientUnits="userSpaceOnUse" gradientTransform="translate(96.9439 22.0079) rotate(90) scale(1.624)">
<stop stop-color="#6A5736"/>
<stop offset="1" stop-color="#512404"/>
</radialGradient>
<radialGradient id="paint25_radial_393_220" cx="0" cy="0" r="1" gradientUnits="userSpaceOnUse" gradientTransform="translate(97.1759 22.0079) rotate(90) scale(1.624)">
<stop stop-color="#6A5736"/>
<stop offset="1" stop-color="#512404"/>
</radialGradient>
</defs>
</svg>
