<svg width="128" height="128" viewBox="0 0 128 128" fill="none" xmlns="http://www.w3.org/2000/svg">
<mask id="path-1-outside-1_393_202" maskUnits="userSpaceOnUse" x="28" y="12" width="77" height="110" fill="black">
<rect fill="white" x="28" y="12" width="77" height="110"/>
<path d="M65.9603 119.687C63.3699 119.21 59.6959 117.493 57.9869 115.961C57.2761 115.324 56.1336 113.975 55.4479 112.962C54.5904 111.696 53.6145 110.72 52.3219 109.837C49.097 107.633 44.8318 102.785 44.3217 100.744C44.2151 100.317 43.2456 99.0692 42.1672 97.9709C38.9699 94.7143 36.4448 90.4853 33.403 83.2929C32.6411 81.4913 32.7192 79.7473 33.6669 77.398C35.1942 73.612 37.5538 70.9208 40.7827 69.2821L42.6764 68.321L43.1293 70.3934L43.5823 72.4658L42.8151 73.0348C41.3336 74.1336 40.4863 75.251 40.3325 76.3088C40.0848 78.0121 39.5921 80.6712 39.4254 81.2049C39.3185 81.5472 39.453 81.4907 39.8673 81.0194C40.1949 80.6467 40.728 79.4784 41.052 78.4231C41.376 77.3679 41.9911 75.9943 42.4189 75.3708L43.1968 74.237L43.2724 75.515C43.4074 77.7968 44.201 80.5409 44.9826 81.4287C45.5024 82.0192 45.6583 82.1 45.4999 81.697C44.451 79.0283 44.3276 78.1441 44.7385 76.2413L44.9199 75.4012L46.4906 76.8752C47.3545 77.6859 48.108 78.3023 48.1652 78.2449C48.3215 78.0879 47.6545 76.9193 46.7602 75.7833C45.7131 74.4532 44.8302 71.7215 44.7208 69.4735L44.6328 67.6643L45.8662 66.961C47.794 65.8619 50.2668 64.9456 51.5253 64.8641C52.5751 64.7961 52.7684 64.9033 53.7703 66.1097C55.2256 67.8619 55.9645 68.3093 57.7685 68.5304L59.2793 68.7157L59.357 70.3023C59.4499 72.1976 58.7954 73.4745 57.2664 74.3807C55.871 75.2076 56.0149 75.299 57.6998 74.6559C58.4896 74.3544 59.1832 74.1927 59.2411 74.2965C59.299 74.4003 59.5645 75.1567 59.8312 75.9774C60.3361 77.5317 61.4698 78.9851 61.0299 77.5141C60.4926 75.7175 60.3936 74.5747 60.6151 72.7245C60.746 71.6303 60.9182 70.5644 60.9976 70.356C61.2009 69.8225 63.9422 72.005 66.5058 74.7414C67.6373 75.9491 68.7969 76.9372 69.0826 76.9372C69.5321 76.9372 69.5158 76.8763 68.9611 76.4861C68.4258 76.1094 67.4891 74.8122 66.1857 72.6422C65.774 71.9567 67.97 72.5352 69.9976 73.6463C71.9771 74.7311 72.1027 74.5057 70.2642 73.168C69.6245 72.7025 69.225 72.3216 69.3764 72.3216C69.5279 72.3216 69.8696 72.1593 70.1359 71.961C70.5376 71.6617 70.2158 71.5949 68.2423 71.5678C65.6799 71.5327 64.5237 71.1305 63.0589 69.7645C60.9984 67.8431 60.95 66.5081 62.8752 64.6992C64.4453 63.224 65.8294 62.5135 67.1329 62.5135C67.9975 62.5135 68.3387 63.0069 68.7772 64.8914C68.8785 65.3266 69.0907 65.6024 69.2488 65.5042C69.5153 65.3388 69.4166 64.0692 69.027 62.6496C68.8982 62.1803 69.0675 61.9916 69.8829 61.6954C70.8836 61.332 72.6335 59.8271 72.6335 59.33C72.6335 59.1901 72.0196 59.4561 71.2693 59.9211C69.943 60.7431 65.322 62.0671 64.8348 61.7646C64.3889 61.4878 64.5853 60.3047 65.3021 58.9505C66.173 57.3054 65.8599 57.2322 64.486 58.7597C63.7967 59.5262 63.387 60.3145 63.2585 61.122C63.1071 62.0732 62.7721 62.6054 61.701 63.5965C60.9505 64.2909 59.9841 65.3698 59.5534 65.994C59.1228 66.6183 58.5851 67.129 58.3586 67.129C57.8316 67.129 55.4935 65.5207 55.3231 65.0411C54.9598 64.0177 57.2171 61.6283 60.2844 59.7894C63.0883 58.1084 64.4725 56.886 65.1396 55.502C66.2087 53.2835 65.8678 51.586 63.9588 49.6221L62.7844 48.4139L63.5658 46.8095C63.9956 45.927 64.4513 45.2051 64.5783 45.2051C64.7053 45.2051 65.2732 45.3998 65.8403 45.6378C68.9724 46.9523 79.3247 45.0673 85.7204 42.0178C88.1104 40.8782 89.9682 39.1601 90.8616 37.2632C91.8294 35.2082 92.4529 34.8229 94.3838 35.0869C96.317 35.3512 96.5222 35.5911 95.4644 36.3509C92.7599 38.2935 92.3131 39.6192 94.3944 39.5256L95.6001 39.4714L94.8438 40.968C94.3395 41.9659 94.0421 43.098 93.9511 44.3658L93.8147 46.267L91.0732 46.7549C85.6438 47.7213 81.8965 49.3946 78.7552 52.2557C76.55 54.2642 75.2182 56.7391 75.2182 58.8286C75.2182 59.8911 75.0405 60.4782 74.5058 61.1823C73.5996 62.3758 72.9207 64.3007 72.9207 65.6768C72.9207 66.2661 73.1791 67.7634 73.495 69.0042C74.1327 71.5085 74.2696 76.4123 73.7649 78.668C73.285 80.813 72.038 83.8516 71.5244 84.1277C70.355 84.7564 67.3819 85.5914 66.313 85.5914C64.6088 85.5914 63.0527 84.6625 61.7189 82.8489C61.0779 81.9774 60.3572 81.2643 60.1172 81.2643C59.7809 81.2643 59.8413 81.4792 60.3806 82.2018C60.7655 82.7175 61.3456 83.6701 61.6697 84.3187L62.259 85.498L59.3332 86.7341C57.724 87.414 56.3428 88.0374 56.2638 88.1196C55.8847 88.5138 59.0356 87.8274 60.5564 87.1844C62.2855 86.4534 64.1324 86.2312 64.432 86.7182C64.6461 87.0662 61.8179 89.6026 61.0395 89.7606C60.7032 89.8289 59.5829 89.9401 58.5501 90.0078C57.3509 90.0863 56.2609 90.3582 55.5346 90.7601L54.3971 91.3894L55.833 91.2199C60.4328 90.6768 60.8588 90.6757 60.8588 91.2069C60.8588 91.8952 58.7636 94.3614 57.5263 95.1295C56.3169 95.8803 56.4531 96.1989 57.7623 95.6817C58.9934 95.1955 60.6601 93.6084 61.9082 91.734C63.6682 89.0909 66.4123 87.207 69.0266 86.8471L70.2984 86.672L69.7694 88.3794C69.4784 89.3186 69.1453 90.7305 69.0292 91.5172C68.8576 92.6794 68.4779 93.3753 67.0027 95.2311C65.0279 97.7155 63.4213 100.569 62.8476 102.611C62.647 103.325 62.279 104.15 62.0298 104.445C61.3746 105.219 59.5912 106.088 57.1254 106.833C55.11 107.443 55.0889 107.666 57.0536 107.593C57.5719 107.574 57.4844 108.128 56.8382 108.958C56.5293 109.354 56.2742 110.003 56.2713 110.4C56.2659 111.077 56.3035 111.059 56.8747 110.112C57.2094 109.556 57.8874 108.733 58.3813 108.283C59.2944 107.45 61.4018 106.234 61.595 106.428C61.6534 106.486 61.7377 108.441 61.7825 110.772C61.8493 114.242 61.9291 114.922 62.223 114.525C62.4204 114.258 62.582 113.912 62.582 113.756C62.582 113.6 62.9051 113.778 63.2999 114.15C64.1313 114.935 64.1793 114.808 63.589 113.389L63.16 112.358L63.9479 112.54L64.7359 112.723L64.1233 112.21C63.2265 111.461 62.8692 110.597 62.8692 109.182C62.8692 106.521 64.4456 102.29 66.6399 99.0609C67.9204 97.1765 69.7155 95.111 70.0727 95.111C70.4762 95.111 70.866 96.9631 71.0594 99.7987C71.1649 101.346 71.3533 102.611 71.4781 102.611C71.7496 102.611 72.0498 101.58 72.0552 100.629C72.0585 100.04 72.1223 99.997 72.5089 100.319C73.1304 100.837 73.7786 102.161 73.8005 102.958L73.8187 103.621L74.0831 102.959C74.3019 102.412 74.4439 102.349 74.9076 102.599C76.0915 103.235 75.9519 102.739 74.4922 101.122C73.2523 99.7492 72.5127 98.4566 71.4698 95.8403C70.6537 93.7931 70.5699 93.3147 70.683 91.351C70.7795 89.6771 71.0229 88.6955 71.7038 87.2339C72.8463 84.7814 74.2661 82.7066 74.8019 82.7066C75.79 82.7066 79.5531 88.9533 79.9971 91.3308C80.1002 91.8825 80.0243 93.1435 79.8285 94.1328C79.5954 95.3111 79.5674 96.1018 79.7474 96.4249C79.9731 96.8299 80.0576 96.7293 80.2195 95.8623C80.4525 94.6147 80.7524 94.7232 81.5859 96.3566C82.4102 97.9721 82.5457 97.3635 81.8282 95.2685C81.1266 93.2204 81.062 91.6493 81.6792 91.6493C81.9156 91.6493 82.2928 92.0712 82.5173 92.5868L82.9255 93.5244L82.9489 92.6065C82.9669 91.9053 82.7732 91.5461 82.129 91.0853C81.601 90.7077 81.0639 89.887 80.693 88.8913C79.9702 86.9508 79.9662 87.0945 80.7466 86.9745C81.3841 86.8764 81.3827 86.8694 80.6382 86.4496C79.679 85.9087 76.9462 82.3282 76.4684 80.9864C76.2686 80.4252 76.0994 79.2167 76.0925 78.3007L76.0799 76.6352L77.5009 77.7635C79.2566 79.1575 81.2485 79.7112 82.9004 79.2644C83.8219 79.0151 84.2626 79.0452 85.1508 79.418C85.7583 79.673 87.0947 79.9655 88.1207 80.0681L89.986 80.2546L90.525 81.9854C90.9696 83.413 91.0378 84.2975 90.9142 87.0337C90.7474 90.7221 90.1239 93.5154 88.5317 97.7072C87.2818 100.998 83.6924 108.317 82.1998 110.62C81.6095 111.53 80.9556 112.591 80.7467 112.977C80.0163 114.328 77.1662 117.654 76.0326 118.479C74.1182 119.872 69.7851 120.391 65.9603 119.687ZM87.0492 78.3833C85.0958 77.9186 83.6055 77.1945 83.4611 76.6399C83.3808 76.3312 82.9794 75.9505 82.5692 75.7939C82.0022 75.5773 81.8235 75.3079 81.8235 74.6697C81.8235 74.087 81.5982 73.682 81.0868 73.3455C80.4626 72.9347 80.3793 72.7204 80.5406 71.942C80.6454 71.4368 80.9152 70.7314 81.1403 70.3744C81.4907 69.8186 81.4914 69.7253 81.1447 69.7253C80.5966 69.7253 79.8039 70.9985 79.6118 72.1873C79.4806 72.9995 79.5986 73.3048 80.3257 74.0352C80.8801 74.5921 81.146 75.1053 81.0571 75.4468C80.9549 75.8394 81.1545 76.0821 81.801 76.3511C82.3442 76.5771 82.6845 76.9274 82.6845 77.2606C82.6845 77.7079 82.4662 77.8026 81.4353 77.8026C79.8559 77.8026 78.1509 76.6277 77.0891 74.8077C76.0858 73.0881 75.9087 71.7928 76.4664 70.2557C76.7162 69.5673 77.0598 68.4507 77.2299 67.7743C77.6454 66.1229 78.97 64.6774 80.6158 64.0796C82.2618 63.4817 83.1717 62.5525 83.4217 61.2142C83.7079 59.6813 84.661 59.8395 86.5085 61.7267C88.7592 64.0258 89.7634 65.9586 90.2894 69.0041C91.1061 73.7322 90.0104 78.8627 88.2318 78.6385C88.1029 78.6222 87.571 78.5074 87.0492 78.3833ZM31.7532 76.0246C31.6544 75.6539 31.5718 74.7288 31.5696 73.9688C31.5674 73.1641 31.3261 72.1154 30.9921 71.4577C30.1703 69.8396 29.7852 66.6816 30.1214 64.3164C30.6627 60.5085 33.2948 53.7807 35.5344 50.4809C37.766 47.1929 42.1782 43.6585 44.3448 43.4234C45.0784 43.3438 45.2832 43.4792 45.7299 44.3396C46.1665 45.1807 46.2282 45.7889 46.0996 47.9821C45.9629 50.312 46.0073 50.6714 46.486 51.1065C47.0424 51.6124 47.3819 53.8203 47.3751 56.8882C47.3729 57.6815 47.3794 59.2799 47.3877 60.44C47.4122 63.7058 46.8644 64.3452 42.048 66.6716C37.0348 69.093 35.0097 70.914 32.8824 74.9133C32.0412 76.4948 31.9124 76.6217 31.7532 76.0246ZM74.9806 67.556C74.2932 66.0405 74.742 63.7655 75.9855 62.4617C76.618 61.7985 76.8053 61.2586 76.9834 59.5848C77.2577 57.0059 78.3022 54.7955 79.9025 53.4078C81.1038 52.3659 84.2311 50.6091 86.1313 49.9086C87.8214 49.2855 92.9038 48.0898 93.8618 48.0898C95.1592 48.0898 96.4239 47.4838 98.0172 46.0986C100.124 44.2669 101.328 44.8093 99.4933 46.7636C98.9362 47.3569 98.4803 47.9662 98.4803 48.1175C98.4803 48.5157 99.7902 48.9552 100.977 48.9552H102L101.807 50.1704C101.7 50.8387 101.567 51.4324 101.51 51.4896C101.453 51.5467 100.927 51.4608 100.342 51.2984C99.4836 51.0604 99.1389 51.0948 98.5585 51.4768C97.9115 51.9026 97.8552 52.088 97.9999 53.315C98.1405 54.5074 98.0794 54.7332 97.5165 55.1037C96.9233 55.4941 96.7839 55.4615 95.7584 54.6935C95.1458 54.2347 94.4344 53.8593 94.1776 53.8593C93.4787 53.8593 91.0135 55.5163 91.0135 55.9861C91.0135 56.2108 91.2869 57.284 91.6211 58.3708C92.2918 60.552 92.283 63.805 91.603 65.0813C91.2483 65.7469 91.2071 65.7021 90.4062 63.7815C89.3645 61.2835 87.0728 58.6038 85.6377 58.2058C84.866 57.9918 84.4228 58.0246 83.8135 58.3411C82.8493 58.8419 82.6766 59.0851 82.0876 60.771C81.6835 61.9278 81.4819 62.1245 80.244 62.5694C78.4764 63.2046 76.8467 64.7984 76.2122 66.5123C75.5549 68.2881 75.3799 68.4364 74.9806 67.556ZM48.6587 62.6171C48.7822 62.0048 48.9272 60.8548 48.9809 60.0614C49.0345 59.2682 49.1556 58.0252 49.2498 57.2994C49.3613 56.4407 49.2762 55.6313 49.006 54.982C48.7778 54.4331 48.6528 53.5611 48.7283 53.0441C48.8044 52.5237 48.6506 51.5384 48.384 50.837C47.4724 48.4395 48.6022 45.5042 51.5508 42.6088C54.9116 39.3087 55.8305 37.1735 55.6373 33.1132C55.5449 31.1726 55.374 30.3709 54.8824 29.5719C54.1686 28.4117 53.7488 28.2458 52.0996 28.4717C51.0659 28.6133 50.8179 28.5129 49.6241 27.4696C47.7583 25.8389 45.4621 24.5165 43.0057 23.6577C41.2055 23.0284 40.607 22.9484 38.889 23.108C37.7833 23.2107 36.5561 23.324 36.1619 23.36C35.5501 23.4158 35.3881 23.2445 35.0548 22.1898C34.5401 20.5611 34.8184 19.1477 35.7782 18.516C36.3879 18.1147 36.9935 18.0469 39.0013 18.1552C41.9034 18.3117 44.261 19.081 46.4277 20.5785C47.6713 21.438 48.0111 21.5577 48.3663 21.2616C48.6031 21.0642 48.7969 20.808 48.7969 20.6922C48.7969 20.5765 48.2154 19.5925 47.5046 18.5054C45.8485 15.9726 45.8202 15.321 47.355 15.0606C50.1286 14.5899 52.0052 16.3586 54.8804 22.1534C57.3167 27.0636 58.8244 31.693 58.8415 34.3152C58.8458 35.0542 58.9777 35.3969 59.2565 35.3969C59.839 35.3969 59.9566 34.53 60.274 27.8966C60.5835 21.4283 61.1125 18.5721 62.5171 15.7844C63.2086 14.4122 63.4475 14.1806 64.3125 14.0447C64.8612 13.9585 65.9984 14.0008 66.8395 14.1386C68.2302 14.3666 68.3315 14.4327 67.9566 14.8686C67.0364 15.9387 64.9984 22.2754 64.4167 25.8752C63.8854 29.1624 63.8769 33.9546 64.4023 33.9546C64.6395 33.9546 65.017 33.0906 65.3876 31.6998C66.495 27.5441 67.8394 25.1689 70.6982 22.3182L73.2548 19.7687L73.0609 18.3529C72.8513 16.8219 72.9186 16.7376 74.4737 16.5843C75.1901 16.5136 75.3946 16.6659 75.9122 17.6558C76.4103 18.6086 76.6647 18.8097 77.3718 18.8097C78.0652 18.8097 78.3167 18.6215 78.6927 17.8216C79.487 16.1318 81.5363 15.9357 81.5363 17.5495C81.5363 18.4623 82.64 19.3484 84.2078 19.6943C84.7995 19.8248 85.1547 20.1629 85.4526 20.879C86.2246 22.7351 85.9882 22.8784 82.1814 22.8625C78.9709 22.849 78.7147 22.8927 76.8771 23.7671C75.8151 24.2724 74.2933 25.2994 73.4953 26.0492C71.9006 27.5475 70.336 30.4422 70.336 31.8942C70.336 32.8983 70.6536 33.1263 72.7771 33.6459C75.4681 34.3043 79.0652 36.8945 80.819 39.4366C81.6056 40.5767 81.6261 40.6754 81.1499 41.0252C80.8707 41.2303 79.3485 41.8649 77.7673 42.4354L74.8923 43.4726L72.6967 42.3972C71.1526 41.6409 70.0624 41.305 69.0227 41.2651C65.2727 41.1213 61.8564 44.5682 60.8293 49.5321C60.5428 50.9163 60.5853 55.4917 60.8962 56.7363C60.9669 57.0194 60.3308 57.5012 58.9921 58.1787C57.7613 58.8015 56.276 59.8946 55.1617 60.9975C53.4382 62.7034 53.2403 62.8148 51.4283 63.0994C50.3759 63.2647 49.2717 63.4742 48.9745 63.5651C48.4858 63.7145 48.4556 63.6238 48.6587 62.6171ZM62.3869 55.7325C62.2601 55.4162 62.1551 54.2516 62.1537 53.1445C62.1515 51.5212 62.2409 51.1138 62.6146 51.0395C62.9105 50.9806 63.2526 51.317 63.5611 51.9699C64.1213 53.1557 63.9697 54.5068 63.1549 55.5919C62.6363 56.2825 62.6095 56.2874 62.3869 55.7325ZM95.419 45.6217C94.9165 44.3063 96.2582 40.3011 97.4086 39.6826C97.8914 39.4231 98.0763 39.4618 98.3858 39.8869C99.2237 41.0379 98.5899 43.7347 97.119 45.2772C96.2696 46.1679 95.6738 46.2887 95.419 45.6217ZM47.3554 43.1721C47.156 42.6887 46.6213 42.1001 46.1671 41.8641C45.1679 41.3451 43.8102 41.6397 41.2737 42.9258C40.366 43.3861 39.5525 43.7627 39.466 43.7627C39.1309 43.7627 39.7313 42.0782 40.8367 39.9175C41.5769 38.4707 42.7434 36.8568 44.0823 35.4271C46.1193 33.2521 48.3765 31.4169 48.662 31.7036C48.7401 31.782 48.5539 32.4179 48.2483 33.1167C46.9209 36.1523 46.9145 39.4565 48.2311 42.0488C48.7019 42.9758 48.7579 43.318 48.4915 43.6404C47.9912 44.246 47.7587 44.1501 47.3554 43.1721ZM67.6297 43.6654L66.503 43.3239L67.2843 42.9664C68.3499 42.4786 69.5734 42.5176 70.8478 43.0799C71.9 43.5442 71.9051 43.5543 71.1975 43.7724C70.1582 44.0927 68.9169 44.0554 67.6297 43.6654ZM49.6049 40.9501C49.1207 39.7736 49.2146 36.0737 49.7787 34.0988C50.3744 32.0135 51.6134 30.0928 52.4409 29.9719C52.9239 29.9014 53.1448 30.1464 53.5436 31.1951C54.5501 33.8425 53.6088 38.338 51.5278 40.8222C50.5812 41.9522 50.0324 41.9887 49.6049 40.9501Z"/>
</mask>
<path d="M65.9603 119.687C63.3699 119.21 59.6959 117.493 57.9869 115.961C57.2761 115.324 56.1336 113.975 55.4479 112.962C54.5904 111.696 53.6145 110.72 52.3219 109.837C49.097 107.633 44.8318 102.785 44.3217 100.744C44.2151 100.317 43.2456 99.0692 42.1672 97.9709C38.9699 94.7143 36.4448 90.4853 33.403 83.2929C32.6411 81.4913 32.7192 79.7473 33.6669 77.398C35.1942 73.612 37.5538 70.9208 40.7827 69.2821L42.6764 68.321L43.1293 70.3934L43.5823 72.4658L42.8151 73.0348C41.3336 74.1336 40.4863 75.251 40.3325 76.3088C40.0848 78.0121 39.5921 80.6712 39.4254 81.2049C39.3185 81.5472 39.453 81.4907 39.8673 81.0194C40.1949 80.6467 40.728 79.4784 41.052 78.4231C41.376 77.3679 41.9911 75.9943 42.4189 75.3708L43.1968 74.237L43.2724 75.515C43.4074 77.7968 44.201 80.5409 44.9826 81.4287C45.5024 82.0192 45.6583 82.1 45.4999 81.697C44.451 79.0283 44.3276 78.1441 44.7385 76.2413L44.9199 75.4012L46.4906 76.8752C47.3545 77.6859 48.108 78.3023 48.1652 78.2449C48.3215 78.0879 47.6545 76.9193 46.7602 75.7833C45.7131 74.4532 44.8302 71.7215 44.7208 69.4735L44.6328 67.6643L45.8662 66.961C47.794 65.8619 50.2668 64.9456 51.5253 64.8641C52.5751 64.7961 52.7684 64.9033 53.7703 66.1097C55.2256 67.8619 55.9645 68.3093 57.7685 68.5304L59.2793 68.7157L59.357 70.3023C59.4499 72.1976 58.7954 73.4745 57.2664 74.3807C55.871 75.2076 56.0149 75.299 57.6998 74.6559C58.4896 74.3544 59.1832 74.1927 59.2411 74.2965C59.299 74.4003 59.5645 75.1567 59.8312 75.9774C60.3361 77.5317 61.4698 78.9851 61.0299 77.5141C60.4926 75.7175 60.3936 74.5747 60.6151 72.7245C60.746 71.6303 60.9182 70.5644 60.9976 70.356C61.2009 69.8225 63.9422 72.005 66.5058 74.7414C67.6373 75.9491 68.7969 76.9372 69.0826 76.9372C69.5321 76.9372 69.5158 76.8763 68.9611 76.4861C68.4258 76.1094 67.4891 74.8122 66.1857 72.6422C65.774 71.9567 67.97 72.5352 69.9976 73.6463C71.9771 74.7311 72.1027 74.5057 70.2642 73.168C69.6245 72.7025 69.225 72.3216 69.3764 72.3216C69.5279 72.3216 69.8696 72.1593 70.1359 71.961C70.5376 71.6617 70.2158 71.5949 68.2423 71.5678C65.6799 71.5327 64.5237 71.1305 63.0589 69.7645C60.9984 67.8431 60.95 66.5081 62.8752 64.6992C64.4453 63.224 65.8294 62.5135 67.1329 62.5135C67.9975 62.5135 68.3387 63.0069 68.7772 64.8914C68.8785 65.3266 69.0907 65.6024 69.2488 65.5042C69.5153 65.3388 69.4166 64.0692 69.027 62.6496C68.8982 62.1803 69.0675 61.9916 69.8829 61.6954C70.8836 61.332 72.6335 59.8271 72.6335 59.33C72.6335 59.1901 72.0196 59.4561 71.2693 59.9211C69.943 60.7431 65.322 62.0671 64.8348 61.7646C64.3889 61.4878 64.5853 60.3047 65.3021 58.9505C66.173 57.3054 65.8599 57.2322 64.486 58.7597C63.7967 59.5262 63.387 60.3145 63.2585 61.122C63.1071 62.0732 62.7721 62.6054 61.701 63.5965C60.9505 64.2909 59.9841 65.3698 59.5534 65.994C59.1228 66.6183 58.5851 67.129 58.3586 67.129C57.8316 67.129 55.4935 65.5207 55.3231 65.0411C54.9598 64.0177 57.2171 61.6283 60.2844 59.7894C63.0883 58.1084 64.4725 56.886 65.1396 55.502C66.2087 53.2835 65.8678 51.586 63.9588 49.6221L62.7844 48.4139L63.5658 46.8095C63.9956 45.927 64.4513 45.2051 64.5783 45.2051C64.7053 45.2051 65.2732 45.3998 65.8403 45.6378C68.9724 46.9523 79.3247 45.0673 85.7204 42.0178C88.1104 40.8782 89.9682 39.1601 90.8616 37.2632C91.8294 35.2082 92.4529 34.8229 94.3838 35.0869C96.317 35.3512 96.5222 35.5911 95.4644 36.3509C92.7599 38.2935 92.3131 39.6192 94.3944 39.5256L95.6001 39.4714L94.8438 40.968C94.3395 41.9659 94.0421 43.098 93.9511 44.3658L93.8147 46.267L91.0732 46.7549C85.6438 47.7213 81.8965 49.3946 78.7552 52.2557C76.55 54.2642 75.2182 56.7391 75.2182 58.8286C75.2182 59.8911 75.0405 60.4782 74.5058 61.1823C73.5996 62.3758 72.9207 64.3007 72.9207 65.6768C72.9207 66.2661 73.1791 67.7634 73.495 69.0042C74.1327 71.5085 74.2696 76.4123 73.7649 78.668C73.285 80.813 72.038 83.8516 71.5244 84.1277C70.355 84.7564 67.3819 85.5914 66.313 85.5914C64.6088 85.5914 63.0527 84.6625 61.7189 82.8489C61.0779 81.9774 60.3572 81.2643 60.1172 81.2643C59.7809 81.2643 59.8413 81.4792 60.3806 82.2018C60.7655 82.7175 61.3456 83.6701 61.6697 84.3187L62.259 85.498L59.3332 86.7341C57.724 87.414 56.3428 88.0374 56.2638 88.1196C55.8847 88.5138 59.0356 87.8274 60.5564 87.1844C62.2855 86.4534 64.1324 86.2312 64.432 86.7182C64.6461 87.0662 61.8179 89.6026 61.0395 89.7606C60.7032 89.8289 59.5829 89.9401 58.5501 90.0078C57.3509 90.0863 56.2609 90.3582 55.5346 90.7601L54.3971 91.3894L55.833 91.2199C60.4328 90.6768 60.8588 90.6757 60.8588 91.2069C60.8588 91.8952 58.7636 94.3614 57.5263 95.1295C56.3169 95.8803 56.4531 96.1989 57.7623 95.6817C58.9934 95.1955 60.6601 93.6084 61.9082 91.734C63.6682 89.0909 66.4123 87.207 69.0266 86.8471L70.2984 86.672L69.7694 88.3794C69.4784 89.3186 69.1453 90.7305 69.0292 91.5172C68.8576 92.6794 68.4779 93.3753 67.0027 95.2311C65.0279 97.7155 63.4213 100.569 62.8476 102.611C62.647 103.325 62.279 104.15 62.0298 104.445C61.3746 105.219 59.5912 106.088 57.1254 106.833C55.11 107.443 55.0889 107.666 57.0536 107.593C57.5719 107.574 57.4844 108.128 56.8382 108.958C56.5293 109.354 56.2742 110.003 56.2713 110.4C56.2659 111.077 56.3035 111.059 56.8747 110.112C57.2094 109.556 57.8874 108.733 58.3813 108.283C59.2944 107.45 61.4018 106.234 61.595 106.428C61.6534 106.486 61.7377 108.441 61.7825 110.772C61.8493 114.242 61.9291 114.922 62.223 114.525C62.4204 114.258 62.582 113.912 62.582 113.756C62.582 113.6 62.9051 113.778 63.2999 114.15C64.1313 114.935 64.1793 114.808 63.589 113.389L63.16 112.358L63.9479 112.54L64.7359 112.723L64.1233 112.21C63.2265 111.461 62.8692 110.597 62.8692 109.182C62.8692 106.521 64.4456 102.29 66.6399 99.0609C67.9204 97.1765 69.7155 95.111 70.0727 95.111C70.4762 95.111 70.866 96.9631 71.0594 99.7987C71.1649 101.346 71.3533 102.611 71.4781 102.611C71.7496 102.611 72.0498 101.58 72.0552 100.629C72.0585 100.04 72.1223 99.997 72.5089 100.319C73.1304 100.837 73.7786 102.161 73.8005 102.958L73.8187 103.621L74.0831 102.959C74.3019 102.412 74.4439 102.349 74.9076 102.599C76.0915 103.235 75.9519 102.739 74.4922 101.122C73.2523 99.7492 72.5127 98.4566 71.4698 95.8403C70.6537 93.7931 70.5699 93.3147 70.683 91.351C70.7795 89.6771 71.0229 88.6955 71.7038 87.2339C72.8463 84.7814 74.2661 82.7066 74.8019 82.7066C75.79 82.7066 79.5531 88.9533 79.9971 91.3308C80.1002 91.8825 80.0243 93.1435 79.8285 94.1328C79.5954 95.3111 79.5674 96.1018 79.7474 96.4249C79.9731 96.8299 80.0576 96.7293 80.2195 95.8623C80.4525 94.6147 80.7524 94.7232 81.5859 96.3566C82.4102 97.9721 82.5457 97.3635 81.8282 95.2685C81.1266 93.2204 81.062 91.6493 81.6792 91.6493C81.9156 91.6493 82.2928 92.0712 82.5173 92.5868L82.9255 93.5244L82.9489 92.6065C82.9669 91.9053 82.7732 91.5461 82.129 91.0853C81.601 90.7077 81.0639 89.887 80.693 88.8913C79.9702 86.9508 79.9662 87.0945 80.7466 86.9745C81.3841 86.8764 81.3827 86.8694 80.6382 86.4496C79.679 85.9087 76.9462 82.3282 76.4684 80.9864C76.2686 80.4252 76.0994 79.2167 76.0925 78.3007L76.0799 76.6352L77.5009 77.7635C79.2566 79.1575 81.2485 79.7112 82.9004 79.2644C83.8219 79.0151 84.2626 79.0452 85.1508 79.418C85.7583 79.673 87.0947 79.9655 88.1207 80.0681L89.986 80.2546L90.525 81.9854C90.9696 83.413 91.0378 84.2975 90.9142 87.0337C90.7474 90.7221 90.1239 93.5154 88.5317 97.7072C87.2818 100.998 83.6924 108.317 82.1998 110.62C81.6095 111.53 80.9556 112.591 80.7467 112.977C80.0163 114.328 77.1662 117.654 76.0326 118.479C74.1182 119.872 69.7851 120.391 65.9603 119.687ZM87.0492 78.3833C85.0958 77.9186 83.6055 77.1945 83.4611 76.6399C83.3808 76.3312 82.9794 75.9505 82.5692 75.7939C82.0022 75.5773 81.8235 75.3079 81.8235 74.6697C81.8235 74.087 81.5982 73.682 81.0868 73.3455C80.4626 72.9347 80.3793 72.7204 80.5406 71.942C80.6454 71.4368 80.9152 70.7314 81.1403 70.3744C81.4907 69.8186 81.4914 69.7253 81.1447 69.7253C80.5966 69.7253 79.8039 70.9985 79.6118 72.1873C79.4806 72.9995 79.5986 73.3048 80.3257 74.0352C80.8801 74.5921 81.146 75.1053 81.0571 75.4468C80.9549 75.8394 81.1545 76.0821 81.801 76.3511C82.3442 76.5771 82.6845 76.9274 82.6845 77.2606C82.6845 77.7079 82.4662 77.8026 81.4353 77.8026C79.8559 77.8026 78.1509 76.6277 77.0891 74.8077C76.0858 73.0881 75.9087 71.7928 76.4664 70.2557C76.7162 69.5673 77.0598 68.4507 77.2299 67.7743C77.6454 66.1229 78.97 64.6774 80.6158 64.0796C82.2618 63.4817 83.1717 62.5525 83.4217 61.2142C83.7079 59.6813 84.661 59.8395 86.5085 61.7267C88.7592 64.0258 89.7634 65.9586 90.2894 69.0041C91.1061 73.7322 90.0104 78.8627 88.2318 78.6385C88.1029 78.6222 87.571 78.5074 87.0492 78.3833ZM31.7532 76.0246C31.6544 75.6539 31.5718 74.7288 31.5696 73.9688C31.5674 73.1641 31.3261 72.1154 30.9921 71.4577C30.1703 69.8396 29.7852 66.6816 30.1214 64.3164C30.6627 60.5085 33.2948 53.7807 35.5344 50.4809C37.766 47.1929 42.1782 43.6585 44.3448 43.4234C45.0784 43.3438 45.2832 43.4792 45.7299 44.3396C46.1665 45.1807 46.2282 45.7889 46.0996 47.9821C45.9629 50.312 46.0073 50.6714 46.486 51.1065C47.0424 51.6124 47.3819 53.8203 47.3751 56.8882C47.3729 57.6815 47.3794 59.2799 47.3877 60.44C47.4122 63.7058 46.8644 64.3452 42.048 66.6716C37.0348 69.093 35.0097 70.914 32.8824 74.9133C32.0412 76.4948 31.9124 76.6217 31.7532 76.0246ZM74.9806 67.556C74.2932 66.0405 74.742 63.7655 75.9855 62.4617C76.618 61.7985 76.8053 61.2586 76.9834 59.5848C77.2577 57.0059 78.3022 54.7955 79.9025 53.4078C81.1038 52.3659 84.2311 50.6091 86.1313 49.9086C87.8214 49.2855 92.9038 48.0898 93.8618 48.0898C95.1592 48.0898 96.4239 47.4838 98.0172 46.0986C100.124 44.2669 101.328 44.8093 99.4933 46.7636C98.9362 47.3569 98.4803 47.9662 98.4803 48.1175C98.4803 48.5157 99.7902 48.9552 100.977 48.9552H102L101.807 50.1704C101.7 50.8387 101.567 51.4324 101.51 51.4896C101.453 51.5467 100.927 51.4608 100.342 51.2984C99.4836 51.0604 99.1389 51.0948 98.5585 51.4768C97.9115 51.9026 97.8552 52.088 97.9999 53.315C98.1405 54.5074 98.0794 54.7332 97.5165 55.1037C96.9233 55.4941 96.7839 55.4615 95.7584 54.6935C95.1458 54.2347 94.4344 53.8593 94.1776 53.8593C93.4787 53.8593 91.0135 55.5163 91.0135 55.9861C91.0135 56.2108 91.2869 57.284 91.6211 58.3708C92.2918 60.552 92.283 63.805 91.603 65.0813C91.2483 65.7469 91.2071 65.7021 90.4062 63.7815C89.3645 61.2835 87.0728 58.6038 85.6377 58.2058C84.866 57.9918 84.4228 58.0246 83.8135 58.3411C82.8493 58.8419 82.6766 59.0851 82.0876 60.771C81.6835 61.9278 81.4819 62.1245 80.244 62.5694C78.4764 63.2046 76.8467 64.7984 76.2122 66.5123C75.5549 68.2881 75.3799 68.4364 74.9806 67.556ZM48.6587 62.6171C48.7822 62.0048 48.9272 60.8548 48.9809 60.0614C49.0345 59.2682 49.1556 58.0252 49.2498 57.2994C49.3613 56.4407 49.2762 55.6313 49.006 54.982C48.7778 54.4331 48.6528 53.5611 48.7283 53.0441C48.8044 52.5237 48.6506 51.5384 48.384 50.837C47.4724 48.4395 48.6022 45.5042 51.5508 42.6088C54.9116 39.3087 55.8305 37.1735 55.6373 33.1132C55.5449 31.1726 55.374 30.3709 54.8824 29.5719C54.1686 28.4117 53.7488 28.2458 52.0996 28.4717C51.0659 28.6133 50.8179 28.5129 49.6241 27.4696C47.7583 25.8389 45.4621 24.5165 43.0057 23.6577C41.2055 23.0284 40.607 22.9484 38.889 23.108C37.7833 23.2107 36.5561 23.324 36.1619 23.36C35.5501 23.4158 35.3881 23.2445 35.0548 22.1898C34.5401 20.5611 34.8184 19.1477 35.7782 18.516C36.3879 18.1147 36.9935 18.0469 39.0013 18.1552C41.9034 18.3117 44.261 19.081 46.4277 20.5785C47.6713 21.438 48.0111 21.5577 48.3663 21.2616C48.6031 21.0642 48.7969 20.808 48.7969 20.6922C48.7969 20.5765 48.2154 19.5925 47.5046 18.5054C45.8485 15.9726 45.8202 15.321 47.355 15.0606C50.1286 14.5899 52.0052 16.3586 54.8804 22.1534C57.3167 27.0636 58.8244 31.693 58.8415 34.3152C58.8458 35.0542 58.9777 35.3969 59.2565 35.3969C59.839 35.3969 59.9566 34.53 60.274 27.8966C60.5835 21.4283 61.1125 18.5721 62.5171 15.7844C63.2086 14.4122 63.4475 14.1806 64.3125 14.0447C64.8612 13.9585 65.9984 14.0008 66.8395 14.1386C68.2302 14.3666 68.3315 14.4327 67.9566 14.8686C67.0364 15.9387 64.9984 22.2754 64.4167 25.8752C63.8854 29.1624 63.8769 33.9546 64.4023 33.9546C64.6395 33.9546 65.017 33.0906 65.3876 31.6998C66.495 27.5441 67.8394 25.1689 70.6982 22.3182L73.2548 19.7687L73.0609 18.3529C72.8513 16.8219 72.9186 16.7376 74.4737 16.5843C75.1901 16.5136 75.3946 16.6659 75.9122 17.6558C76.4103 18.6086 76.6647 18.8097 77.3718 18.8097C78.0652 18.8097 78.3167 18.6215 78.6927 17.8216C79.487 16.1318 81.5363 15.9357 81.5363 17.5495C81.5363 18.4623 82.64 19.3484 84.2078 19.6943C84.7995 19.8248 85.1547 20.1629 85.4526 20.879C86.2246 22.7351 85.9882 22.8784 82.1814 22.8625C78.9709 22.849 78.7147 22.8927 76.8771 23.7671C75.8151 24.2724 74.2933 25.2994 73.4953 26.0492C71.9006 27.5475 70.336 30.4422 70.336 31.8942C70.336 32.8983 70.6536 33.1263 72.7771 33.6459C75.4681 34.3043 79.0652 36.8945 80.819 39.4366C81.6056 40.5767 81.6261 40.6754 81.1499 41.0252C80.8707 41.2303 79.3485 41.8649 77.7673 42.4354L74.8923 43.4726L72.6967 42.3972C71.1526 41.6409 70.0624 41.305 69.0227 41.2651C65.2727 41.1213 61.8564 44.5682 60.8293 49.5321C60.5428 50.9163 60.5853 55.4917 60.8962 56.7363C60.9669 57.0194 60.3308 57.5012 58.9921 58.1787C57.7613 58.8015 56.276 59.8946 55.1617 60.9975C53.4382 62.7034 53.2403 62.8148 51.4283 63.0994C50.3759 63.2647 49.2717 63.4742 48.9745 63.5651C48.4858 63.7145 48.4556 63.6238 48.6587 62.6171ZM62.3869 55.7325C62.2601 55.4162 62.1551 54.2516 62.1537 53.1445C62.1515 51.5212 62.2409 51.1138 62.6146 51.0395C62.9105 50.9806 63.2526 51.317 63.5611 51.9699C64.1213 53.1557 63.9697 54.5068 63.1549 55.5919C62.6363 56.2825 62.6095 56.2874 62.3869 55.7325ZM95.419 45.6217C94.9165 44.3063 96.2582 40.3011 97.4086 39.6826C97.8914 39.4231 98.0763 39.4618 98.3858 39.8869C99.2237 41.0379 98.5899 43.7347 97.119 45.2772C96.2696 46.1679 95.6738 46.2887 95.419 45.6217ZM47.3554 43.1721C47.156 42.6887 46.6213 42.1001 46.1671 41.8641C45.1679 41.3451 43.8102 41.6397 41.2737 42.9258C40.366 43.3861 39.5525 43.7627 39.466 43.7627C39.1309 43.7627 39.7313 42.0782 40.8367 39.9175C41.5769 38.4707 42.7434 36.8568 44.0823 35.4271C46.1193 33.2521 48.3765 31.4169 48.662 31.7036C48.7401 31.782 48.5539 32.4179 48.2483 33.1167C46.9209 36.1523 46.9145 39.4565 48.2311 42.0488C48.7019 42.9758 48.7579 43.318 48.4915 43.6404C47.9912 44.246 47.7587 44.1501 47.3554 43.1721ZM67.6297 43.6654L66.503 43.3239L67.2843 42.9664C68.3499 42.4786 69.5734 42.5176 70.8478 43.0799C71.9 43.5442 71.9051 43.5543 71.1975 43.7724C70.1582 44.0927 68.9169 44.0554 67.6297 43.6654ZM49.6049 40.9501C49.1207 39.7736 49.2146 36.0737 49.7787 34.0988C50.3744 32.0135 51.6134 30.0928 52.4409 29.9719C52.9239 29.9014 53.1448 30.1464 53.5436 31.1951C54.5501 33.8425 53.6088 38.338 51.5278 40.8222C50.5812 41.9522 50.0324 41.9887 49.6049 40.9501Z" fill="#990000"/>
<path d="M65.9603 119.687C63.3699 119.21 59.6959 117.493 57.9869 115.961C57.2761 115.324 56.1336 113.975 55.4479 112.962C54.5904 111.696 53.6145 110.72 52.3219 109.837C49.097 107.633 44.8318 102.785 44.3217 100.744C44.2151 100.317 43.2456 99.0692 42.1672 97.9709C38.9699 94.7143 36.4448 90.4853 33.403 83.2929C32.6411 81.4913 32.7192 79.7473 33.6669 77.398C35.1942 73.612 37.5538 70.9208 40.7827 69.2821L42.6764 68.321L43.1293 70.3934L43.5823 72.4658L42.8151 73.0348C41.3336 74.1336 40.4863 75.251 40.3325 76.3088C40.0848 78.0121 39.5921 80.6712 39.4254 81.2049C39.3185 81.5472 39.453 81.4907 39.8673 81.0194C40.1949 80.6467 40.728 79.4784 41.052 78.4231C41.376 77.3679 41.9911 75.9943 42.4189 75.3708L43.1968 74.237L43.2724 75.515C43.4074 77.7968 44.201 80.5409 44.9826 81.4287C45.5024 82.0192 45.6583 82.1 45.4999 81.697C44.451 79.0283 44.3276 78.1441 44.7385 76.2413L44.9199 75.4012L46.4906 76.8752C47.3545 77.6859 48.108 78.3023 48.1652 78.2449C48.3215 78.0879 47.6545 76.9193 46.7602 75.7833C45.7131 74.4532 44.8302 71.7215 44.7208 69.4735L44.6328 67.6643L45.8662 66.961C47.794 65.8619 50.2668 64.9456 51.5253 64.8641C52.5751 64.7961 52.7684 64.9033 53.7703 66.1097C55.2256 67.8619 55.9645 68.3093 57.7685 68.5304L59.2793 68.7157L59.357 70.3023C59.4499 72.1976 58.7954 73.4745 57.2664 74.3807C55.871 75.2076 56.0149 75.299 57.6998 74.6559C58.4896 74.3544 59.1832 74.1927 59.2411 74.2965C59.299 74.4003 59.5645 75.1567 59.8312 75.9774C60.3361 77.5317 61.4698 78.9851 61.0299 77.5141C60.4926 75.7175 60.3936 74.5747 60.6151 72.7245C60.746 71.6303 60.9182 70.5644 60.9976 70.356C61.2009 69.8225 63.9422 72.005 66.5058 74.7414C67.6373 75.9491 68.7969 76.9372 69.0826 76.9372C69.5321 76.9372 69.5158 76.8763 68.9611 76.4861C68.4258 76.1094 67.4891 74.8122 66.1857 72.6422C65.774 71.9567 67.97 72.5352 69.9976 73.6463C71.9771 74.7311 72.1027 74.5057 70.2642 73.168C69.6245 72.7025 69.225 72.3216 69.3764 72.3216C69.5279 72.3216 69.8696 72.1593 70.1359 71.961C70.5376 71.6617 70.2158 71.5949 68.2423 71.5678C65.6799 71.5327 64.5237 71.1305 63.0589 69.7645C60.9984 67.8431 60.95 66.5081 62.8752 64.6992C64.4453 63.224 65.8294 62.5135 67.1329 62.5135C67.9975 62.5135 68.3387 63.0069 68.7772 64.8914C68.8785 65.3266 69.0907 65.6024 69.2488 65.5042C69.5153 65.3388 69.4166 64.0692 69.027 62.6496C68.8982 62.1803 69.0675 61.9916 69.8829 61.6954C70.8836 61.332 72.6335 59.8271 72.6335 59.33C72.6335 59.1901 72.0196 59.4561 71.2693 59.9211C69.943 60.7431 65.322 62.0671 64.8348 61.7646C64.3889 61.4878 64.5853 60.3047 65.3021 58.9505C66.173 57.3054 65.8599 57.2322 64.486 58.7597C63.7967 59.5262 63.387 60.3145 63.2585 61.122C63.1071 62.0732 62.7721 62.6054 61.701 63.5965C60.9505 64.2909 59.9841 65.3698 59.5534 65.994C59.1228 66.6183 58.5851 67.129 58.3586 67.129C57.8316 67.129 55.4935 65.5207 55.3231 65.0411C54.9598 64.0177 57.2171 61.6283 60.2844 59.7894C63.0883 58.1084 64.4725 56.886 65.1396 55.502C66.2087 53.2835 65.8678 51.586 63.9588 49.6221L62.7844 48.4139L63.5658 46.8095C63.9956 45.927 64.4513 45.2051 64.5783 45.2051C64.7053 45.2051 65.2732 45.3998 65.8403 45.6378C68.9724 46.9523 79.3247 45.0673 85.7204 42.0178C88.1104 40.8782 89.9682 39.1601 90.8616 37.2632C91.8294 35.2082 92.4529 34.8229 94.3838 35.0869C96.317 35.3512 96.5222 35.5911 95.4644 36.3509C92.7599 38.2935 92.3131 39.6192 94.3944 39.5256L95.6001 39.4714L94.8438 40.968C94.3395 41.9659 94.0421 43.098 93.9511 44.3658L93.8147 46.267L91.0732 46.7549C85.6438 47.7213 81.8965 49.3946 78.7552 52.2557C76.55 54.2642 75.2182 56.7391 75.2182 58.8286C75.2182 59.8911 75.0405 60.4782 74.5058 61.1823C73.5996 62.3758 72.9207 64.3007 72.9207 65.6768C72.9207 66.2661 73.1791 67.7634 73.495 69.0042C74.1327 71.5085 74.2696 76.4123 73.7649 78.668C73.285 80.813 72.038 83.8516 71.5244 84.1277C70.355 84.7564 67.3819 85.5914 66.313 85.5914C64.6088 85.5914 63.0527 84.6625 61.7189 82.8489C61.0779 81.9774 60.3572 81.2643 60.1172 81.2643C59.7809 81.2643 59.8413 81.4792 60.3806 82.2018C60.7655 82.7175 61.3456 83.6701 61.6697 84.3187L62.259 85.498L59.3332 86.7341C57.724 87.414 56.3428 88.0374 56.2638 88.1196C55.8847 88.5138 59.0356 87.8274 60.5564 87.1844C62.2855 86.4534 64.1324 86.2312 64.432 86.7182C64.6461 87.0662 61.8179 89.6026 61.0395 89.7606C60.7032 89.8289 59.5829 89.9401 58.5501 90.0078C57.3509 90.0863 56.2609 90.3582 55.5346 90.7601L54.3971 91.3894L55.833 91.2199C60.4328 90.6768 60.8588 90.6757 60.8588 91.2069C60.8588 91.8952 58.7636 94.3614 57.5263 95.1295C56.3169 95.8803 56.4531 96.1989 57.7623 95.6817C58.9934 95.1955 60.6601 93.6084 61.9082 91.734C63.6682 89.0909 66.4123 87.207 69.0266 86.8471L70.2984 86.672L69.7694 88.3794C69.4784 89.3186 69.1453 90.7305 69.0292 91.5172C68.8576 92.6794 68.4779 93.3753 67.0027 95.2311C65.0279 97.7155 63.4213 100.569 62.8476 102.611C62.647 103.325 62.279 104.15 62.0298 104.445C61.3746 105.219 59.5912 106.088 57.1254 106.833C55.11 107.443 55.0889 107.666 57.0536 107.593C57.5719 107.574 57.4844 108.128 56.8382 108.958C56.5293 109.354 56.2742 110.003 56.2713 110.4C56.2659 111.077 56.3035 111.059 56.8747 110.112C57.2094 109.556 57.8874 108.733 58.3813 108.283C59.2944 107.45 61.4018 106.234 61.595 106.428C61.6534 106.486 61.7377 108.441 61.7825 110.772C61.8493 114.242 61.9291 114.922 62.223 114.525C62.4204 114.258 62.582 113.912 62.582 113.756C62.582 113.6 62.9051 113.778 63.2999 114.15C64.1313 114.935 64.1793 114.808 63.589 113.389L63.16 112.358L63.9479 112.54L64.7359 112.723L64.1233 112.21C63.2265 111.461 62.8692 110.597 62.8692 109.182C62.8692 106.521 64.4456 102.29 66.6399 99.0609C67.9204 97.1765 69.7155 95.111 70.0727 95.111C70.4762 95.111 70.866 96.9631 71.0594 99.7987C71.1649 101.346 71.3533 102.611 71.4781 102.611C71.7496 102.611 72.0498 101.58 72.0552 100.629C72.0585 100.04 72.1223 99.997 72.5089 100.319C73.1304 100.837 73.7786 102.161 73.8005 102.958L73.8187 103.621L74.0831 102.959C74.3019 102.412 74.4439 102.349 74.9076 102.599C76.0915 103.235 75.9519 102.739 74.4922 101.122C73.2523 99.7492 72.5127 98.4566 71.4698 95.8403C70.6537 93.7931 70.5699 93.3147 70.683 91.351C70.7795 89.6771 71.0229 88.6955 71.7038 87.2339C72.8463 84.7814 74.2661 82.7066 74.8019 82.7066C75.79 82.7066 79.5531 88.9533 79.9971 91.3308C80.1002 91.8825 80.0243 93.1435 79.8285 94.1328C79.5954 95.3111 79.5674 96.1018 79.7474 96.4249C79.9731 96.8299 80.0576 96.7293 80.2195 95.8623C80.4525 94.6147 80.7524 94.7232 81.5859 96.3566C82.4102 97.9721 82.5457 97.3635 81.8282 95.2685C81.1266 93.2204 81.062 91.6493 81.6792 91.6493C81.9156 91.6493 82.2928 92.0712 82.5173 92.5868L82.9255 93.5244L82.9489 92.6065C82.9669 91.9053 82.7732 91.5461 82.129 91.0853C81.601 90.7077 81.0639 89.887 80.693 88.8913C79.9702 86.9508 79.9662 87.0945 80.7466 86.9745C81.3841 86.8764 81.3827 86.8694 80.6382 86.4496C79.679 85.9087 76.9462 82.3282 76.4684 80.9864C76.2686 80.4252 76.0994 79.2167 76.0925 78.3007L76.0799 76.6352L77.5009 77.7635C79.2566 79.1575 81.2485 79.7112 82.9004 79.2644C83.8219 79.0151 84.2626 79.0452 85.1508 79.418C85.7583 79.673 87.0947 79.9655 88.1207 80.0681L89.986 80.2546L90.525 81.9854C90.9696 83.413 91.0378 84.2975 90.9142 87.0337C90.7474 90.7221 90.1239 93.5154 88.5317 97.7072C87.2818 100.998 83.6924 108.317 82.1998 110.62C81.6095 111.53 80.9556 112.591 80.7467 112.977C80.0163 114.328 77.1662 117.654 76.0326 118.479C74.1182 119.872 69.7851 120.391 65.9603 119.687ZM87.0492 78.3833C85.0958 77.9186 83.6055 77.1945 83.4611 76.6399C83.3808 76.3312 82.9794 75.9505 82.5692 75.7939C82.0022 75.5773 81.8235 75.3079 81.8235 74.6697C81.8235 74.087 81.5982 73.682 81.0868 73.3455C80.4626 72.9347 80.3793 72.7204 80.5406 71.942C80.6454 71.4368 80.9152 70.7314 81.1403 70.3744C81.4907 69.8186 81.4914 69.7253 81.1447 69.7253C80.5966 69.7253 79.8039 70.9985 79.6118 72.1873C79.4806 72.9995 79.5986 73.3048 80.3257 74.0352C80.8801 74.5921 81.146 75.1053 81.0571 75.4468C80.9549 75.8394 81.1545 76.0821 81.801 76.3511C82.3442 76.5771 82.6845 76.9274 82.6845 77.2606C82.6845 77.7079 82.4662 77.8026 81.4353 77.8026C79.8559 77.8026 78.1509 76.6277 77.0891 74.8077C76.0858 73.0881 75.9087 71.7928 76.4664 70.2557C76.7162 69.5673 77.0598 68.4507 77.2299 67.7743C77.6454 66.1229 78.97 64.6774 80.6158 64.0796C82.2618 63.4817 83.1717 62.5525 83.4217 61.2142C83.7079 59.6813 84.661 59.8395 86.5085 61.7267C88.7592 64.0258 89.7634 65.9586 90.2894 69.0041C91.1061 73.7322 90.0104 78.8627 88.2318 78.6385C88.1029 78.6222 87.571 78.5074 87.0492 78.3833ZM31.7532 76.0246C31.6544 75.6539 31.5718 74.7288 31.5696 73.9688C31.5674 73.1641 31.3261 72.1154 30.9921 71.4577C30.1703 69.8396 29.7852 66.6816 30.1214 64.3164C30.6627 60.5085 33.2948 53.7807 35.5344 50.4809C37.766 47.1929 42.1782 43.6585 44.3448 43.4234C45.0784 43.3438 45.2832 43.4792 45.7299 44.3396C46.1665 45.1807 46.2282 45.7889 46.0996 47.9821C45.9629 50.312 46.0073 50.6714 46.486 51.1065C47.0424 51.6124 47.3819 53.8203 47.3751 56.8882C47.3729 57.6815 47.3794 59.2799 47.3877 60.44C47.4122 63.7058 46.8644 64.3452 42.048 66.6716C37.0348 69.093 35.0097 70.914 32.8824 74.9133C32.0412 76.4948 31.9124 76.6217 31.7532 76.0246ZM74.9806 67.556C74.2932 66.0405 74.742 63.7655 75.9855 62.4617C76.618 61.7985 76.8053 61.2586 76.9834 59.5848C77.2577 57.0059 78.3022 54.7955 79.9025 53.4078C81.1038 52.3659 84.2311 50.6091 86.1313 49.9086C87.8214 49.2855 92.9038 48.0898 93.8618 48.0898C95.1592 48.0898 96.4239 47.4838 98.0172 46.0986C100.124 44.2669 101.328 44.8093 99.4933 46.7636C98.9362 47.3569 98.4803 47.9662 98.4803 48.1175C98.4803 48.5157 99.7902 48.9552 100.977 48.9552H102L101.807 50.1704C101.7 50.8387 101.567 51.4324 101.51 51.4896C101.453 51.5467 100.927 51.4608 100.342 51.2984C99.4836 51.0604 99.1389 51.0948 98.5585 51.4768C97.9115 51.9026 97.8552 52.088 97.9999 53.315C98.1405 54.5074 98.0794 54.7332 97.5165 55.1037C96.9233 55.4941 96.7839 55.4615 95.7584 54.6935C95.1458 54.2347 94.4344 53.8593 94.1776 53.8593C93.4787 53.8593 91.0135 55.5163 91.0135 55.9861C91.0135 56.2108 91.2869 57.284 91.6211 58.3708C92.2918 60.552 92.283 63.805 91.603 65.0813C91.2483 65.7469 91.2071 65.7021 90.4062 63.7815C89.3645 61.2835 87.0728 58.6038 85.6377 58.2058C84.866 57.9918 84.4228 58.0246 83.8135 58.3411C82.8493 58.8419 82.6766 59.0851 82.0876 60.771C81.6835 61.9278 81.4819 62.1245 80.244 62.5694C78.4764 63.2046 76.8467 64.7984 76.2122 66.5123C75.5549 68.2881 75.3799 68.4364 74.9806 67.556ZM48.6587 62.6171C48.7822 62.0048 48.9272 60.8548 48.9809 60.0614C49.0345 59.2682 49.1556 58.0252 49.2498 57.2994C49.3613 56.4407 49.2762 55.6313 49.006 54.982C48.7778 54.4331 48.6528 53.5611 48.7283 53.0441C48.8044 52.5237 48.6506 51.5384 48.384 50.837C47.4724 48.4395 48.6022 45.5042 51.5508 42.6088C54.9116 39.3087 55.8305 37.1735 55.6373 33.1132C55.5449 31.1726 55.374 30.3709 54.8824 29.5719C54.1686 28.4117 53.7488 28.2458 52.0996 28.4717C51.0659 28.6133 50.8179 28.5129 49.6241 27.4696C47.7583 25.8389 45.4621 24.5165 43.0057 23.6577C41.2055 23.0284 40.607 22.9484 38.889 23.108C37.7833 23.2107 36.5561 23.324 36.1619 23.36C35.5501 23.4158 35.3881 23.2445 35.0548 22.1898C34.5401 20.5611 34.8184 19.1477 35.7782 18.516C36.3879 18.1147 36.9935 18.0469 39.0013 18.1552C41.9034 18.3117 44.261 19.081 46.4277 20.5785C47.6713 21.438 48.0111 21.5577 48.3663 21.2616C48.6031 21.0642 48.7969 20.808 48.7969 20.6922C48.7969 20.5765 48.2154 19.5925 47.5046 18.5054C45.8485 15.9726 45.8202 15.321 47.355 15.0606C50.1286 14.5899 52.0052 16.3586 54.8804 22.1534C57.3167 27.0636 58.8244 31.693 58.8415 34.3152C58.8458 35.0542 58.9777 35.3969 59.2565 35.3969C59.839 35.3969 59.9566 34.53 60.274 27.8966C60.5835 21.4283 61.1125 18.5721 62.5171 15.7844C63.2086 14.4122 63.4475 14.1806 64.3125 14.0447C64.8612 13.9585 65.9984 14.0008 66.8395 14.1386C68.2302 14.3666 68.3315 14.4327 67.9566 14.8686C67.0364 15.9387 64.9984 22.2754 64.4167 25.8752C63.8854 29.1624 63.8769 33.9546 64.4023 33.9546C64.6395 33.9546 65.017 33.0906 65.3876 31.6998C66.495 27.5441 67.8394 25.1689 70.6982 22.3182L73.2548 19.7687L73.0609 18.3529C72.8513 16.8219 72.9186 16.7376 74.4737 16.5843C75.1901 16.5136 75.3946 16.6659 75.9122 17.6558C76.4103 18.6086 76.6647 18.8097 77.3718 18.8097C78.0652 18.8097 78.3167 18.6215 78.6927 17.8216C79.487 16.1318 81.5363 15.9357 81.5363 17.5495C81.5363 18.4623 82.64 19.3484 84.2078 19.6943C84.7995 19.8248 85.1547 20.1629 85.4526 20.879C86.2246 22.7351 85.9882 22.8784 82.1814 22.8625C78.9709 22.849 78.7147 22.8927 76.8771 23.7671C75.8151 24.2724 74.2933 25.2994 73.4953 26.0492C71.9006 27.5475 70.336 30.4422 70.336 31.8942C70.336 32.8983 70.6536 33.1263 72.7771 33.6459C75.4681 34.3043 79.0652 36.8945 80.819 39.4366C81.6056 40.5767 81.6261 40.6754 81.1499 41.0252C80.8707 41.2303 79.3485 41.8649 77.7673 42.4354L74.8923 43.4726L72.6967 42.3972C71.1526 41.6409 70.0624 41.305 69.0227 41.2651C65.2727 41.1213 61.8564 44.5682 60.8293 49.5321C60.5428 50.9163 60.5853 55.4917 60.8962 56.7363C60.9669 57.0194 60.3308 57.5012 58.9921 58.1787C57.7613 58.8015 56.276 59.8946 55.1617 60.9975C53.4382 62.7034 53.2403 62.8148 51.4283 63.0994C50.3759 63.2647 49.2717 63.4742 48.9745 63.5651C48.4858 63.7145 48.4556 63.6238 48.6587 62.6171ZM62.3869 55.7325C62.2601 55.4162 62.1551 54.2516 62.1537 53.1445C62.1515 51.5212 62.2409 51.1138 62.6146 51.0395C62.9105 50.9806 63.2526 51.317 63.5611 51.9699C64.1213 53.1557 63.9697 54.5068 63.1549 55.5919C62.6363 56.2825 62.6095 56.2874 62.3869 55.7325ZM95.419 45.6217C94.9165 44.3063 96.2582 40.3011 97.4086 39.6826C97.8914 39.4231 98.0763 39.4618 98.3858 39.8869C99.2237 41.0379 98.5899 43.7347 97.119 45.2772C96.2696 46.1679 95.6738 46.2887 95.419 45.6217ZM47.3554 43.1721C47.156 42.6887 46.6213 42.1001 46.1671 41.8641C45.1679 41.3451 43.8102 41.6397 41.2737 42.9258C40.366 43.3861 39.5525 43.7627 39.466 43.7627C39.1309 43.7627 39.7313 42.0782 40.8367 39.9175C41.5769 38.4707 42.7434 36.8568 44.0823 35.4271C46.1193 33.2521 48.3765 31.4169 48.662 31.7036C48.7401 31.782 48.5539 32.4179 48.2483 33.1167C46.9209 36.1523 46.9145 39.4565 48.2311 42.0488C48.7019 42.9758 48.7579 43.318 48.4915 43.6404C47.9912 44.246 47.7587 44.1501 47.3554 43.1721ZM67.6297 43.6654L66.503 43.3239L67.2843 42.9664C68.3499 42.4786 69.5734 42.5176 70.8478 43.0799C71.9 43.5442 71.9051 43.5543 71.1975 43.7724C70.1582 44.0927 68.9169 44.0554 67.6297 43.6654ZM49.6049 40.9501C49.1207 39.7736 49.2146 36.0737 49.7787 34.0988C50.3744 32.0135 51.6134 30.0928 52.4409 29.9719C52.9239 29.9014 53.1448 30.1464 53.5436 31.1951C54.5501 33.8425 53.6088 38.338 51.5278 40.8222C50.5812 41.9522 50.0324 41.9887 49.6049 40.9501Z" stroke="black" stroke-width="4" mask="url(#path-1-outside-1_393_202)"/>
</svg>
