<svg width="128" height="128" viewBox="0 0 128 128" fill="none" xmlns="http://www.w3.org/2000/svg">
<path d="M63.0347 40.6874L63.9563 42.3872L64.8108 40.6526L65.7076 38.8322C69.5463 31.04 75.9014 26.026 83.7965 24.4806C85.2537 24.1954 87.2093 24.0584 89.1485 24.0776C91.093 24.0969 92.9411 24.2727 94.1926 24.5782C99.5036 25.875 102.984 27.7597 106.352 31.1139C110.342 35.0859 112.216 39.2043 112.874 45.6036C113.8 54.6209 109.61 64.1438 100.703 72.6537C97.7938 75.4331 95.176 77.5549 85.3388 85.0837C74.3729 93.4764 71.5379 95.8178 67.1673 100.118L64.2548 102.984L62.6392 101.353C57.992 96.6622 54.9179 94.126 43.2508 85.3227C38.6151 81.825 33.719 78.0662 32.3653 76.9671C29.0414 74.2684 22.953 68.1373 21.0923 65.6336C16.3004 59.186 14.2204 51.55 15.2632 44.4902C16.1226 38.6722 18.5722 33.9072 22.2681 30.4404C25.9654 26.9722 30.9622 24.7544 36.9946 24.1235C41.3771 23.6652 46.1135 24.4922 50.2162 26.4402C55.1671 28.791 58.2841 31.9255 61.5927 38.0279L63.0347 40.6874Z" fill="#990000" stroke="black" stroke-width="2"/>
</svg>
