<svg width="128" height="128" viewBox="0 0 128 128" fill="none" xmlns="http://www.w3.org/2000/svg">
<mask id="path-1-outside-1_393_241" maskUnits="userSpaceOnUse" x="27.5389" y="68.8516" width="99" height="34" fill="black">
<rect fill="white" x="27.5389" y="68.8516" width="99" height="34"/>
<path d="M62.101 87.4294C71.176 92.2424 76.4454 95.8649 85.2119 98.4567C86.8637 98.9448 95.0854 100.51 96.8355 100.669C106.392 101.537 114.433 100.711 122.448 98.0367L124.166 97.464L124.467 96.7472C124.927 95.6535 125.12 94.1246 124.924 93.1226C124.833 92.6588 124.718 92.2704 124.668 92.2596C124.619 92.2489 123.914 92.4417 123.101 92.6875C120.431 93.4953 114.733 94.6772 112.559 94.8736C112.306 94.8966 111.19 95.0141 110.078 95.1352C105.241 95.6613 99.6897 95.6312 94.2951 95.05C91.4994 94.7489 85.3795 93.4924 82.9575 92.7226C77.0381 90.8411 72.301 87.0371 67.3713 83.5447C61.8463 79.6304 58.424 77.6035 54.0093 75.631C50.9497 74.264 49.6363 73.8425 46.1129 73.0996C42.4863 72.3346 40.91 72.2121 37.145 72.4029C35.1145 72.5059 34.6991 72.4846 33.3574 72.2033C31.9527 71.9095 31.8107 71.8533 31.2654 71.3752C30.9436 71.0932 30.6574 70.8575 30.6293 70.8516C30.6012 70.8455 29.5389 75.77 29.5389 75.77L29.5814 76.8557C29.5814 76.8557 32.7773 78.1813 35.1656 79.0405C38.0035 80.0611 46.3566 82.091 48.6372 82.3139C48.6372 82.3139 50.9097 82.7579 52.8829 83.4076C54.8559 84.0573 55.7835 84.0788 62.101 87.4294Z"/>
</mask>
<path d="M62.101 87.4294C71.176 92.2424 76.4454 95.8649 85.2119 98.4567C86.8637 98.9448 95.0854 100.51 96.8355 100.669C106.392 101.537 114.433 100.711 122.448 98.0367L124.166 97.464L124.467 96.7472C124.927 95.6535 125.12 94.1246 124.924 93.1226C124.833 92.6588 124.718 92.2704 124.668 92.2596C124.619 92.2489 123.914 92.4417 123.101 92.6875C120.431 93.4953 114.733 94.6772 112.559 94.8736C112.306 94.8966 111.19 95.0141 110.078 95.1352C105.241 95.6613 99.6897 95.6312 94.2951 95.05C91.4994 94.7489 85.3795 93.4924 82.9575 92.7226C77.0381 90.8411 72.301 87.0371 67.3713 83.5447C61.8463 79.6304 58.424 77.6035 54.0093 75.631C50.9497 74.264 49.6363 73.8425 46.1129 73.0996C42.4863 72.3346 40.91 72.2121 37.145 72.4029C35.1145 72.5059 34.6991 72.4846 33.3574 72.2033C31.9527 71.9095 31.8107 71.8533 31.2654 71.3752C30.9436 71.0932 30.6574 70.8575 30.6293 70.8516C30.6012 70.8455 29.5389 75.77 29.5389 75.77L29.5814 76.8557C29.5814 76.8557 32.7773 78.1813 35.1656 79.0405C38.0035 80.0611 46.3566 82.091 48.6372 82.3139C48.6372 82.3139 50.9097 82.7579 52.8829 83.4076C54.8559 84.0573 55.7835 84.0788 62.101 87.4294Z" fill="#5E402B"/>
<path d="M62.101 87.4294C71.176 92.2424 76.4454 95.8649 85.2119 98.4567C86.8637 98.9448 95.0854 100.51 96.8355 100.669C106.392 101.537 114.433 100.711 122.448 98.0367L124.166 97.464L124.467 96.7472C124.927 95.6535 125.12 94.1246 124.924 93.1226C124.833 92.6588 124.718 92.2704 124.668 92.2596C124.619 92.2489 123.914 92.4417 123.101 92.6875C120.431 93.4953 114.733 94.6772 112.559 94.8736C112.306 94.8966 111.19 95.0141 110.078 95.1352C105.241 95.6613 99.6897 95.6312 94.2951 95.05C91.4994 94.7489 85.3795 93.4924 82.9575 92.7226C77.0381 90.8411 72.301 87.0371 67.3713 83.5447C61.8463 79.6304 58.424 77.6035 54.0093 75.631C50.9497 74.264 49.6363 73.8425 46.1129 73.0996C42.4863 72.3346 40.91 72.2121 37.145 72.4029C35.1145 72.5059 34.6991 72.4846 33.3574 72.2033C31.9527 71.9095 31.8107 71.8533 31.2654 71.3752C30.9436 71.0932 30.6574 70.8575 30.6293 70.8516C30.6012 70.8455 29.5389 75.77 29.5389 75.77L29.5814 76.8557C29.5814 76.8557 32.7773 78.1813 35.1656 79.0405C38.0035 80.0611 46.3566 82.091 48.6372 82.3139C48.6372 82.3139 50.9097 82.7579 52.8829 83.4076C54.8559 84.0573 55.7835 84.0788 62.101 87.4294Z" stroke="black" stroke-width="2" mask="url(#path-1-outside-1_393_241)"/>
<mask id="path-2-outside-2_393_241" maskUnits="userSpaceOnUse" x="2" y="63.9667" width="44" height="38" fill="black">
<rect fill="white" x="2" y="63.9667" width="44" height="38"/>
<path d="M3.82518 97.6811C2.85221 98.3176 2.72575 99.3239 3.51991 100.11C3.99814 100.584 5.62141 100.642 15.9644 100.56C28.4474 100.46 28.7116 100.426 28.7118 98.9025C28.712 97.1192 28.8849 97.1443 16.361 97.1357C6.23958 97.1292 4.55679 97.2023 3.82518 97.6811Z"/>
<path d="M35.926 97.7585C35.2738 98.6394 35.2836 99.1763 35.9641 99.8508C36.3988 100.281 37.3442 100.388 40.4738 100.363C44.7803 100.329 45.2814 100.135 45.294 98.499C45.3046 97.1084 44.1063 96.7608 39.8994 96.9335C36.954 97.0547 36.3551 97.1794 35.926 97.7585Z"/>
<path d="M3.48846 87.1021C2.94038 87.6454 2.93098 88.8737 3.47082 89.4084C4.07499 90.0067 34.4553 89.7635 35.0686 89.1555C35.3032 88.923 35.4975 88.4025 35.5007 87.9989C35.5037 87.5953 35.3173 87.078 35.0863 86.8492C34.4822 86.2508 4.10186 86.494 3.48846 87.1021Z"/>
<path d="M3.35467 76.9668C3.1115 77.6404 3.14345 78.0641 3.46667 78.4509C3.83611 78.8931 4.80302 78.9852 8.74242 78.9537C13.824 78.913 14.4135 78.7423 14.4245 77.3087C14.4352 75.9101 13.7474 75.7428 8.5765 75.8875L3.69502 76.0241L3.35467 76.9668Z"/>
<path d="M18.8211 76.5783C18.3787 77.2432 18.3378 77.5928 18.637 78.1522C18.9751 78.7843 19.3529 78.8687 21.7599 78.8495C24.6493 78.8264 25.3469 78.5158 25.3566 77.2483C25.3662 75.9989 24.6675 75.6815 21.956 75.7032C19.6267 75.7218 19.3372 75.8027 18.8211 76.5783Z"/>
<path d="M3.78426 65.5659C2.996 66.3474 3.08303 67.336 3.9955 67.9653C4.90481 68.5925 9.54219 68.6826 10.6392 68.0944C11.5632 67.5991 11.5769 65.8042 10.6604 65.3236C9.53852 64.7352 4.44101 64.9149 3.78426 65.5659Z"/>
</mask>
<path d="M3.82518 97.6811C2.85221 98.3176 2.72575 99.3239 3.51991 100.11C3.99814 100.584 5.62141 100.642 15.9644 100.56C28.4474 100.46 28.7116 100.426 28.7118 98.9025C28.712 97.1192 28.8849 97.1443 16.361 97.1357C6.23958 97.1292 4.55679 97.2023 3.82518 97.6811Z" fill="#895D3E"/>
<path d="M35.926 97.7585C35.2738 98.6394 35.2836 99.1763 35.9641 99.8508C36.3988 100.281 37.3442 100.388 40.4738 100.363C44.7803 100.329 45.2814 100.135 45.294 98.499C45.3046 97.1084 44.1063 96.7608 39.8994 96.9335C36.954 97.0547 36.3551 97.1794 35.926 97.7585Z" fill="#895D3E"/>
<path d="M3.48846 87.1021C2.94038 87.6454 2.93098 88.8737 3.47082 89.4084C4.07499 90.0067 34.4553 89.7635 35.0686 89.1555C35.3032 88.923 35.4975 88.4025 35.5007 87.9989C35.5037 87.5953 35.3173 87.078 35.0863 86.8492C34.4822 86.2508 4.10186 86.494 3.48846 87.1021Z" fill="#895D3E"/>
<path d="M3.35467 76.9668C3.1115 77.6404 3.14345 78.0641 3.46667 78.4509C3.83611 78.8931 4.80302 78.9852 8.74242 78.9537C13.824 78.913 14.4135 78.7423 14.4245 77.3087C14.4352 75.9101 13.7474 75.7428 8.5765 75.8875L3.69502 76.0241L3.35467 76.9668Z" fill="#895D3E"/>
<path d="M18.8211 76.5783C18.3787 77.2432 18.3378 77.5928 18.637 78.1522C18.9751 78.7843 19.3529 78.8687 21.7599 78.8495C24.6493 78.8264 25.3469 78.5158 25.3566 77.2483C25.3662 75.9989 24.6675 75.6815 21.956 75.7032C19.6267 75.7218 19.3372 75.8027 18.8211 76.5783Z" fill="#895D3E"/>
<path d="M3.78426 65.5659C2.996 66.3474 3.08303 67.336 3.9955 67.9653C4.90481 68.5925 9.54219 68.6826 10.6392 68.0944C11.5632 67.5991 11.5769 65.8042 10.6604 65.3236C9.53852 64.7352 4.44101 64.9149 3.78426 65.5659Z" fill="#895D3E"/>
<path d="M3.82518 97.6811C2.85221 98.3176 2.72575 99.3239 3.51991 100.11C3.99814 100.584 5.62141 100.642 15.9644 100.56C28.4474 100.46 28.7116 100.426 28.7118 98.9025C28.712 97.1192 28.8849 97.1443 16.361 97.1357C6.23958 97.1292 4.55679 97.2023 3.82518 97.6811Z" stroke="black" mask="url(#path-2-outside-2_393_241)"/>
<path d="M35.926 97.7585C35.2738 98.6394 35.2836 99.1763 35.9641 99.8508C36.3988 100.281 37.3442 100.388 40.4738 100.363C44.7803 100.329 45.2814 100.135 45.294 98.499C45.3046 97.1084 44.1063 96.7608 39.8994 96.9335C36.954 97.0547 36.3551 97.1794 35.926 97.7585Z" stroke="black" mask="url(#path-2-outside-2_393_241)"/>
<path d="M3.48846 87.1021C2.94038 87.6454 2.93098 88.8737 3.47082 89.4084C4.07499 90.0067 34.4553 89.7635 35.0686 89.1555C35.3032 88.923 35.4975 88.4025 35.5007 87.9989C35.5037 87.5953 35.3173 87.078 35.0863 86.8492C34.4822 86.2508 4.10186 86.494 3.48846 87.1021Z" stroke="black" mask="url(#path-2-outside-2_393_241)"/>
<path d="M3.35467 76.9668C3.1115 77.6404 3.14345 78.0641 3.46667 78.4509C3.83611 78.8931 4.80302 78.9852 8.74242 78.9537C13.824 78.913 14.4135 78.7423 14.4245 77.3087C14.4352 75.9101 13.7474 75.7428 8.5765 75.8875L3.69502 76.0241L3.35467 76.9668Z" stroke="black" mask="url(#path-2-outside-2_393_241)"/>
<path d="M18.8211 76.5783C18.3787 77.2432 18.3378 77.5928 18.637 78.1522C18.9751 78.7843 19.3529 78.8687 21.7599 78.8495C24.6493 78.8264 25.3469 78.5158 25.3566 77.2483C25.3662 75.9989 24.6675 75.6815 21.956 75.7032C19.6267 75.7218 19.3372 75.8027 18.8211 76.5783Z" stroke="black" mask="url(#path-2-outside-2_393_241)"/>
<path d="M3.78426 65.5659C2.996 66.3474 3.08303 67.336 3.9955 67.9653C4.90481 68.5925 9.54219 68.6826 10.6392 68.0944C11.5632 67.5991 11.5769 65.8042 10.6604 65.3236C9.53852 64.7352 4.44101 64.9149 3.78426 65.5659Z" stroke="black" mask="url(#path-2-outside-2_393_241)"/>
<mask id="path-3-outside-3_393_241" maskUnits="userSpaceOnUse" x="29.6294" y="63.9265" width="97" height="33" fill="black">
<rect fill="white" x="29.6294" y="63.9265" width="97" height="33"/>
<path d="M30.6294 70.8515C30.6575 70.8575 30.9437 71.0932 31.2655 71.3752C31.8108 71.8533 31.9527 71.9095 33.3575 72.2033C34.6991 72.4845 35.1146 72.5059 37.1451 72.4029C40.9101 72.2121 42.4863 72.3346 46.113 73.0996C49.6363 73.8425 50.9497 74.264 54.0094 75.631C58.424 77.6035 61.8464 79.6303 67.3714 83.5446C72.3011 87.0371 77.0381 90.8411 82.9576 92.7226C85.3796 93.4924 91.4995 94.7489 94.2952 95.0499C99.6898 95.6312 105.241 95.6613 110.078 95.1352C111.19 95.0141 112.306 94.8965 112.559 94.8736C114.733 94.6772 120.431 93.4953 123.101 92.6875C123.914 92.4416 124.619 92.2488 124.669 92.2596C124.121 91.4081 122.956 89.6912 122.682 89.6345C122.807 90.1659 122.863 90.6762 122.806 90.7684C122.657 91.0117 120.362 91.6274 117.452 92.203C109.491 93.7784 101.53 94.0887 93.654 93.1319C90.956 92.8036 86.3681 91.8682 84.2556 91.216C80.3088 89.9965 77.7895 88.5247 74.5781 86.849C72.0586 85.1031 70.7909 83.7589 67.3595 81.3544C59.5042 75.8499 53.8525 73.048 47.539 71.5282C43.6488 70.5918 41.4656 70.3893 37.1712 70.5665C33.3873 70.7225 32.4089 70.4497 31.633 69.0224C31.0468 67.9443 30.7702 66.6532 30.8012 64.9265L30.6294 70.8515Z"/>
</mask>
<path d="M30.6294 70.8515C30.6575 70.8575 30.9437 71.0932 31.2655 71.3752C31.8108 71.8533 31.9527 71.9095 33.3575 72.2033C34.6991 72.4845 35.1146 72.5059 37.1451 72.4029C40.9101 72.2121 42.4863 72.3346 46.113 73.0996C49.6363 73.8425 50.9497 74.264 54.0094 75.631C58.424 77.6035 61.8464 79.6303 67.3714 83.5446C72.3011 87.0371 77.0381 90.8411 82.9576 92.7226C85.3796 93.4924 91.4995 94.7489 94.2952 95.0499C99.6898 95.6312 105.241 95.6613 110.078 95.1352C111.19 95.0141 112.306 94.8965 112.559 94.8736C114.733 94.6772 120.431 93.4953 123.101 92.6875C123.914 92.4416 124.619 92.2488 124.669 92.2596C124.121 91.4081 122.956 89.6912 122.682 89.6345C122.807 90.1659 122.863 90.6762 122.806 90.7684C122.657 91.0117 120.362 91.6274 117.452 92.203C109.491 93.7784 101.53 94.0887 93.654 93.1319C90.956 92.8036 86.3681 91.8682 84.2556 91.216C80.3088 89.9965 77.7895 88.5247 74.5781 86.849C72.0586 85.1031 70.7909 83.7589 67.3595 81.3544C59.5042 75.8499 53.8525 73.048 47.539 71.5282C43.6488 70.5918 41.4656 70.3893 37.1712 70.5665C33.3873 70.7225 32.4089 70.4497 31.633 69.0224C31.0468 67.9443 30.7702 66.6532 30.8012 64.9265L30.6294 70.8515Z" fill="black"/>
<path d="M30.6294 70.8515C30.6575 70.8575 30.9437 71.0932 31.2655 71.3752C31.8108 71.8533 31.9527 71.9095 33.3575 72.2033C34.6991 72.4845 35.1146 72.5059 37.1451 72.4029C40.9101 72.2121 42.4863 72.3346 46.113 73.0996C49.6363 73.8425 50.9497 74.264 54.0094 75.631C58.424 77.6035 61.8464 79.6303 67.3714 83.5446C72.3011 87.0371 77.0381 90.8411 82.9576 92.7226C85.3796 93.4924 91.4995 94.7489 94.2952 95.0499C99.6898 95.6312 105.241 95.6613 110.078 95.1352C111.19 95.0141 112.306 94.8965 112.559 94.8736C114.733 94.6772 120.431 93.4953 123.101 92.6875C123.914 92.4416 124.619 92.2488 124.669 92.2596C124.121 91.4081 122.956 89.6912 122.682 89.6345C122.807 90.1659 122.863 90.6762 122.806 90.7684C122.657 91.0117 120.362 91.6274 117.452 92.203C109.491 93.7784 101.53 94.0887 93.654 93.1319C90.956 92.8036 86.3681 91.8682 84.2556 91.216C80.3088 89.9965 77.7895 88.5247 74.5781 86.849C72.0586 85.1031 70.7909 83.7589 67.3595 81.3544C59.5042 75.8499 53.8525 73.048 47.539 71.5282C43.6488 70.5918 41.4656 70.3893 37.1712 70.5665C33.3873 70.7225 32.4089 70.4497 31.633 69.0224C31.0468 67.9443 30.7702 66.6532 30.8012 64.9265L30.6294 70.8515Z" stroke="black" mask="url(#path-3-outside-3_393_241)"/>
<mask id="path-4-outside-4_393_241" maskUnits="userSpaceOnUse" x="29.7988" y="25" width="95" height="70" fill="black">
<rect fill="white" x="29.7988" y="25" width="95" height="70"/>
<path d="M74.5781 86.8491C77.7895 88.5248 80.3088 89.9965 84.2556 91.216C86.3681 91.8683 90.956 92.8036 93.654 93.1319C101.53 94.0888 109.491 93.7784 117.452 92.203C120.362 91.6274 122.657 91.0117 122.806 90.7684C122.863 90.6762 122.807 90.166 122.682 89.6346C121.9 86.3125 118.261 83.8006 111.05 81.6038C108.149 80.7199 107.75 80.6082 103.522 79.4915C95.7757 77.4454 92.908 76.3308 91.4281 74.7909C91.2149 74.5688 90.7235 73.6641 90.337 72.7805C89.4091 70.6596 88.0911 68.6027 85.6698 65.4979C82.509 61.4445 82.0618 60.6683 81.8258 58.8258C81.5519 56.6875 80.4079 52.6869 78.0701 47.5203L77.2827 45.7803L79.7582 34.1309L79.1684 33.3664C77.5202 31.2325 75.0055 29.7848 72.7036 29.6448C70.5962 29.5168 69.1644 29.9296 66.0536 31.5623C62.8941 33.2207 59.4599 33.486 55.6456 32.3665C53.6795 31.7895 51.9979 31.0352 50.4317 30.0278L49.2232 29.2506C49.2232 29.2506 47.606 27.991 46.9097 27.4068C44.5392 25.4181 38.9607 26.1203 38.9607 26.1203C38.6769 26.7863 38.1673 28.0497 37.8825 30.9384C36.9188 40.7145 36.6219 42.4045 34.4952 49.0143C32.5518 55.0547 32.2388 56.1604 31.5549 59.4007C31.1153 61.4839 30.867 63.1757 30.811 64.5863C30.8065 64.7016 30.8032 64.815 30.8012 64.9266C30.7702 66.6532 31.0468 67.9443 31.633 69.0225C32.4089 70.4498 33.3873 70.7226 37.1712 70.5665C41.4656 70.3893 43.6488 70.5918 47.539 71.5283C53.8525 73.048 59.5042 75.8499 67.3595 81.3544C70.7909 83.759 72.0586 85.1032 74.5781 86.8491Z"/>
</mask>
<path d="M74.5781 86.8491C77.7895 88.5248 80.3088 89.9965 84.2556 91.216C86.3681 91.8683 90.956 92.8036 93.654 93.1319C101.53 94.0888 109.491 93.7784 117.452 92.203C120.362 91.6274 122.657 91.0117 122.806 90.7684C122.863 90.6762 122.807 90.166 122.682 89.6346C121.9 86.3125 118.261 83.8006 111.05 81.6038C108.149 80.7199 107.75 80.6082 103.522 79.4915C95.7757 77.4454 92.908 76.3308 91.4281 74.7909C91.2149 74.5688 90.7235 73.6641 90.337 72.7805C89.4091 70.6596 88.0911 68.6027 85.6698 65.4979C82.509 61.4445 82.0618 60.6683 81.8258 58.8258C81.5519 56.6875 80.4079 52.6869 78.0701 47.5203L77.2827 45.7803L79.7582 34.1309L79.1684 33.3664C77.5202 31.2325 75.0055 29.7848 72.7036 29.6448C70.5962 29.5168 69.1644 29.9296 66.0536 31.5623C62.8941 33.2207 59.4599 33.486 55.6456 32.3665C53.6795 31.7895 51.9979 31.0352 50.4317 30.0278L49.2232 29.2506C49.2232 29.2506 47.606 27.991 46.9097 27.4068C44.5392 25.4181 38.9607 26.1203 38.9607 26.1203C38.6769 26.7863 38.1673 28.0497 37.8825 30.9384C36.9188 40.7145 36.6219 42.4045 34.4952 49.0143C32.5518 55.0547 32.2388 56.1604 31.5549 59.4007C31.1153 61.4839 30.867 63.1757 30.811 64.5863C30.8065 64.7016 30.8032 64.815 30.8012 64.9266C30.7702 66.6532 31.0468 67.9443 31.633 69.0225C32.4089 70.4498 33.3873 70.7226 37.1712 70.5665C41.4656 70.3893 43.6488 70.5918 47.539 71.5283C53.8525 73.048 59.5042 75.8499 67.3595 81.3544C70.7909 83.759 72.0586 85.1032 74.5781 86.8491Z" fill="#5E402B"/>
<path d="M74.5781 86.8491C77.7895 88.5248 80.3088 89.9965 84.2556 91.216C86.3681 91.8683 90.956 92.8036 93.654 93.1319C101.53 94.0888 109.491 93.7784 117.452 92.203C120.362 91.6274 122.657 91.0117 122.806 90.7684C122.863 90.6762 122.807 90.166 122.682 89.6346C121.9 86.3125 118.261 83.8006 111.05 81.6038C108.149 80.7199 107.75 80.6082 103.522 79.4915C95.7757 77.4454 92.908 76.3308 91.4281 74.7909C91.2149 74.5688 90.7235 73.6641 90.337 72.7805C89.4091 70.6596 88.0911 68.6027 85.6698 65.4979C82.509 61.4445 82.0618 60.6683 81.8258 58.8258C81.5519 56.6875 80.4079 52.6869 78.0701 47.5203L77.2827 45.7803L79.7582 34.1309L79.1684 33.3664C77.5202 31.2325 75.0055 29.7848 72.7036 29.6448C70.5962 29.5168 69.1644 29.9296 66.0536 31.5623C62.8941 33.2207 59.4599 33.486 55.6456 32.3665C53.6795 31.7895 51.9979 31.0352 50.4317 30.0278L49.2232 29.2506C49.2232 29.2506 47.606 27.991 46.9097 27.4068C44.5392 25.4181 38.9607 26.1203 38.9607 26.1203C38.6769 26.7863 38.1673 28.0497 37.8825 30.9384C36.9188 40.7145 36.6219 42.4045 34.4952 49.0143C32.5518 55.0547 32.2388 56.1604 31.5549 59.4007C31.1153 61.4839 30.867 63.1757 30.811 64.5863C30.8065 64.7016 30.8032 64.815 30.8012 64.9266C30.7702 66.6532 31.0468 67.9443 31.633 69.0225C32.4089 70.4498 33.3873 70.7226 37.1712 70.5665C41.4656 70.3893 43.6488 70.5918 47.539 71.5283C53.8525 73.048 59.5042 75.8499 67.3595 81.3544C70.7909 83.759 72.0586 85.1032 74.5781 86.8491Z" stroke="black" stroke-width="2" mask="url(#path-4-outside-4_393_241)"/>
</svg>
