<svg width="127" height="213" viewBox="0 0 127 213" fill="none" xmlns="http://www.w3.org/2000/svg">
<path d="M0.485352 211.216C2.08906 212.196 2.67432 211.859 5.90654 208.358C9.20799 204.783 12.0548 199.871 14.2556 193.997C6.95818 205.428 2.74622 210.707 0.485352 211.216Z" fill="#53321A"/>
<path d="M48.9438 132.105C49.4124 131.457 49.8319 130.888 50.1845 130.425C52.1739 127.811 55.8152 121.62 58.2762 116.666C62.7757 107.608 64.1811 105.742 71.7883 98.7241C76.311 94.5518 78.2004 90.243 78.2004 84.1015C78.2004 79.7756 79.595 77.3978 84.7437 72.9452C88.4053 69.7786 89.2484 68.5889 89.9803 65.5553C90.4164 63.7475 90.6074 61.3211 90.4463 59.8755C89.4832 61.6757 88.1127 62.3717 86.5303 61.8442C84.6424 61.215 83.6786 62.4635 79.1671 71.3829C77.0559 75.5567 74.1408 80.2082 72.689 81.7197C72.5545 81.8597 72.4213 82.0032 72.2894 82.1501C71.3386 85.1288 69.5272 88.2359 67.3424 90.8366C66.3454 93.7013 65.8411 96.6263 66.0325 99.0818C66.1763 100.927 65.7853 101.722 64.2768 102.651C61.8851 104.124 56.2506 113.601 54.3136 119.409C53.2758 122.521 51.4128 126.89 48.9438 132.105Z" fill="#53321A"/>
<path d="M95.5513 38.7109C96.7559 43.3741 97.2999 46.0545 97.2884 47.5497L98.9462 46.9134C101.888 45.7843 105.795 44.8487 107.628 44.8321C110.76 44.8054 111.269 44.4961 116.103 39.6877C120.484 35.3294 121.487 33.8386 122.878 29.6229C124.894 23.5091 124.923 19.4726 122.982 15.2037C119.978 8.59772 113.891 4.34045 107.288 3.71143C114.331 4.8529 120.23 9.64413 122.29 16.4386C123.363 19.9769 122.164 26.4797 119.675 30.6174C117.845 33.6611 111.599 37.2498 108.055 37.2945C106.63 37.3125 104.201 37.6415 102.657 38.0256C101.015 38.4341 99.6014 38.3264 99.2524 37.7661C99.2231 37.7192 99.195 37.665 99.1678 37.6038C97.8373 38.0037 96.6352 38.3712 95.5513 38.7109Z" fill="#53321A"/>
<path d="M98.6378 33.3309C96.9956 34.2715 95.5413 34.9371 94.8841 34.9371C94.7686 34.9371 94.6479 34.9025 94.5244 34.837C94.47 34.6355 94.4147 34.4314 94.3586 34.2245C90.1265 18.6277 90.2501 15.5387 95.2296 12.4719C97.0823 11.3307 98.8268 10.9566 101.423 11.1437C102.701 11.2357 103.91 11.4144 105.043 11.6721C102.132 11.4886 99.3073 12.5379 96.9338 14.8978C93.7874 18.0262 93.5889 20.744 96.275 23.918C97.3269 25.161 98.2806 25.865 99.1593 26.0318C98.7677 27.7853 98.5837 30.779 98.6378 33.3309Z" fill="#53321A"/>
<path d="M104.471 29.2907C105.027 28.8036 105.454 28.3646 105.683 28.0165C106.335 27.0273 106.868 25.3843 106.868 24.3652C106.868 22.8547 105.772 22.2278 104.527 22.4895C105.102 23.3255 105.223 24.7244 104.554 26.1517C103.929 27.486 103.895 28.5239 104.471 29.2907Z" fill="#53321A"/>
<path d="M41.7305 128.221C40.3127 131.637 37.9043 137.013 35.8742 141.263C33.4651 146.308 30.5191 152.661 29.3277 155.382C24.7746 165.78 15.8823 180.425 10.7927 185.908C9.46704 187.336 8.23462 188.777 7.10085 190.221C7.66119 189.065 8.25498 187.856 8.88271 186.592C19.2018 165.806 32.2403 142.794 41.7305 128.221Z" fill="#53321A"/>
<path d="M86.8555 59.6227C92.6712 50.1214 110.908 38.6912 117.762 32.6105C115.04 28.9404 115.2 23.9726 118.155 17.5858C121.315 10.7541 120.742 4.05862 118.026 0.0571289C113.919 0.931935 109.468 3.8808 106.196 8.91193C102.068 15.2597 97.3186 19.6464 92.3685 18.6942C90.5185 27.0872 89.4282 47.198 86.8555 59.6227Z" fill="#91BE39"/>
<path d="M6.36584 202.697C6.36584 202.697 5.85647 202.58 5.60898 202.461C3.80621 201.591 3.75468 200.997 5.07587 196.314C6.40823 191.591 9.15233 186.542 13.0808 181.537C13.6412 180.382 14.235 179.172 14.8627 177.908C25.1818 157.122 38.2203 134.11 47.7105 119.537C47.9753 118.899 48.2055 118.329 48.3923 117.848C49.5791 114.79 52.9554 108.452 55.8952 103.763C61.2699 95.1899 62.1253 93.0194 64.1197 82.8937C65.3054 76.8737 67.9944 73.0077 73.2454 69.7736C76.9441 67.4955 78.2427 65.0646 79.3384 58.3679C80.1176 53.6054 80.6909 52.2662 82.8991 50.0501C84.2271 48.7175 86.2249 47.2643 87.5456 46.6485C87.7144 46.2704 87.9402 45.8793 88.2232 45.4777C88.8295 44.617 89.1335 43.4149 88.8987 42.8065C88.7127 42.3247 88.8302 41.883 89.4434 41.3949L89.1781 39.995C88.5943 36.9137 87.337 33.1189 86.386 31.5609C84.7595 28.8995 84.7556 28.3059 86.3215 21.6882C87.7408 15.69 88.4869 14.0568 91.3593 10.6617C95.5248 5.7379 98.9606 3.58764 103.633 2.98047C100.043 3.93684 94.7736 8.98335 92.5463 13.2656C90.9079 16.4158 91.1285 23.5847 92.9567 26.6041C93.6917 27.818 94.6897 30.0446 95.1743 31.552C95.5999 32.8756 96.2443 33.8821 96.8291 34.1926C97.2136 35.6157 97.5553 36.9029 97.8559 38.0666C98.9399 37.7269 100.142 37.3594 101.472 36.9595C101.5 37.0206 101.528 37.0749 101.557 37.1218C101.906 37.682 103.319 37.7897 104.961 37.3813C106.505 36.9971 108.934 36.6681 110.359 36.6502C113.904 36.6054 120.149 33.0168 121.98 29.973C124.468 25.8354 126.359 18.0976 125.286 14.5593C127.228 18.8283 127.199 22.8648 125.182 28.9786C123.792 33.1943 122.789 34.685 118.408 39.0433C113.574 43.8518 113.064 44.1611 109.932 44.1878C108.1 44.2043 104.193 45.14 101.251 46.2691L99.5931 46.9053C99.5843 48.0462 99.2522 48.4971 98.6433 48.6124C97.9994 48.7343 97.1317 49.6242 96.7151 50.59C96.6234 50.8026 96.5271 51.0031 96.4263 51.1916C96.5874 52.6372 96.3964 55.0636 95.9603 56.8714C95.2284 59.905 94.3853 61.0948 90.7237 64.2614C85.575 68.7139 84.1804 71.0917 84.1804 75.4177C84.1804 81.5592 82.291 85.8679 77.7683 90.0403C70.1611 97.0583 68.7557 98.9243 64.2562 107.982C61.7951 112.936 58.1539 119.127 56.1645 121.741C55.8119 122.204 55.3923 122.773 54.9238 123.422C47.491 139.123 34.5652 162.495 22.119 182.336C21.4695 183.371 20.8419 184.364 20.2356 185.313C18.0348 191.187 15.188 196.099 11.8865 199.674C8.65429 203.175 7.96956 203.677 6.36584 202.697Z" fill="#482E1B"/>
<path d="M96.8882 41.4706C93.2754 42.3121 91.2514 42.896 90.2341 43.4344L90.0804 42.089C89.8075 39.7016 89.0602 36.7314 88.421 35.4878C87.3277 33.3633 87.3581 32.9094 88.9273 27.9388C90.3495 23.4335 91.0117 22.2268 93.398 19.7919C96.8586 16.2605 99.6056 14.8083 103.211 14.6041C108.789 14.2883 113.857 16.8875 116.63 21.1236C113.351 16.7725 107.985 14.4896 102.612 15.5096C99.8147 16.0408 95.7984 19.1585 93.8552 22.3074C92.4258 24.6237 92.191 30.115 93.4183 32.5244C93.9117 33.493 94.5491 35.2502 94.8347 36.4292C95.1384 37.683 95.7135 38.5991 96.2201 38.6359C96.2625 38.639 96.3096 38.6388 96.3609 38.6354C96.56 39.6759 96.7356 40.618 96.8882 41.4706Z" fill="#4F3624"/>
<path d="M99.4678 37.4769C99.4081 38.9197 99.4696 40.138 99.7028 40.5818C99.7438 40.6598 99.8103 40.7291 99.8988 40.7891C100.056 40.7544 100.215 40.7193 100.376 40.6838C112.532 38.0064 114.598 36.8266 114.926 32.3756C115.048 30.7195 114.684 29.4087 113.635 27.7216C113.118 26.8912 112.567 26.1382 111.989 25.4648C113.148 27.3657 113.434 29.6454 112.664 32.0857C111.644 35.3208 109.858 36.4194 106.736 35.7319C105.514 35.4627 104.694 35.0685 104.269 34.5343C103.21 35.4211 101.23 36.6077 99.4678 37.4769Z" fill="#4F3624"/>
<path d="M100.157 32.1039C100.293 31.5553 100.441 31.1118 100.598 30.8332C101.042 30.042 101.975 29.0988 102.671 28.7371C103.703 28.201 104.52 28.7186 104.783 29.6524C104.008 29.5608 103.01 29.9753 102.272 30.9337C101.583 31.8297 100.886 32.2209 100.157 32.1039Z" fill="#4F3624"/>
<path d="M1.13649 212.1C-0.693804 210.947 1.26796 204.785 7.8671 191.176C9.00087 189.732 10.2333 188.291 11.5589 186.863C16.6486 181.38 25.5409 166.735 30.0939 156.337C31.2854 153.617 34.2313 147.263 36.6405 142.218C38.6705 137.968 41.079 132.592 42.4968 129.176C45.7602 124.164 48.604 120.151 50.7735 117.569C54.7191 112.874 59.8549 103.12 59.8549 100.323C59.8549 98.5588 60.3287 97.8097 61.9821 96.9596C62.8012 96.5385 63.6252 96.0015 64.4361 95.3721C66.2738 92.146 75.578 75.6641 78.0348 71.6817C82.6717 62.7994 84.5583 61.2888 83.0261 60.0245C81.8924 59.089 81.6608 57.791 82.3319 56.2875C82.451 56.232 82.5646 56.1832 82.6717 56.142L85.026 55.2364L84.2297 51.0339C85.2751 50.2018 87.7616 49.2351 92.6422 47.7056C93.8468 52.3688 94.3908 55.0491 94.3793 56.5443L90.6881 57.961L91.1535 60.4278C91.1768 60.5512 91.1964 60.686 91.2125 60.8306C90.2494 62.6308 88.8789 63.3269 87.2965 62.7994C85.4087 62.1701 84.4449 63.4186 79.9334 72.338C77.8222 76.5118 68.3898 95.0197 66.938 96.5312C66.766 97.7615 66.7137 98.9456 66.7987 100.037C66.9426 101.882 66.5516 102.677 65.0431 103.606C62.6513 105.079 57.0169 114.556 55.0799 120.364C54.042 123.476 52.1791 127.845 49.7101 133.061C47.5351 136.072 44.3031 140.803 41.7983 144.664C38.7539 149.357 34.8729 155.192 33.1739 157.632C26.6813 166.956 18.8427 182.185 16.835 189.374C16.2932 191.314 15.687 193.177 15.0219 194.952C7.72443 206.383 3.51247 211.662 1.2516 212.171C1.21382 212.148 1.17546 212.124 1.13649 212.1Z" fill="#5C4331"/>
</svg>
